<?xml version="1.0" encoding="UTF-8"?>
<svg id="Layer_1" data-name="Layer 1" xmlns="http://www.w3.org/2000/svg" viewBox="0 0 512 512">
  <defs>
    <style>
      .cls-1 {
        fill: #0000000d;
      }

      .cls-2 {
        fill: #C4421A;
      }
    </style>
  </defs>
  <circle class="cls-1" cx="256" cy="256" r="256"/>
  <g>
    <g id="_Radial_Repeat_" data-name="&amp;lt;Radial Repeat&amp;gt;">
      <path class="cls-2" d="m86.03,234.83c-20.05,15.5-4.98,28.93,11.28,38.49,15.87,9.04,33.39,15.3,50.83,20.85,35.32,10.93,71.77,18.46,108.3,24.04,36.16,5.26,73.28,9.11,109.6,7.56,8.94-.42,17.8-1.25,26.08-2.87,4.12-.82,8.1-1.83,11.59-3.13,3.47-1.26,6.49-2.95,7.93-4.32.72-.67.97-1.15,1.02-1.33.09-2.23-1.43-4.79-2.86-7.08-4.17-6.29-10.49-12.23-16.51-17.39-6.85-5.96-14.54-11.12-21.8-16.52-14.84-10.92-29.37-22.11-44.15-32.85-26.88-19.11-59.12-40.39-93.34-32.8-23.09,6.23-34.65,34.27-33.62,56.88.95,26.93,18.46,48.29,42.93,58.34,16.52,6.62,35.24,1.89,50.57-6.26,7.97-4.32,15.39-9.9,21.42-16.79l2.27,1.79c-2.82,3.87-6.04,7.46-9.56,10.72-17.8,16.3-43.92,27.41-68.1,19.95-19.19-6.32-36.52-19.12-46.37-37.02-17.79-32.17-11.21-77.88,19.16-100.44,17.95-12.79,42.23-13.05,62.92-8.65,47.92,11.25,88.15,41.73,124.61,73.28,7.8,6.44,15.37,12.71,22.26,20.32,5.57,6.15,11.2,13.39,14.35,21.78,2.81,7.12,3.36,16.69-.49,24.09-19.91,41.76-144.92,19.17-183.23,11.51-37.09-7.65-73.7-17.52-109.05-31.24-17.73-7.03-35.22-14.8-51.06-25.7-8.01-5.79-16.11-12.1-20.17-21.64-4.58-11.09,2.41-20.41,11.53-25.94,0,0,1.67,2.36,1.67,2.36h0Z"/>
    </g>
    <g id="_Radial_Repeat_-2" data-name="&amp;lt;Radial Repeat&amp;gt;">
      <path class="cls-2" d="m277.17,86.03c-15.5-20.05-28.93-4.98-38.49,11.28-9.04,15.87-15.3,33.39-20.85,50.83-10.93,35.32-18.46,71.77-24.04,108.3-5.26,36.16-9.11,73.28-7.56,109.6.42,8.94,1.25,17.8,2.87,26.08.82,4.12,1.83,8.1,3.13,11.59,1.26,3.47,2.95,6.49,4.32,7.93.67.72,1.15.97,1.33,1.02,2.23.09,4.79-1.43,7.08-2.86,6.29-4.17,12.23-10.49,17.39-16.51,5.96-6.85,11.12-14.54,16.52-21.8,10.92-14.84,22.11-29.37,32.85-44.15,19.11-26.88,40.39-59.12,32.8-93.34-6.23-23.09-34.27-34.65-56.88-33.62-26.93.95-48.29,18.46-58.34,42.93-6.62,16.52-1.89,35.24,6.26,50.57,4.32,7.97,9.9,15.39,16.79,21.42l-1.79,2.27c-3.87-2.82-7.46-6.04-10.72-9.56-16.3-17.8-27.41-43.92-19.95-68.1,6.32-19.19,19.12-36.52,37.02-46.37,32.17-17.79,77.88-11.21,100.44,19.16,12.79,17.95,13.05,42.23,8.65,62.92-11.25,47.92-41.73,88.15-73.28,124.61-6.44,7.8-12.71,15.37-20.32,22.26-6.15,5.57-13.39,11.2-21.78,14.35-7.12,2.81-16.69,3.36-24.09-.49-41.76-19.91-19.17-144.92-11.51-183.23,7.65-37.09,17.52-73.7,31.24-109.05,7.03-17.73,14.8-35.22,25.7-51.06,5.79-8.01,12.1-16.11,21.64-20.17,11.09-4.58,20.41,2.41,25.94,11.53,0,0-2.36,1.67-2.36,1.67h0Z"/>
    </g>
    <g id="_Radial_Repeat_-3" data-name="&amp;lt;Radial Repeat&amp;gt;">
      <path class="cls-2" d="m425.97,277.17c20.05-15.5,4.98-28.93-11.28-38.49-15.87-9.04-33.39-15.3-50.83-20.85-35.32-10.93-71.77-18.46-108.3-24.04-36.16-5.26-73.28-9.11-109.6-7.56-8.94.42-17.8,1.25-26.08,2.87-4.12.82-8.1,1.83-11.59,3.13-3.47,1.26-6.49,2.95-7.93,4.32-.72.67-.97,1.15-1.02,1.33-.09,2.23,1.43,4.79,2.86,7.08,4.17,6.29,10.49,12.23,16.51,17.39,6.85,5.96,14.54,11.12,21.8,16.52,14.84,10.92,29.37,22.11,44.15,32.85,26.88,19.11,59.12,40.39,93.34,32.8,23.09-6.23,34.65-34.27,33.62-56.88-.95-26.93-18.46-48.29-42.93-58.34-16.52-6.62-35.24-1.89-50.57,6.26-7.97,4.32-15.39,9.9-21.42,16.79,0,0-2.27-1.79-2.27-1.79,2.82-3.87,6.04-7.46,9.56-10.72,17.8-16.3,43.92-27.41,68.1-19.95,19.19,6.32,36.52,19.12,46.37,37.02,17.79,32.17,11.21,77.88-19.16,100.44-17.95,12.79-42.23,13.05-62.92,8.65-47.92-11.25-88.15-41.73-124.61-73.28-7.8-6.44-15.37-12.71-22.26-20.32-5.57-6.15-11.2-13.39-14.35-21.78-2.81-7.12-3.36-16.69.49-24.09,19.91-41.76,144.92-19.17,183.23-11.51,37.09,7.65,73.7,17.52,109.05,31.24,17.73,7.03,35.22,14.8,51.06,25.7,8.01,5.79,16.11,12.1,20.17,21.64,4.58,11.09-2.41,20.41-11.53,25.94,0,0-1.67-2.36-1.67-2.36h0Z"/>
    </g>
    <g id="_Radial_Repeat_-4" data-name="&amp;lt;Radial Repeat&amp;gt;">
      <path class="cls-2" d="m234.83,425.97c15.5,20.05,28.93,4.98,38.49-11.28,9.04-15.87,15.3-33.39,20.85-50.83,10.93-35.32,18.46-71.77,24.04-108.3,5.26-36.16,9.11-73.28,7.56-109.6-.42-8.94-1.25-17.8-2.87-26.08-.82-4.12-1.83-8.1-3.13-11.59-1.26-3.47-2.95-6.49-4.32-7.93-.67-.72-1.15-.97-1.33-1.02-2.23-.09-4.79,1.43-7.08,2.86-6.29,4.17-12.23,10.49-17.39,16.51-5.96,6.85-11.12,14.54-16.52,21.8-10.92,14.84-22.11,29.37-32.85,44.15-19.11,26.88-40.39,59.12-32.8,93.34,6.23,23.09,34.27,34.65,56.88,33.62,26.93-.95,48.29-18.46,58.34-42.93,6.62-16.52,1.89-35.24-6.26-50.57-4.32-7.97-9.9-15.39-16.79-21.42,0,0,1.79-2.27,1.79-2.27,3.87,2.82,7.46,6.04,10.72,9.56,16.3,17.8,27.41,43.92,19.95,68.1-6.32,19.19-19.12,36.52-37.02,46.37-32.17,17.79-77.88,11.21-100.44-19.16-12.79-17.95-13.05-42.23-8.65-62.92,11.25-47.92,41.73-88.15,73.28-124.61,6.44-7.8,12.71-15.37,20.32-22.26,6.15-5.57,13.39-11.2,21.78-14.35,7.12-2.81,16.69-3.36,24.09.49,41.76,19.91,19.17,144.92,11.51,183.23-7.65,37.09-17.52,73.7-31.24,109.05-7.03,17.73-14.8,35.22-25.7,51.06-5.79,8.01-12.1,16.11-21.64,20.17-11.09,4.58-20.41-2.41-25.94-11.53,0,0,2.36-1.67,2.36-1.67h0Z"/>
    </g>
  </g>
</svg>

