<?xml version="1.0" encoding="utf-8"?>
<!-- Generator: Adobe Illustrator 27.5.0, SVG Export Plug-In . SVG Version: 6.00 Build 0)  -->
<svg version="1.1" id="Layer_1" xmlns="http://www.w3.org/2000/svg" xmlns:xlink="http://www.w3.org/1999/xlink" x="0px" y="0px"
	 viewBox="0 0 500 500" style="enable-background:new 0 0 500 500;" xml:space="preserve">
<style type="text/css">
	.st0{display:none;fill-rule:evenodd;clip-rule:evenodd;fill:#C4421A;}
	.st1{fill:#C4421A;}
</style>
<circle class="st0" cx="247.4" cy="251.3" r="167.4"/>
<g>
	<g id="Layer_2_00000154424134437896473390000000161218540423962253_">
		<g>
			<g>
				<g id="p17HiGKS6N_00000098932426822396795170000003877197690229538971_">
					<path class="st1" d="M189.5,489.4c0,1.4,1.1,2.5,2.5,2.5h2.8c1.4,0,2.5-1.1,2.5-2.5v-2.8c0-1.4-1.1-2.5-2.5-2.5H192
						c-1.4,0-2.5,1.1-2.5,2.5V489.4z"/>
				</g>
				<g id="pMa7wO5zI_00000009565606322902765740000004852120475279160239_">
					<path class="st1" d="M214.1,487.3c0,1.4,1.1,2.5,2.5,2.5h6c1.4,0,2.5-1.1,2.5-2.5v-3.6c0-1.4-1.1-2.5-2.5-2.5h-6
						c-1.4,0-2.5,1.1-2.5,2.5V487.3z"/>
				</g>
				<path id="p179fAChyF_00000141418403655123013550000009296019344140971926_" class="st1" d="M236.1,483.2
					c-7-5-15.5-12.3-24.1-15.6c-2.7,0-4.9-8.1-6.1-10.2c-5.5,0.6-18-14.5-6.4-13.5c9.9-0.1,3.7,14,12.8,13c4.9,0.2,6.1,1.2,7.7,5.9
					c1.2,3.7,2.1,4.2,6.6,4.1c4.5-0.5,6.8,8,12.4,6.4C250.4,472.4,243.8,487.4,236.1,483.2z"/>
				<g id="pIIHWPwOd_00000101795282601735509000000000760064940968948147_">
					<path class="st1" d="M167.3,481c0,1.4,1.1,2.5,2.5,2.5h9.6c1.4,0,2.5-1.1,2.5-2.5v-6.8c0-1.4-1.1-2.5-2.5-2.5h-9.6
						c-1.4,0-2.5,1.1-2.5,2.5V481z"/>
				</g>
				<g id="pVjyPykMF_00000138537188695485746730000001755223037906321822_">
					<path class="st1" d="M198.7,481.4c0,1.4,1.1,2.5,2.5,2.5h6.9c1.4,0,2.5-1.1,2.5-2.5v-6.8c0-1.4-1.1-2.5-2.5-2.5h-6.9
						c-1.4,0-2.5,1.1-2.5,2.5L198.7,481.4L198.7,481.4z"/>
				</g>
				<g id="p32GVXz0V_00000096030896201409043520000010111689372717783710_">
					<path class="st1" d="M149,480.2c0,1.4,1.1,2.5,2.5,2.5h6.3c1.4,0,2.5-1.1,2.5-2.5v-2.2c0-1.4-1.1-2.5-2.5-2.5h-6.3
						c-1.4,0-2.5,1.1-2.5,2.5V480.2z"/>
				</g>
				<path id="p1HL4g7683_00000018199706262958436390000014589060179352962980_" class="st1" d="M253.1,472.5
					c-14.5-5.4-32.3-19.4-40.3-32.5c6.4-8,21.2,13.8,30.3,15.3C252.3,459.9,280.4,474,253.1,472.5z"/>
				<g id="p2P72DdnD_00000036933376872242828250000001787153873543979442_">
					<path class="st1" d="M186.1,470.1c0,1.4,1.1,2.5,2.5,2.5h7.2c1.4,0,2.5-1.1,2.5-2.5v-7c0-1.4-1.1-2.5-2.5-2.5h-7.2
						c-1.4,0-2.5,1.1-2.5,2.5V470.1z"/>
				</g>
				<g id="ptJFnBqQu_00000065052989609321763380000000765813592552690330_">
					<path class="st1" d="M140.9,465.9c0,1.4,1.1,2.5,2.5,2.5h6.9c1.4,0,2.5-1.1,2.5-2.5v-2.7c0-1.4-1.1-2.5-2.5-2.5h-6.9
						c-1.4,0-2.5,1.1-2.5,2.5V465.9z"/>
				</g>
				<g id="pFNNfQSsF_00000099630755813610769370000012433077373537329585_">
					<path class="st1" d="M127.4,465.3c0,1.4,1.1,2.5,2.5,2.5h2.6c1.4,0,2.5-1.1,2.5-2.5v-0.6c0-1.4-1.1-2.5-2.5-2.5h-2.6
						c-1.4,0-2.5,1.1-2.5,2.5V465.3z"/>
				</g>
				<g id="pktrvynQf_00000175294525970812675720000014251689044477079199_">
					<path class="st1" d="M158.5,463.8c0,1.4,1.1,2.5,2.5,2.5h7.6c1.4,0,2.5-1.1,2.5-2.5v-4.7c0-1.4-1.1-2.5-2.5-2.5h-7.6
						c-1.4,0-2.5,1.1-2.5,2.5V463.8z"/>
				</g>
				<path id="p9dEc2HI6_00000138543212840011356280000001588887974729511813_" class="st1" d="M266.1,460.4
					c-8.6-4.9-13.3-8.8-21-12.4c-2.2-2.7-0.9-6.9-5.2-6c-12.3,0.5-8.7-19.8,2.2-6.8C250.7,441.5,307,461.9,266.1,460.4z"/>
				<g id="pAwrpY26W_00000043438095060689027820000010702947312423788729_">
					<path class="st1" d="M177.2,456.6c0,1.4,1.1,2.5,2.5,2.5h4.8c1.4,0,2.5-1.1,2.5-2.5v-4.1c0-1.4-1.1-2.5-2.5-2.5h-4.8
						c-1.4,0-2.5,1.1-2.5,2.5V456.6z"/>
				</g>
				<g id="p03dmIT0H_00000165935571163158216990000014089825294878925715_">
					<path class="st1" d="M132.2,451.1c0,1.4,1.1,2.5,2.5,2.5h4.7c1.4,0,2.5-1.1,2.5-2.5v-4.4c0-1.4-1.1-2.5-2.5-2.5h-4.7
						c-1.4,0-2.5,1.1-2.5,2.5V451.1z"/>
				</g>
				<g id="pmDFLb47o_00000150810979451351876860000015177954418997835684_">
					<path class="st1" d="M111.7,449.7c0,1.4,1.1,2.5,2.5,2.5h4.4c1.4,0,2.5-1.1,2.5-2.5v-4.3c0-1.4-1.1-2.5-2.5-2.5h-4.4
						c-1.4,0-2.5,1.1-2.5,2.5V449.7z"/>
				</g>
				<g id="p14KuQCSMo_00000025405718344659191420000007620289888801530260_">
					<path class="st1" d="M150.7,447c0,1.4,1.1,2.5,2.5,2.5h4.7c1.4,0,2.5-1.1,2.5-2.5v-2.8c0-1.4-1.1-2.5-2.5-2.5h-4.7
						c-1.4,0-2.5,1.1-2.5,2.5V447z"/>
				</g>
				<path id="phZSTSaeE_00000003064874574084269260000001741561422298398395_" class="st1" d="M280.6,446.9
					c-13.4-6.8-33.9-13-39.9-28.1c5.9-5.4,23.7,11.9,33.9,12C294,432.5,309.8,450.2,280.6,446.9z"/>
				<g id="p11eADbchl_00000062905530716645490850000014399131588027329725_">
					<path class="st1" d="M168,442c0,1.4,1.1,2.5,2.5,2.5h4.8c1.4,0,2.5-1.1,2.5-2.5v-4.8c0-1.4-1.1-2.5-2.5-2.5h-4.8
						c-1.4,0-2.5,1.1-2.5,2.5V442z"/>
				</g>
				<g id="ph4IDrhSU_00000074441282926572014060000000267973440075717562_">
					<path class="st1" d="M186,436.4c0,1.4,1.1,2.5,2.5,2.5h2.8c1.4,0,2.5-1.1,2.5-2.5v-3.2c0-1.4-1.1-2.5-2.5-2.5h-2.8
						c-1.4,0-2.5,1.1-2.5,2.5V436.4z"/>
				</g>
				<g id="pvU5pfwmd_00000036227641835401877370000011332570097285932190_">
					<path class="st1" d="M122,434.6c0,1.4,1.1,2.5,2.5,2.5h5.2c1.4,0,2.5-1.1,2.5-2.5v-5.4c0-1.4-1.1-2.5-2.5-2.5h-5.2
						c-1.4,0-2.5,1.1-2.5,2.5V434.6z"/>
				</g>
				<g id="p19wK0fX22_00000172413218851809350710000012950877571299247037_">
					<path class="st1" d="M101.9,432c0,1.4,1.1,2.5,2.5,2.5h3.7c1.4,0,2.5-1.1,2.5-2.5v-6.3c0-1.4-1.1-2.5-2.5-2.5h-3.7
						c-1.4,0-2.5,1.1-2.5,2.5V432z"/>
				</g>
				<g id="pmI1TfoV1_00000071546664007621078360000000899195201031333784_">
					<path class="st1" d="M142.5,431.9c0,1.4,1.1,2.5,2.5,2.5h2.9c1.4,0,2.5-1.1,2.5-2.5v-4.2c0-1.4-1.1-2.5-2.5-2.5H145
						c-1.4,0-2.5,1.1-2.5,2.5V431.9z"/>
				</g>
				<g id="pItNO8qlR_00000182492504880340137570000015614151985566807447_">
					<path class="st1" d="M206.7,431.4c0,1.4,1.1,2.3,2.3,2.3c1.2,0,2.3-1.1,2.3-2.3v-2.8c0-1.4-1.1-2.3-2.3-2.3
						c-1.2,0-2.3,1.1-2.3,2.3V431.4z"/>
				</g>
				<path id="pWus32TMl_00000042726954780507336710000005819224201885368224_" class="st1" d="M295.1,431.8
					c-4.2,1.7-56.2-21.6-29.8-21.7c7.4,6,55.7,7.2,49,15.6C313.8,430.1,304.4,433,295.1,431.8z"/>
				<g id="pUpnmPzR_00000132055551504883224050000004081084929883269038_">
					<path class="st1" d="M222.1,427.2c0,1.4,1.1,2.5,2.5,2.5h2c1.4,0,2.5-1.1,2.5-2.5V425c0-1.4-1.1-2.5-2.5-2.5h-2
						c-1.4,0-2.5,1.1-2.5,2.5V427.2z"/>
				</g>
				<g id="p8WrKPXSl_00000046306852016670916960000017512359759094456494_">
					<path class="st1" d="M160.2,423.7c0,1.4,1.1,2.5,2.5,2.5h1.5c1.4,0,2.5-1.1,2.5-2.5v-1.6c0-1.4-1.1-2.5-2.5-2.5h-1.5
						c-1.4,0-2.5,1.1-2.5,2.5V423.7z"/>
				</g>
				<g id="pfTRbRAcu_00000140001075509888547040000000389393270947573891_">
					<path class="st1" d="M116,414.3c0,1.4,1.1,2.5,2.5,2.5h2.8c1.4,0,2.5-1.1,2.5-2.5v-2.6c0-1.4-1.1-2.5-2.5-2.5h-2.8
						c-1.4,0-2.5,1.1-2.5,2.5V414.3z"/>
				</g>
				<g id="p1CsdzUDfd_00000088816509316070753790000004609040963354717595_">
					<path class="st1" d="M95.3,411.6c0,1.4,1.1,2.5,2.5,2.5h3.9c1.4,0,2.5-1.1,2.5-2.5V408c0-1.4-1.1-2.5-2.5-2.5h-3.9
						c-1.4,0-2.5,1.1-2.5,2.5V411.6z"/>
				</g>
				<path id="p28ueTBB2_00000159443365819083453280000017581715680680087212_" class="st1" d="M301.1,413
					c-14.2,2.6-48-18.9-14.9-14.9c12.3,1.8,38.3,2,43.7,2.8C331.5,415.3,310.3,414.8,301.1,413z"/>
				<g id="pZ36YldAu_00000155853301040759063920000003504595504138276001_">
					<path class="st1" d="M155.3,409.2c0,0.9,0.6,1.5,1.5,1.5c0.9,0,1.5-0.6,1.5-1.5v-0.5c0-0.9-0.6-1.5-1.5-1.5
						c-0.9,0-1.5,0.6-1.5,1.5V409.2z"/>
				</g>
				<g id="p3lNHDktB_00000044175404019293383920000001266209579718182310_">
					<path class="st1" d="M113.9,397.3c0,0.9,0.7,1.6,1.6,1.6h0.1c0.9,0,1.6-0.7,1.6-1.6c0-0.9-0.7-1.6-1.6-1.6h0
						C114.6,395.7,113.9,396.4,113.9,397.3C113.9,397.3,113.9,396.4,113.9,397.3z"/>
				</g>
				<path id="p5xbr8Kml_00000179629808914538460720000005973177504920817838_" class="st1" d="M324.6,395.3
					c-9.6-2.3-27.4,0.7-36.1-3.7C272.9,376.8,385.8,379.6,324.6,395.3z"/>
				<g id="pM2CAbfWa_00000127039593998623031560000005521157234052135068_">
					<path class="st1" d="M91.7,391.9c0,1.4,1.1,2.5,2.5,2.5h0.7c1.4,0,2.5-1.1,2.5-2.5v-1.4c0-1.4-1.1-2.5-2.5-2.5h-0.7
						c-1.4,0-2.5,1.1-2.5,2.5V391.9z"/>
				</g>
				<path id="pE0g4V9dd_00000078041643426362504640000004293640264707281547_" class="st1" d="M313.4,377.1
					c-42.4-4.2,31.2-19.2,40.3-17.3c1.2,8.8-9.3,13.3-14.2,18.2C332.7,373.2,324.3,380,313.4,377.1z"/>
				<g id="pfpT4Whm5_00000002350618041446069050000008785064363572036278_">
					<path class="st1" d="M88.7,374.1c0,0.9,0.7,1.6,1.6,1.6h1.1c0.9,0,1.6-0.7,1.6-1.6c0-0.9-0.7-1.6-1.6-1.6h-1.1
						C89.5,372.4,88.7,373.1,88.7,374.1C88.7,374.1,88.7,373.1,88.7,374.1z"/>
				</g>
				<path id="piGG8l9EC_00000000926651319868937180000008282361379909743775_" class="st1" d="M325.4,358
					c-36-1.4,25.5-23.1,34.9-19.4C367.8,351.7,335,360.1,325.4,358z"/>
				<path id="p1FrCbeQPK_00000181787058857941807270000003254118227535420052_" class="st1" d="M328.1,338.3
					c-9.6-10.6,22.7-14.2,24.9-17.6C389.4,312.2,341.5,344.5,328.1,338.3z"/>
				<path id="p1Blgp3wxQ_00000157285222055082746000000011317669554162360503_" class="st1" d="M335.9,319.7
					c-6-15.1,19.3-14.1,25.5-20.7C384.1,295.5,343.1,326.4,335.9,319.7z"/>
				<path id="pvY5tuQz2_00000123434291094477608980000003497097467935497617_" class="st1" d="M343.7,298.9
					c-14.1-12.5,17.8-17.4,21.9-23.8C375.4,283,352.6,301.4,343.7,298.9z"/>
				<path id="pkS7K9h40_00000183214373217654583310000001133105265653020326_" class="st1" d="M347.5,276.6
					c-16.8-0.1,15-25,17.1-16.9c2.1,6.6-5.9,6.4-7.9,12.5C353.7,279,353.3,276.6,347.5,276.6z"/>
				<path id="pGnrbGMtq_00000088852629566266347930000016062741212450744507_" class="st1" d="M344.3,253.9
					c-6.5-5,11.5-20.4,17.1-15.8C362.2,246,352.5,257.2,344.3,253.9z"/>
				<path id="p1BHBw7pcS_00000160898004498935925440000003308906772669448341_" class="st1" d="M341.4,233c-4.9-6,6-19.9,12.9-15.3
					C359.2,222.7,346.3,236.4,341.4,233z"/>
				<g id="pBLb7A49h_00000160900206572769816810000013375837019922853538_">
					<path class="st1" d="M333.5,208.9c0,1.4,1.1,2.5,2.5,2.5h7.7c1.4,0,2.5-1.1,2.5-2.5v-7.5c0-1.4-1.1-2.5-2.5-2.5H336
						c-1.4,0-2.5,1.1-2.5,2.5V208.9z"/>
				</g>
				<g id="p1DfIVgoba_00000050655375504329415450000005009841193596270270_">
					<path class="st1" d="M321.6,190.4c0,1.4,1.1,2.5,2.5,2.5h6.8c1.4,0,2.5-1.1,2.5-2.5V184c0-1.4-1.1-2.5-2.5-2.5h-6.8
						c-1.4,0-2.5,1.1-2.5,2.5V190.4z"/>
				</g>
				<g id="pgwxiPBYZ_00000072254489655748418020000001840707701626143661_">
					<path class="st1" d="M307.5,175c0,1.4,1.1,2.5,2.5,2.5h5.6c1.4,0,2.5-1.1,2.5-2.5v-4.4c0-1.4-1.1-2.5-2.5-2.5H310
						c-1.4,0-2.5,1.1-2.5,2.5V175z"/>
				</g>
				<g id="pD9xduLDC_00000028289455524705153930000009757589729354468249_">
					<path class="st1" d="M184.9,173.6c0,1.1,0.9,2,2,2c1.1,0,2-0.9,2-2v-0.7c0-1.1-0.9-2-2-2c-1.1,0-2,0.9-2,2V173.6z"/>
				</g>
				<g id="p6On383Vn_00000090996500243026014130000008266319152556000423_">
					<path class="st1" d="M199.5,163.3c0,1.4,1.1,2.5,2.5,2.5h5c1.4,0,2.5-1.1,2.5-2.5v-4.8c0-1.4-1.1-2.5-2.5-2.5h-5
						c-1.4,0-2.5,1.1-2.5,2.5L199.5,163.3L199.5,163.3z"/>
				</g>
				<g id="pVYByLNuv_00000128454401291372782470000000337631671261266595_">
					<path class="st1" d="M289.5,162.9c0,1.4,1.1,2.5,2.5,2.5h4.2c1.4,0,2.5-1.1,2.5-2.5v-4.1c0-1.4-1.1-2.5-2.5-2.5h-4.2
						c-1.4,0-2.5,1.1-2.5,2.5V162.9z"/>
				</g>
				<g id="pHQTGWeLZ_00000057847205509623676310000003256780992860157106_">
					<path class="st1" d="M219.4,156.6c0,1.4,1.1,2.5,2.5,2.5h6c1.4,0,2.5-1.1,2.5-2.5v-5.8c0-1.4-1.1-2.5-2.5-2.5h-6
						c-1.4,0-2.5,1.1-2.5,2.5V156.6z"/>
				</g>
				<g id="pBiysdhd0_00000091732423496856831120000016401560106061570718_">
					<path class="st1" d="M241.6,154.5c0,1.4,1.1,2.5,2.5,2.5h7.1c1.4,0,2.5-1.1,2.5-2.5v-6.8c0-1.4-1.1-2.5-2.5-2.5H244
						c-1.4,0-2.5,1.1-2.5,2.5V154.5z"/>
				</g>
				<g id="pBiysdhd0_00000179621551954814576540000009330994983993039533_">
					<path class="st1" d="M265.8,155.7c0,1.4,1.1,2.5,2.5,2.5h7.1c1.4,0,2.5-1.1,2.5-2.5v-6.8c0-1.4-1.1-2.5-2.5-2.5h-7.1
						c-1.4,0-2.5,1.1-2.5,2.5V155.7z"/>
				</g>
			</g>
			<g>
				<g id="p17HiGKS6N_00000175323480381324707490000016934405264429264026_">
					<path class="st1" d="M305.6,14.6c0,1.4,1.1,2.5,2.5,2.5h2.8c1.4,0,2.5-1.1,2.5-2.5v-2.8c0-1.4-1.1-2.5-2.5-2.5H308
						c-1.4,0-2.5,1.1-2.5,2.5V14.6z"/>
				</g>
				<g id="pMa7wO5zI_00000050633569336196866390000011139708733851383440_">
					<path class="st1" d="M277.8,17.6c0,1.4,1.1,2.5,2.5,2.5h6c1.4,0,2.5-1.1,2.5-2.5v-3.6c0-1.4-1.1-2.5-2.5-2.5h-6
						c-1.4,0-2.5,1.1-2.5,2.5V17.6z"/>
				</g>
				<path id="p179fAChyF_00000068652982744265385150000017483417188025210801_" class="st1" d="M266.8,18c7,5,15.5,12.3,24.1,15.6
					c2.7,0,4.9,8.1,6.1,10.2c5.5-0.6,18,14.5,6.4,13.5c-9.9,0.1-3.7-14-12.8-13c-4.9-0.2-6.1-1.2-7.7-5.9c-1.2-3.7-2.1-4.2-6.6-4.1
					c-4.5,0.5-6.8-8-12.4-6.4C252.5,28.8,259,13.8,266.8,18z"/>
				<g id="pIIHWPwOd_00000013192164310327893660000011225032323710676376_">
					<path class="st1" d="M321,27c0,1.4,1.1,2.5,2.5,2.5h9.6c1.4,0,2.5-1.1,2.5-2.5v-6.8c0-1.4-1.1-2.5-2.5-2.5h-9.6
						c-1.4,0-2.5,1.1-2.5,2.5V27z"/>
				</g>
				<g id="pVjyPykMF_00000068668903195841885870000010173957940668372104_">
					<path class="st1" d="M292.3,26.6c0,1.4,1.1,2.5,2.5,2.5h6.9c1.4,0,2.5-1.1,2.5-2.5v-6.8c0-1.4-1.1-2.5-2.5-2.5h-6.9
						c-1.4,0-2.5,1.1-2.5,2.5V26.6z"/>
				</g>
				<g id="p32GVXz0V_00000152249458417383753890000004481656910300802212_">
					<path class="st1" d="M342.6,23.3c0,1.4,1.1,2.5,2.5,2.5h6.3c1.4,0,2.5-1.1,2.5-2.5v-2.2c0-1.4-1.1-2.5-2.5-2.5h-6.3
						c-1.4,0-2.5,1.1-2.5,2.5V23.3z"/>
				</g>
				<path id="p1HL4g7683_00000029767734943943466280000012525376260053216408_" class="st1" d="M249.7,28.7
					c14.5,5.4,32.3,19.4,40.3,32.5c-6.4,8-21.2-13.8-30.3-15.3C250.5,41.3,222.4,27.2,249.7,28.7z"/>
				<g id="p2P72DdnD_00000044876323631728419110000014551684837918298011_">
					<path class="st1" d="M304.6,38.1c0,1.4,1.1,2.5,2.5,2.5h7.2c1.4,0,2.5-1.1,2.5-2.5v-7c0-1.4-1.1-2.5-2.5-2.5H307
						c-1.4,0-2.5,1.1-2.5,2.5V38.1z"/>
				</g>
				<g id="ptJFnBqQu_00000091003615028631645360000006298913420520143253_">
					<path class="st1" d="M350.1,38.1c0,1.4,1.1,2.5,2.5,2.5h6.9c1.4,0,2.5-1.1,2.5-2.5v-2.7c0-1.4-1.1-2.5-2.5-2.5h-6.9
						c-1.4,0-2.5,1.1-2.5,2.5V38.1z"/>
				</g>
				<g id="pFNNfQSsF_00000030479886895251638890000016737232687548485024_">
					<path class="st1" d="M367.9,36.6c0,1.4,1.1,2.5,2.5,2.5h2.6c1.4,0,2.5-1.1,2.5-2.5v-0.6c0-1.4-1.1-2.5-2.5-2.5h-2.6
						c-1.4,0-2.5,1.1-2.5,2.5V36.6z"/>
				</g>
				<g id="pktrvynQf_00000060715626801105316670000012136812357832093331_">
					<path class="st1" d="M331.8,42.1c0,1.4,1.1,2.5,2.5,2.5h7.6c1.4,0,2.5-1.1,2.5-2.5v-4.7c0-1.4-1.1-2.5-2.5-2.5h-7.6
						c-1.4,0-2.5,1.1-2.5,2.5V42.1z"/>
				</g>
				<path id="p9dEc2HI6_00000158712040703334278090000016935040240250018962_" class="st1" d="M236.7,40.9c8.6,4.9,13.3,8.8,21,12.4
					c2.2,2.7,0.9,6.9,5.2,6c12.3-0.5,8.7,19.8-2.2,6.8C252.1,59.8,195.9,39.4,236.7,40.9z"/>
				<g id="pAwrpY26W_00000181047232559947067080000002245692689290211457_">
					<path class="st1" d="M315.9,48.6c0,1.4,1.1,2.5,2.5,2.5h4.8c1.4,0,2.5-1.1,2.5-2.5v-4.1c0-1.4-1.1-2.5-2.5-2.5h-4.8
						c-1.4,0-2.5,1.1-2.5,2.5V48.6z"/>
				</g>
				<g id="p03dmIT0H_00000105414753856277738010000015426525474228873647_">
					<path class="st1" d="M361,54.6c0,1.4,1.1,2.5,2.5,2.5h4.7c1.4,0,2.5-1.1,2.5-2.5v-4.4c0-1.4-1.1-2.5-2.5-2.5h-4.7
						c-1.4,0-2.5,1.1-2.5,2.5V54.6z"/>
				</g>
				<g id="pmDFLb47o_00000081634728235766110270000010690519251847324818_">
					<path class="st1" d="M381.8,55.8c0,1.4,1.1,2.5,2.5,2.5h4.4c1.4,0,2.5-1.1,2.5-2.5v-4.3c0-1.4-1.1-2.5-2.5-2.5h-4.4
						c-1.4,0-2.5,1.1-2.5,2.5V55.8z"/>
				</g>
				<g id="p14KuQCSMo_00000183245349799651694340000010332009180978326463_">
					<path class="st1" d="M342.5,57.1c0,1.4,1.1,2.5,2.5,2.5h4.7c1.4,0,2.5-1.1,2.5-2.5v-2.8c0-1.4-1.1-2.5-2.5-2.5H345
						c-1.4,0-2.5,1.1-2.5,2.5V57.1z"/>
				</g>
				<path id="phZSTSaeE_00000133513723409814774610000016403972428201341349_" class="st1" d="M222.2,54.4
					c13.4,6.8,33.9,13,39.9,28.1c-5.9,5.4-23.7-11.9-33.9-12C208.8,68.7,193,51,222.2,54.4z"/>
				<g id="p11eADbchl_00000138545583721612071760000016411501810663721134_">
					<path class="st1" d="M325.2,64.1c0,1.4,1.1,2.5,2.5,2.5h4.8c1.4,0,2.5-1.1,2.5-2.5v-4.8c0-1.4-1.1-2.5-2.5-2.5h-4.8
						c-1.4,0-2.5,1.1-2.5,2.5V64.1z"/>
				</g>
				<g id="ph4IDrhSU_00000067957788459951720210000016528959565031240607_">
					<path class="st1" d="M309.2,68c0,1.4,1.1,2.5,2.5,2.5h2.8c1.4,0,2.5-1.1,2.5-2.5v-3.2c0-1.4-1.1-2.5-2.5-2.5h-2.8
						c-1.4,0-2.5,1.1-2.5,2.5V68z"/>
				</g>
				<g id="pvU5pfwmd_00000170266967140116916980000012765143809436857231_">
					<path class="st1" d="M370.7,72.2c0,1.4,1.1,2.5,2.5,2.5h5.2c1.4,0,2.5-1.1,2.5-2.5v-5.4c0-1.4-1.1-2.5-2.5-2.5h-5.2
						c-1.4,0-2.5,1.1-2.5,2.5V72.2z"/>
				</g>
				<g id="p19wK0fX22_00000174559683011798577090000008589815150439400855_">
					<path class="st1" d="M392.4,75.5c0,1.4,1.1,2.5,2.5,2.5h3.7c1.4,0,2.5-1.1,2.5-2.5v-6.3c0-1.4-1.1-2.5-2.5-2.5h-3.7
						c-1.4,0-2.5,1.1-2.5,2.5V75.5z"/>
				</g>
				<g id="pmI1TfoV1_00000143596210449989426590000015125308080321048494_">
					<path class="st1" d="M352.5,73.5c0,1.4,1.1,2.5,2.5,2.5h2.9c1.4,0,2.5-1.1,2.5-2.5v-4.2c0-1.4-1.1-2.5-2.5-2.5h-2.9
						c-1.4,0-2.5,1.1-2.5,2.5V73.5z"/>
				</g>
				<g id="pItNO8qlR_00000131342294910666938850000005773240985835317648_">
					<path class="st1" d="M291.3,72.5c0,1.4,1.1,2.3,2.3,2.3c1.4,0,2.3-1.1,2.3-2.3v-2.8c0-1.4-1.1-2.3-2.3-2.3
						c-1.4,0-2.3,1.1-2.3,2.3V72.5z"/>
				</g>
				<path id="pWus32TMl_00000016062511653262712260000013448566475396372371_" class="st1" d="M207.7,69.5
					c4.2-1.7,56.2,21.6,29.8,21.7c-7.4-6-55.7-7.2-49-15.6C189,71.2,198.4,68.2,207.7,69.5z"/>
				<g id="pUpnmPzR_00000168083844922888982390000005653389590427409844_">
					<path class="st1" d="M273.9,76.2c0,1.4,1.1,2.5,2.5,2.5h2c1.4,0,2.5-1.1,2.5-2.5V74c0-1.4-1.1-2.5-2.5-2.5h-2
						c-1.4,0-2.5,1.1-2.5,2.5V76.2z"/>
				</g>
				<g id="p8WrKPXSl_00000135653447115492507060000003456510021629408403_">
					<path class="st1" d="M336.2,79.3c0,1.4,1.1,2.5,2.5,2.5h1.5c1.4,0,2.5-1.1,2.5-2.5v-1.6c0-1.4-1.1-2.5-2.5-2.5h-1.5
						c-1.4,0-2.5,1.1-2.5,2.5V79.3z"/>
				</g>
				<g id="pfTRbRAcu_00000097494759845438942710000015577331307589619877_">
					<path class="st1" d="M379.1,89.6c0,1.4,1.1,2.5,2.5,2.5h2.8c1.4,0,2.5-1.1,2.5-2.5V87c0-1.4-1.1-2.5-2.5-2.5h-2.8
						c-1.4,0-2.5,1.1-2.5,2.5V89.6z"/>
				</g>
				<g id="p1CsdzUDfd_00000052809059147351325840000008395495447020780473_">
					<path class="st1" d="M398.6,93.3c0,1.4,1.1,2.5,2.5,2.5h3.9c1.4,0,2.5-1.1,2.5-2.5v-3.7c0-1.4-1.1-2.5-2.5-2.5h-3.9
						c-1.4,0-2.5,1.1-2.5,2.5V93.3z"/>
				</g>
				<path id="p28ueTBB2_00000139988471956638529760000002790705950543236281_" class="st1" d="M201.7,88.2
					c14.2-2.6,48,18.9,14.9,14.9c-12.3-1.8-38.3-2-43.7-2.8C171.4,85.9,192.5,86.5,201.7,88.2z"/>
				<g id="pZ36YldAu_00000156576236805820996570000008048561028460295304_">
					<path class="st1" d="M344.6,92.5c0,0.9,0.6,1.5,1.5,1.5c0.9,0,1.5-0.6,1.5-1.5v-0.5c0-0.9-0.6-1.5-1.5-1.5
						c-0.9,0-1.5,0.6-1.5,1.5V92.5z"/>
				</g>
				<g id="p3lNHDktB_00000169542853341026184040000002930064562837117842_">
					<path class="st1" d="M385.5,104c0,0.9,0.7,1.6,1.6,1.6h0.1c0.9,0,1.6-0.7,1.6-1.6c0-0.9-0.7-1.6-1.6-1.6h-0.1
						C386.2,102.4,385.5,103.1,385.5,104C385.5,104,385.5,103.1,385.5,104z"/>
				</g>
				<path id="p5xbr8Kml_00000182491873292177136360000005701879342454777991_" class="st1" d="M179.4,106.3
					c9.3,1.8,25.1-0.6,33.8,2.9c1,0.4,1.8,1,2.3,1.9c7.5,13.1-95.3,10.1-38.2-4.7C178,106.1,178.7,106.1,179.4,106.3z"/>
				<g id="pM2CAbfWa_00000005968428185065648790000008974742051224983688_">
					<path class="st1" d="M405.5,110.7c0,1.4,1.1,2.5,2.5,2.5h0.7c1.4,0,2.5-1.1,2.5-2.5v-1.4c0-1.4-1.1-2.5-2.5-2.5h-0.7
						c-1.4,0-2.5,1.1-2.5,2.5V110.7z"/>
				</g>
				<path id="pE0g4V9dd_00000178177848358568840080000014731706283029528494_" class="st1" d="M189.4,124.1
					c42.4,4.2-31.2,19.2-40.3,17.3c-0.7-4.9,2.3-8.5,5.9-11.5c3.9-3.3,8.9-5,14-4.9C174.7,125.1,181.3,122,189.4,124.1z"/>
				<g id="pfpT4Whm5_00000018196696179330931860000010571899300612393655_">
					<path class="st1" d="M409.7,127.2c0,0.9,0.7,1.6,1.6,1.6h1.1c0.9,0,1.6-0.7,1.6-1.6c0-0.9-0.7-1.6-1.6-1.6h-1.1
						C410.4,125.6,409.7,126.3,409.7,127.2C409.7,127.2,409.7,126.3,409.7,127.2z"/>
				</g>
				<path id="piGG8l9EC_00000145769795031822685860000001453771706356820124_" class="st1" d="M177.4,143.2
					c36,1.4-25.5,23.1-34.9,19.4C135,149.5,167.8,141.2,177.4,143.2z"/>
				<path id="p1FrCbeQPK_00000112606249759838516620000000811903316248347057_" class="st1" d="M174.7,162.9
					c9.6,10.6-22.7,14.2-24.9,17.6C113.5,189,161.3,156.8,174.7,162.9z"/>
				<path id="p1Blgp3wxQ_00000168798807082193376710000002833373730164864905_" class="st1" d="M167.1,181.6
					c6,15.1-19.3,14.1-25.5,20.7C118.7,205.7,159.8,174.9,167.1,181.6z"/>
				<path id="pvY5tuQz2_00000001626355725428473810000007579353054593938853_" class="st1" d="M159.2,202.3
					c14.1,12.5-17.8,17.4-22,23.8C127.5,218.3,150.2,199.9,159.2,202.3z"/>
				<path id="pkS7K9h40_00000005250874724445747300000001162213660765663421_" class="st1" d="M155.3,224.7
					c16.8,0.1-15,25-17.1,16.9c-2.1-6.6,5.9-6.4,7.9-12.5C149.1,222.2,149.5,224.7,155.3,224.7z"/>
				<path id="pGnrbGMtq_00000101814432021817218590000009508431337731873471_" class="st1" d="M158.5,247.4
					c6.5,5-11.5,20.4-17.1,15.8C140.8,255.2,150.4,244.1,158.5,247.4z"/>
				<path id="p1BHBw7pcS_00000037659013213913273060000013219738859544386176_" class="st1" d="M161.4,268.2c4.9,6-6,19.9-12.9,15.3
					C143.6,278.6,156.6,264.8,161.4,268.2z"/>
				<g id="pBLb7A49h_00000013162824139550303910000015098584215865674932_">
					<path class="st1" d="M156.6,299.8c0,1.4,1.1,2.5,2.5,2.5h7.7c1.4,0,2.5-1.1,2.5-2.5v-7.5c0-1.4-1.1-2.5-2.5-2.5h-7.7
						c-1.4,0-2.5,1.1-2.5,2.5V299.8z"/>
				</g>
				<g id="p1DfIVgoba_00000159470739510389226430000007881141448421685651_">
					<path class="st1" d="M169.6,317.4c0,1.4,1.1,2.5,2.5,2.5h6.8c1.4,0,2.5-1.1,2.5-2.5V311c0-1.4-1.1-2.5-2.5-2.5h-6.8
						c-1.4,0-2.5,1.1-2.5,2.5V317.4z"/>
				</g>
				<g id="pgwxiPBYZ_00000026128087818610543270000004267297384640822422_">
					<path class="st1" d="M184.7,330.6c0,1.4,1.1,2.5,2.5,2.5h5.6c1.4,0,2.5-1.1,2.5-2.5v-4.5c0-1.4-1.1-2.5-2.5-2.5h-5.6
						c-1.4,0-2.5,1.1-2.5,2.5V330.6z"/>
				</g>
				<g id="pD9xduLDC_00000106835901870463222920000016162449284081305731_">
					<path class="st1" d="M314,328.4c0,1.1,0.9,2,2,2c1.1,0,2-0.9,2-2v-0.7c0-1.1-0.9-2-2-2c-1.1,0-2,0.9-2,2V328.4z"/>
				</g>
				<g id="p6On383Vn_00000090254639234915055270000016294663660435194553_">
					<path class="st1" d="M293.4,342.8c0,1.4,1.1,2.5,2.5,2.5h5c1.4,0,2.5-1.1,2.5-2.5V338c0-1.4-1.1-2.5-2.5-2.5h-5
						c-1.4,0-2.5,1.1-2.5,2.5V342.8z"/>
				</g>
				<g id="pVYByLNuv_00000114767545827542608040000007479770800373679765_">
					<path class="st1" d="M204.3,340.4c0,2.5,2,4.5,4.5,4.5h0.1c2.5,0,4.5-2,4.5-4.5l0,0c0-2.5-2-4.5-4.5-4.5h-0.1
						C206.3,335.9,204.3,337.9,204.3,340.4L204.3,340.4z"/>
				</g>
				<g id="pHQTGWeLZ_00000053528721839096960560000003219937632517478538_">
					<path class="st1" d="M272.5,350.4c0,1.4,1.1,2.5,2.5,2.5h6c1.4,0,2.5-1.1,2.5-2.5v-5.8c0-1.4-1.1-2.5-2.5-2.5h-6
						c-1.4,0-2.5,1.1-2.5,2.5V350.4z"/>
				</g>
				<g id="pBiysdhd0_00000083777099598498306110000009103578293182017937_">
					<path class="st1" d="M249.2,353.6c0,1.4,1.1,2.5,2.5,2.5h7.1c1.4,0,2.5-1.1,2.5-2.5v-6.8c0-1.4-1.1-2.5-2.5-2.5h-7.1
						c-1.4,0-2.5,1.1-2.5,2.5V353.6z"/>
				</g>
				<g id="pBiysdhd0_00000069388283632636296460000000020356442073257130_">
					<path class="st1" d="M225,352.3c0,1.4,1.1,2.5,2.5,2.5h7.1c1.4,0,2.5-1.1,2.5-2.5v-2.1c0-1.6-3-0.6-4.8-4.9
						c-0.1-0.2-3,2.7-1.3-0.5l-3.6-1.7c-1.4,0-2.5,1.1-2.5,2.5V352.3z"/>
				</g>
			</g>
			<g>
				<g id="p17HiGKS6N_00000119830489462786147830000007788855970183327931_">
					<path class="st1" d="M9.5,193.7c0,1.4,1.1,2.5,2.5,2.5h2.8c1.4,0,2.5-1.1,2.5-2.5v-2.8c0-1.4-1.1-2.5-2.5-2.5H12
						c-1.4,0-2.5,1.1-2.5,2.5V193.7z"/>
				</g>
				<g id="pMa7wO5zI_00000140692802863478553380000006491724608368663225_">
					<path class="st1" d="M11.7,221.5c0,1.4,1.1,2.5,2.5,2.5h3.6c1.4,0,2.5-1.1,2.5-2.5v-6c0-1.4-1.1-2.5-2.5-2.5h-3.6
						c-1.4,0-2.5,1.1-2.5,2.5V221.5z"/>
				</g>
				<path id="p179fAChyF_00000006695045125383036980000016637702537233780650_" class="st1" d="M18.2,235.1c5-7,12.3-15.5,15.6-24.1
					c0-2.7,8.1-4.9,10.2-6.1c-0.6-5.5,14.5-18,13.5-6.4c0.1,9.9-14,3.7-13,12.8c-0.2,4.9-1.2,6.1-5.9,7.7c-3.7,1.2-4.2,2.1-4.1,6.6
					c0.5,4.5-8,6.8-6.4,12.4C29,249.3,14.1,242.7,18.2,235.1z"/>
				<g id="pIIHWPwOd_00000069389380685033147710000002854168156614124435_">
					<path class="st1" d="M18,178.4c0,1.4,1.1,2.5,2.5,2.5h6.8c1.4,0,2.5-1.1,2.5-2.5v-9.6c0-1.4-1.1-2.5-2.5-2.5h-6.8
						c-1.4,0-2.5,1.1-2.5,2.5V178.4z"/>
				</g>
				<g id="pVjyPykMF_00000029033533682813113730000010513299415849067701_">
					<path class="st1" d="M17.6,207c0,1.4,1.1,2.5,2.5,2.5h6.8c1.4,0,2.5-1.1,2.5-2.5v-6.9c0-1.4-1.1-2.5-2.5-2.5h-6.8
						c-1.4,0-2.5,1.1-2.5,2.5V207z"/>
				</g>
				<g id="p32GVXz0V_00000156580937693698739070000002266480555723207835_">
					<path class="st1" d="M18.7,156.6c0,1.4,1.1,2.5,2.5,2.5h2.2c1.4,0,2.5-1.1,2.5-2.5v-6.3c0-1.4-1.1-2.5-2.5-2.5h-2.2
						c-1.4,0-2.5,1.1-2.5,2.5V156.6z"/>
				</g>
				<path id="p1HL4g7683_00000034810308510841996760000006976429913495862913_" class="st1" d="M28.8,252
					c5.4-14.5,19.4-32.3,32.5-40.3c8,6.4-13.8,21.2-15.3,30.3C41.6,251.3,27.5,279.4,28.8,252z"/>
				<g id="p2P72DdnD_00000031926247267078916510000007489715332369599371_">
					<path class="st1" d="M28.9,194.7c0,1.4,1.1,2.5,2.5,2.5h7c1.4,0,2.5-1.1,2.5-2.5v-7.2c0-1.4-1.1-2.5-2.5-2.5h-7
						c-1.4,0-2.5,1.1-2.5,2.5V194.7z"/>
				</g>
				<g id="ptJFnBqQu_00000080167588870501364920000010561584112719668610_">
					<path class="st1" d="M33.1,149.3c0,1.4,1.1,2.5,2.5,2.5h2.7c1.4,0,2.5-1.1,2.5-2.5v-6.9c0-1.4-1.1-2.5-2.5-2.5h-2.7
						c-1.4,0-2.5,1.1-2.5,2.5V149.3z"/>
				</g>
				<g id="pFNNfQSsF_00000028286506617091326490000010082496383443535036_">
					<path class="st1" d="M33.7,131.3c0,1.4,1.1,2.5,2.5,2.5h0.6c1.4,0,2.5-1.1,2.5-2.5v-2.5c0-1.4-1.1-2.5-2.5-2.5h-0.6
						c-1.4,0-2.5,1.1-2.5,2.5V131.3z"/>
				</g>
				<g id="pktrvynQf_00000168808846702532502420000004309420828767400616_">
					<path class="st1" d="M35.2,167.4c0,1.4,1.1,2.5,2.5,2.5h4.7c1.4,0,2.5-1.1,2.5-2.5v-7.6c0-1.4-1.1-2.5-2.5-2.5h-4.7
						c-1.4,0-2.5,1.1-2.5,2.5V167.4z"/>
				</g>
				<path id="p9dEc2HI6_00000132801846648900241030000017079504765517428896_" class="st1" d="M41.1,265.2c4.9-8.6,8.8-13.3,12.4-21
					c2.7-2.2,6.9-0.9,6-5.2c-0.5-12.3,19.8-8.7,6.8,2.2C60,249.6,39.5,305.9,41.1,265.2z"/>
				<g id="pAwrpY26W_00000009558549444879739910000009448553894332564618_">
					<path class="st1" d="M42.3,183.4c0,1.4,1.1,2.5,2.5,2.5h4.1c1.4,0,2.5-1.1,2.5-2.5v-4.8c0-1.4-1.1-2.5-2.5-2.5h-4.1
						c-1.4,0-2.5,1.1-2.5,2.5V183.4z"/>
				</g>
				<g id="p03dmIT0H_00000164474052028922596190000009141760284263407004_">
					<path class="st1" d="M48,138.3c0,1.4,1.1,2.5,2.5,2.5h4.4c1.4,0,2.5-1.1,2.5-2.5v-4.7c0-1.4-1.1-2.5-2.5-2.5h-4.4
						c-1.4,0-2.5,1.1-2.5,2.5V138.3z"/>
				</g>
				<g id="pmDFLb47o_00000083773777219485734170000016078979591814790826_">
					<path class="st1" d="M49.3,117.6c0,1.4,1.1,2.5,2.5,2.5h4.3c1.4,0,2.5-1.1,2.5-2.5v-4.4c0-1.4-1.1-2.5-2.5-2.5h-4.3
						c-1.4,0-2.5,1.1-2.5,2.5V117.6z"/>
				</g>
				<g id="p14KuQCSMo_00000073700519071499589740000017218530659145462206_">
					<path class="st1" d="M52,156.8c0,1.4,1.1,2.5,2.5,2.5h2.8c1.4,0,2.5-1.1,2.5-2.5v-4.7c0-1.4-1.1-2.5-2.5-2.5h-2.8
						c-1.4,0-2.5,1.1-2.5,2.5V156.8z"/>
				</g>
				<path id="phZSTSaeE_00000152963691593025397570000002202321289897111467_" class="st1" d="M54.5,279.5
					c6.8-13.4,13-33.9,28.1-39.9c5.4,5.9-11.9,23.7-12,33.9C69,293,51.1,308.9,54.5,279.5z"/>
				<g id="p11eADbchl_00000031887496788777649560000013006877902303599020_">
					<path class="st1" d="M56.9,174.2c0,1.4,1.1,2.5,2.5,2.5h4.8c1.4,0,2.5-1.1,2.5-2.5v-4.8c0-1.4-1.1-2.5-2.5-2.5h-4.8
						c-1.4,0-2.5,1.1-2.5,2.5V174.2z"/>
				</g>
				<g id="ph4IDrhSU_00000179621863979462860570000005231228779561940386_">
					<path class="st1" d="M62.6,190.2c0,1.4,1.1,2.5,2.5,2.5h3.2c1.4,0,2.5-1.1,2.5-2.5v-2.8c0-1.4-1.1-2.5-2.5-2.5H65
						c-1.4,0-2.5,1.1-2.5,2.5V190.2z"/>
				</g>
				<g id="pvU5pfwmd_00000048471384334123896180000015263621081094620820_">
					<path class="st1" d="M64.4,128.6c0,1.4,1.1,2.5,2.5,2.5h5.4c1.4,0,2.5-1.1,2.5-2.5v-5.2c0-1.4-1.1-2.5-2.5-2.5h-5.4
						c-1.4,0-2.5,1.1-2.5,2.5V128.6z"/>
				</g>
				<g id="p19wK0fX22_00000176723894356481397700000004938197147376477826_">
					<path class="st1" d="M66.9,107c0,1.4,1.1,2.5,2.5,2.5h6.3c1.4,0,2.5-1.1,2.5-2.5v-3.7c0-1.4-1.1-2.5-2.5-2.5h-6.3
						c-1.4,0-2.5,1.1-2.5,2.5V107z"/>
				</g>
				<g id="pmI1TfoV1_00000116211543592843504520000008103688989950798252_">
					<path class="st1" d="M67.1,146.8c0,1.4,1.1,2.5,2.5,2.5h4.2c1.4,0,2.5-1.1,2.5-2.5v-2.9c0-1.4-1.1-2.5-2.5-2.5h-4.2
						c-1.4,0-2.5,1.1-2.5,2.5V146.8z"/>
				</g>
				<g id="pItNO8qlR_00000067917913775579725050000012441471215844223877_">
					<path class="st1" d="M67.6,208.1c0,1.4,1.1,2.3,2.3,2.3h2.8c1.4,0,2.3-1.1,2.3-2.3c0-1.2-1.1-2.3-2.3-2.3h-2.8
						C68.7,205.7,67.6,206.7,67.6,208.1C67.6,208.1,67.6,206.7,67.6,208.1z"/>
				</g>
				<path id="pWus32TMl_00000105414975104472638050000007744767379206804113_" class="st1" d="M69.7,294
					c-1.7-4.2,21.6-56.2,21.7-29.8c-6,7.4-7.2,55.7-15.6,49C71.4,312.8,68.3,303.4,69.7,294z"/>
				<g id="pUpnmPzR_00000152265464445964060000000016209189355040482732_">
					<path class="st1" d="M71.7,225.5c0,1.4,1.1,2.5,2.5,2.5h2.2c1.4,0,2.5-1.1,2.5-2.5v-2c0-1.4-1.1-2.5-2.5-2.5h-2.2
						c-1.4,0-2.5,1.1-2.5,2.5V225.5z"/>
				</g>
				<g id="p8WrKPXSl_00000080912303553832327750000018178292578945348795_">
					<path class="st1" d="M75.3,163c0,1.4,1.1,2.5,2.5,2.5h1.6c1.4,0,2.5-1.1,2.5-2.5v-1.5c0-1.4-1.1-2.5-2.5-2.5h-1.6
						c-1.4,0-2.5,1.1-2.5,2.5V163z"/>
				</g>
				<g id="pfTRbRAcu_00000151545038159804506300000008079232267473677990_">
					<path class="st1" d="M84.7,120.2c0,1.4,1.1,2.5,2.5,2.5h2.6c1.4,0,2.5-1.1,2.5-2.5v-2.8c0-1.4-1.1-2.5-2.5-2.5h-2.6
						c-1.4,0-2.5,1.1-2.5,2.5V120.2z"/>
				</g>
				<g id="p1CsdzUDfd_00000000922292475835159180000013300852917450309516_">
					<path class="st1" d="M87.2,100.8c0,1.4,1.1,2.5,2.5,2.5h3.7c1.4,0,2.5-1.1,2.5-2.5v-3.9c0-1.4-1.1-2.5-2.5-2.5h-3.7
						c-1.4,0-2.5,1.1-2.5,2.5V100.8z"/>
				</g>
				<path id="p28ueTBB2_00000037664152221291047870000013465286867057258890_" class="st1" d="M88.5,300
					c-2.6-14.2,18.9-48,14.9-14.9c-1.8,12.3-2,38.3-2.8,43.7C86.1,330.4,86.6,309.4,88.5,300z"/>
				<g id="pZ36YldAu_00000096056993215174609560000001796491594092040865_">
					<path class="st1" d="M90.8,155.7c0,0.9,0.6,1.5,1.5,1.5h0.5c0.9,0,1.5-0.6,1.5-1.5c0-0.9-0.6-1.5-1.5-1.5h-0.5
						C91.4,154.2,90.8,154.9,90.8,155.7C90.8,155.7,90.8,154.9,90.8,155.7z"/>
				</g>
				<g id="p3lNHDktB_00000060729389369032139490000016644165950486470021_">
					<path class="st1" d="M102.5,114.6c0,0.9,0.7,1.6,1.6,1.6s1.6-0.7,1.6-1.6v-0.1c0-0.9-0.7-1.6-1.6-1.6s-1.6,0.7-1.6,1.6V114.6z"
						/>
				</g>
				<path id="p5xbr8Kml_00000023250961041674101920000003427058157772397223_" class="st1" d="M106.4,322.4c1.8-9.3-0.6-25,2.9-33.8
					c0.4-1,1-1.8,1.9-2.3c13.2-7.5,10.2,95.3-4.8,38.2C106.2,323.9,106.2,323.1,106.4,322.4z"/>
				<g id="pM2CAbfWa_00000160872903047930025700000013818106414876184478_">
					<path class="st1" d="M107.1,93.9c0,1.4,1.1,2.5,2.5,2.5h1.4c1.4,0,2.5-1.1,2.5-2.5v-0.7c0-1.4-1.1-2.5-2.5-2.5h-1.4
						c-1.4,0-2.5,1.1-2.5,2.5V93.9z"/>
				</g>
				<path id="pE0g4V9dd_00000119118733997304561010000017886240851402500742_" class="st1" d="M124.2,312.4
					c4.2-42.4,19.2,31.2,17.3,40.3c-4.1,0.6-7.2-1.4-9.8-4.1c-4.7-4.8-7.3-11.2-7.3-17.9C124.3,324.5,122.2,320.5,124.2,312.4z"/>
				<g id="pfpT4Whm5_00000179640073434091223380000006063489424025401772_">
					<path class="st1" d="M125.7,90.5c0,0.9,0.7,1.6,1.6,1.6s1.6-0.7,1.6-1.6v-1.1c0-0.9-0.7-1.6-1.6-1.6s-1.6,0.7-1.6,1.6V90.5z"/>
				</g>
				<path id="piGG8l9EC_00000006671032198172629510000003100385408137403788_" class="st1" d="M143.5,324.5
					c1.4-36,23.1,25.5,19.4,34.9C149.6,366.7,141.3,334.1,143.5,324.5z"/>
				<path id="p1FrCbeQPK_00000094594608657900935970000002221166183453122969_" class="st1" d="M165.8,325.4
					c8.2-2.3,11.6,22.1,14.5,26.1c0.4,0.5,0.6,1.1,0.7,1.6c7.2,32.2-20.6-7.9-18.5-23.6C162.7,327.7,164,326,165.8,325.4z"/>
				<path id="p1Blgp3wxQ_00000125571193176538652510000006626376192613190573_" class="st1" d="M194.1,340.2c3,6,4.3,14.6,7.4,18.9
					c0.7,1,1.2,2.1,1.3,3.4c0.7,12.9-14.3-4-19.9-16.9C179.7,338.2,190.6,333,194.1,340.2z"/>
				<path id="pvY5tuQz2_00000098183341439909127170000016696350208803696537_" class="st1" d="M202.4,342.6
					c10.9-22.8,17.4,17.8,23.8,21.9C218.4,374.3,200,351.6,202.4,342.6z"/>
				<path id="pkS7K9h40_00000041983248724301734110000014219943677147582600_" class="st1" d="M224.9,346.5
					c0.1-16.8,25,15,16.9,17.1c-6.6,2.1-6.4-5.9-12.5-7.9C222.4,352.6,224.9,352.2,224.9,346.5z"/>
				<path id="pGnrbGMtq_00000126311518567749269160000001155001352318640259_" class="st1" d="M247.5,343.4
					c5-6.5,20.4,11.5,15.8,17.1C255.3,361.1,244.3,351.5,247.5,343.4z"/>
				<path id="p1BHBw7pcS_00000008119305725817944180000016490998976800463519_" class="st1" d="M268.5,340.3c6-4.9,19.9,6,15.3,12.9
					C278.7,358.2,265,345.2,268.5,340.3z"/>
				<g id="pBLb7A49h_00000109713393600903078030000001905027710766540989_">
					<path class="st1" d="M290.1,342.8c0,1.4,1.1,2.5,2.5,2.5h7.5c1.4,0,2.5-1.1,2.5-2.5V335c0-1.4-1.1-2.5-2.5-2.5h-7.5
						c-1.4,0-2.5,1.1-2.5,2.5V342.8z"/>
				</g>
				<g id="p1DfIVgoba_00000103250782589791980640000015437008966411754380_">
					<path class="st1" d="M308.6,329.8c0,1.4,1.1,2.5,2.5,2.5h6.4c1.4,0,2.5-1.1,2.5-2.5V323c0-1.4-1.1-2.5-2.5-2.5h-6.4
						c-1.4,0-2.5,1.1-2.5,2.5V329.8z"/>
				</g>
				<g id="pgwxiPBYZ_00000095314404596555233880000006460974777661832342_">
					<path class="st1" d="M319.8,310.7c0,1.3,1.1,2.4,2.4,2.4h4.4c1.3,0,2.4-1.1,2.4-2.4v-5.5c0-1.3-1.1-2.4-2.4-2.4h-4.4
						c-1.3,0-2.4,1.1-2.4,2.4V310.7z"/>
				</g>
				<g id="pD9xduLDC_00000112616531840881838290000009753779573359753108_">
					<path class="st1" d="M325.8,185.9c0,1.1,0.9,2,2,2h0.7c1.1,0,2-0.9,2-2s-0.9-2-2-2h-0.7C326.8,183.9,325.8,184.7,325.8,185.9
						C325.8,185.9,325.8,184.7,325.8,185.9z"/>
				</g>
				<g id="p6On383Vn_00000028315007728080822300000014029326977098009999_">
					<path class="st1" d="M335.8,206c0,1.4,1.1,2.5,2.5,2.5h4.8c1.4,0,2.5-1.1,2.5-2.5v-5c0-1.4-1.1-2.5-2.5-2.5h-4.8
						c-1.4,0-2.5,1.1-2.5,2.5V206z"/>
				</g>
				<g id="pVYByLNuv_00000056419201271702022840000008061224782947506842_">
					<path class="st1" d="M336.1,295.1c0,1.4,1.1,2.5,2.5,2.5h4.1c1.4,0,2.5-1.1,2.5-2.5V291c0-1.4-1.1-2.5-2.5-2.5h-4.1
						c-1.4,0-2.5,1.1-2.5,2.5V295.1z"/>
				</g>
				<g id="pHQTGWeLZ_00000014635095227645056510000000338694204075337917_">
					<path class="st1" d="M342.4,226.7c0,1.4,1.1,2.5,2.5,2.5h5.8c1.4,0,2.5-1.1,2.5-2.5v-6c0-1.4-1.1-2.5-2.5-2.5h-5.8
						c-1.4,0-2.5,1.1-2.5,2.5V226.7z"/>
				</g>
				<g id="pBiysdhd0_00000025417097453575094920000009772282882209613185_">
					<path class="st1" d="M344.5,250.2c0,1.4,1.1,2.5,2.5,2.5h6.8c1.4,0,2.5-1.1,2.5-2.5v-7.1c0-1.4-1.1-2.5-2.5-2.5h-6.8
						c-1.4,0-2.5,1.1-2.5,2.5V250.2z"/>
				</g>
				<g id="pBiysdhd0_00000113334196376391457170000017856285230884555662_">
					<path class="st1" d="M343.2,274.3c0,1.4,1.1,2.5,2.5,2.5h6.8c1.4,0,2.5-1.1,2.5-2.5v-7.1c0-1.4-1.1-2.5-2.5-2.5h-6.8
						c-1.4,0-2.5,1.1-2.5,2.5V274.3z"/>
				</g>
			</g>
			<g>
				<g id="p17HiGKS6N_00000101077410273348317750000000593672888472761503_">
					<path class="st1" d="M484.6,308.5c0,1.4,1.1,2.5,2.5,2.5h2.8c1.4,0,2.5-1.1,2.5-2.5v-2.8c0-1.4-1.1-2.5-2.5-2.5H487
						c-1.4,0-2.5,1.1-2.5,2.5V308.5z"/>
				</g>
				<g id="pMa7wO5zI_00000075147690759026579850000004343163204870910122_">
					<path class="st1" d="M481.6,283.8c0,1.4,1.1,2.5,2.5,2.5h3.6c1.4,0,2.5-1.1,2.5-2.5v-6c0-1.4-1.1-2.5-2.5-2.5h-3.6
						c-1.4,0-2.5,1.1-2.5,2.5V283.8z"/>
				</g>
				<path id="p179fAChyF_00000129200836438220950730000018131996713628620437_" class="st1" d="M483.6,264.3
					c-5,7-12.3,15.5-15.6,24.1c0,2.7-8.1,4.9-10.2,6.1c0.6,5.5-14.5,18-13.5,6.4c-0.1-9.9,14-3.7,13-12.8c0.2-4.9,1.2-6.1,5.9-7.7
					c3.7-1.2,4.2-2.1,4.1-6.6c-0.5-4.5,8-6.8,6.4-12.4C472.8,250.1,487.9,256.7,483.6,264.3z"/>
				<g id="pIIHWPwOd_00000104671077165850723700000002293377365642693509_">
					<path class="st1" d="M472.2,330.7c0,1.4,1.1,2.5,2.5,2.5h6.8c1.4,0,2.5-1.1,2.5-2.5v-9.6c0-1.4-1.1-2.5-2.5-2.5h-6.8
						c-1.4,0-2.5,1.1-2.5,2.5V330.7z"/>
				</g>
				<g id="pVjyPykMF_00000058577819916877049010000009830206075207895457_">
					<path class="st1" d="M472.5,299.3c0,1.4,1.1,2.5,2.5,2.5h6.8c1.4,0,2.5-1.1,2.5-2.5v-6.9c0-1.4-1.1-2.5-2.5-2.5H475
						c-1.4,0-2.5,1.1-2.5,2.5V299.3z"/>
				</g>
				<g id="p32GVXz0V_00000049217765441008762570000017996140136669427360_">
					<path class="st1" d="M475.8,349c0,1.4,1.1,2.5,2.5,2.5h2.2c1.4,0,2.5-1.1,2.5-2.5v-6.3c0-1.4-1.1-2.5-2.5-2.5h-2.2
						c-1.4,0-2.5,1.1-2.5,2.5V349z"/>
				</g>
				<path id="p1HL4g7683_00000098916146605193068070000006747949887037567138_" class="st1" d="M473,247.4
					c-5.4,14.5-19.4,32.3-32.5,40.3c-8-6.4,13.8-21.2,15.3-30.3C460.3,248.1,474.4,220,473,247.4z"/>
				<g id="p2P72DdnD_00000096743101553282499360000006291383274459358350_">
					<path class="st1" d="M461.1,312c0,1.4,1.1,2.5,2.5,2.5h7c1.4,0,2.5-1.1,2.5-2.5v-7.2c0-1.4-1.1-2.5-2.5-2.5h-7
						c-1.4,0-2.5,1.1-2.5,2.5V312z"/>
				</g>
				<g id="ptJFnBqQu_00000127014104726266417070000004449403394538276509_">
					<path class="st1" d="M461.1,357c0,1.4,1.1,2.5,2.5,2.5h2.7c1.4,0,2.5-1.1,2.5-2.5v-6.9c0-1.4-1.1-2.5-2.5-2.5h-2.7
						c-1.4,0-2.5,1.1-2.5,2.5V357z"/>
				</g>
				<g id="pFNNfQSsF_00000090260958991513852500000015736410532839890581_">
					<path class="st1" d="M462.7,370.5c0,1.4,1.1,2.5,2.5,2.5h0.6c1.4,0,2.5-1.1,2.5-2.5v-2.6c0-1.4-1.1-2.5-2.5-2.5h-0.6
						c-1.4,0-2.5,1.1-2.5,2.5V370.5z"/>
				</g>
				<g id="pktrvynQf_00000150821451893270429530000004379303091259536801_">
					<path class="st1" d="M457.1,339.6c0,1.4,1.1,2.5,2.5,2.5h4.7c1.4,0,2.5-1.1,2.5-2.5V332c0-1.4-1.1-2.5-2.5-2.5h-4.7
						c-1.4,0-2.5,1.1-2.5,2.5V339.6z"/>
				</g>
				<path id="p9dEc2HI6_00000030476578016379713610000006815935574383955902_" class="st1" d="M460.7,234.2
					c-4.9,8.6-8.8,13.3-12.4,21c-2.7,2.2-6.9,0.9-6,5.2c0.5,12.3-19.8,8.7-6.8-2.2C442,249.8,462.3,193.5,460.7,234.2z"/>
				<g id="pAwrpY26W_00000152232553381024083610000006145642036921021338_">
					<path class="st1" d="M450.6,320.8c0,1.4,1.1,2.5,2.5,2.5h4.1c1.4,0,2.5-1.1,2.5-2.5V316c0-1.4-1.1-2.5-2.5-2.5H453
						c-1.4,0-2.5,1.1-2.5,2.5V320.8z"/>
				</g>
				<g id="p03dmIT0H_00000177465986799535150910000008633627514905541019_">
					<path class="st1" d="M444.7,365.7c0,1.4,1.1,2.5,2.5,2.5h4.4c1.4,0,2.5-1.1,2.5-2.5v-4.7c0-1.4-1.1-2.5-2.5-2.5h-4.4
						c-1.4,0-2.5,1.1-2.5,2.5V365.7z"/>
				</g>
				<g id="pmDFLb47o_00000096033892709441170730000011346514221655284105_">
					<path class="st1" d="M443.3,386.4c0,1.4,1.1,2.5,2.5,2.5h4.3c1.4,0,2.5-1.1,2.5-2.5v-4.5c0-1.4-1.1-2.5-2.5-2.5h-4.3
						c-1.4,0-2.5,1.1-2.5,2.5V386.4z"/>
				</g>
				<g id="p14KuQCSMo_00000084506192204128507790000017431281752023687076_">
					<path class="st1" d="M442.1,347.3c0,1.4,1.1,2.5,2.5,2.5h2.8c1.4,0,2.5-1.1,2.5-2.5v-4.8c0-1.4-1.1-2.5-2.5-2.5h-2.8
						c-1.4,0-2.5,1.1-2.5,2.5V347.3z"/>
				</g>
				<path id="phZSTSaeE_00000029734901259892241840000006052577691109935268_" class="st1" d="M447.4,219.9
					c-6.8,13.4-13,33.9-28.1,39.9c-5.4-5.9,11.9-23.7,12-33.9C433,206.4,450.7,190.5,447.4,219.9z"/>
				<g id="p11eADbchl_00000065034412312178945620000002707974406425403805_">
					<path class="st1" d="M435.2,330c0,1.4,1.1,2.5,2.5,2.5h4.8c1.4,0,2.5-1.1,2.5-2.5v-4.8c0-1.4-1.1-2.5-2.5-2.5h-4.8
						c-1.4,0-2.5,1.1-2.5,2.5V330z"/>
				</g>
				<g id="ph4IDrhSU_00000044161949759651465410000001272887567141858233_">
					<path class="st1" d="M431.3,312.1c0,1.4,1.1,2.5,2.5,2.5h3.2c1.4,0,2.5-1.1,2.5-2.5v-2.8c0-1.4-1.1-2.5-2.5-2.5h-3.2
						c-1.4,0-2.5,1.1-2.5,2.5V312.1z"/>
				</g>
				<g id="pvU5pfwmd_00000172427398894920981710000004895891484633485968_">
					<path class="st1" d="M427.1,375.9c0,1.4,1.1,2.5,2.5,2.5h5.4c1.4,0,2.5-1.1,2.5-2.5v-5.2c0-1.4-1.1-2.5-2.5-2.5h-5.4
						c-1.4,0-2.5,1.1-2.5,2.5V375.9z"/>
				</g>
				<g id="p19wK0fX22_00000163756181833607877160000002740412795764869542_">
					<path class="st1" d="M423.7,396.1c0,1.4,1.1,2.5,2.5,2.5h6.3c1.4,0,2.5-1.1,2.5-2.5v-3.7c0-1.4-1.1-2.5-2.5-2.5h-6.3
						c-1.4,0-2.5,1.1-2.5,2.5V396.1z"/>
				</g>
				<g id="pmI1TfoV1_00000148632330845990017950000011263193171307419050_">
					<path class="st1" d="M425.8,355.5c0,1.4,1.1,2.5,2.5,2.5h4.2c1.4,0,2.5-1.1,2.5-2.5v-2.9c0-1.4-1.1-2.5-2.5-2.5h-4.2
						c-1.4,0-2.5,1.1-2.5,2.5V355.5z"/>
				</g>
				<g id="pItNO8qlR_00000029008556048873924870000008170793919612914820_">
					<path class="st1" d="M426.7,291.3c0,1.4,1.1,2.3,2.3,2.3h2.8c1.4,0,2.3-1.1,2.3-2.3c0-1.2-1.1-2.3-2.3-2.3h-2.8
						C427.8,289,426.7,290,426.7,291.3C426.7,291.3,426.7,290,426.7,291.3z"/>
				</g>
				<path id="pWus32TMl_00000091735499905471652270000003938117559577729723_" class="st1" d="M432.1,205.4
					c1.7,4.2-21.6,56.2-21.7,29.8c6-7.4,7.2-55.7,15.6-49C430.5,186.6,433.5,196,432.1,205.4z"/>
				<g id="pUpnmPzR_00000080165793443108259370000012645679024398336405_">
					<path class="st1" d="M423.1,275.9c0,1.4,1.1,2.5,2.5,2.5h2.2c1.4,0,2.5-1.1,2.5-2.5v-2c0-1.4-1.1-2.5-2.5-2.5h-2.2
						c-1.4,0-2.5,1.1-2.5,2.5V275.9z"/>
				</g>
				<g id="p8WrKPXSl_00000022560879929146725350000006119076280871813809_">
					<path class="st1" d="M420,337.9c0,1.4,1.1,2.5,2.5,2.5h1.6c1.4,0,2.5-1.1,2.5-2.5v-1.5c0-1.4-1.1-2.5-2.5-2.5h-1.6
						c-1.4,0-2.5,1.1-2.5,2.5V337.9z"/>
				</g>
				<g id="pfTRbRAcu_00000037666414553090059520000000879557645072348568_">
					<path class="st1" d="M409.7,382.1c0,1.4,1.1,2.5,2.5,2.5h2.6c1.4,0,2.5-1.1,2.5-2.5v-2.8c0-1.4-1.1-2.5-2.5-2.5h-2.6
						c-1.4,0-2.5,1.1-2.5,2.5V382.1z"/>
				</g>
				<g id="p1CsdzUDfd_00000021082319184413088420000001024135754900831134_">
					<path class="st1" d="M406,402.6c0,1.4,1.1,2.5,2.5,2.5h3.7c1.4,0,2.5-1.1,2.5-2.5v-3.9c0-1.4-1.1-2.5-2.5-2.5h-3.7
						c-1.4,0-2.5,1.1-2.5,2.5V402.6z"/>
				</g>
				<path id="p28ueTBB2_00000043419810614339609390000005738175320439758724_" class="st1" d="M413.4,199.4
					c2.6,14.2-18.9,48-14.9,14.9c1.8-12.3,2-38.3,2.8-43.7C415.8,169,415.2,190,413.4,199.4z"/>
				<g id="pZ36YldAu_00000131327278755884061070000013292057066184717453_">
					<path class="st1" d="M407.7,343.6c0,0.9,0.6,1.5,1.5,1.5h0.5c0.9,0,1.5-0.6,1.5-1.5c0-0.9-0.6-1.5-1.5-1.5h-0.5
						C408.3,342.3,407.7,342.9,407.7,343.6C407.7,343.6,407.7,342.9,407.7,343.6z"/>
				</g>
				<g id="p3lNHDktB_00000031200639770886315900000006395837657248208814_">
					<path class="st1" d="M396.2,384.9c0,0.9,0.7,1.6,1.6,1.6c0.9,0,1.6-0.7,1.6-1.6v-0.1c0-0.9-0.7-1.6-1.6-1.6
						c-0.9,0-1.6,0.7-1.6,1.6V384.9z"/>
				</g>
				<path id="p5xbr8Kml_00000108278416216045070390000001411877798152141472_" class="st1" d="M395.7,175.9
					c-2.3,9.6,0.7,27.4-3.7,36.1C377.1,227.5,380.1,114.6,395.7,175.9z"/>
				<g id="pM2CAbfWa_00000001644151098145150790000000122564221097253508_">
					<path class="st1" d="M388.4,406.4c0,1.4,1.1,2.5,2.5,2.5h1.4c1.4,0,2.5-1.1,2.5-2.5v-0.7c0-1.4-1.1-2.5-2.5-2.5h-1.4
						c-1.4,0-2.5,1.1-2.5,2.5V406.4z"/>
				</g>
				<path id="pE0g4V9dd_00000112622503657639327620000014192036667552010686_" class="st1" d="M377.6,187
					c-4.2,42.4-19.2-31.2-17.3-40.3c8.8-1.2,13.3,9.3,18.2,14.2C373.7,167.8,380.4,176,377.6,187z"/>
				<g id="pfpT4Whm5_00000068665870293370763070000001005067373233300141_">
					<path class="st1" d="M372.8,410.1c0,0.9,0.7,1.6,1.6,1.6s1.6-0.7,1.6-1.6v-1.1c0-0.9-0.7-1.6-1.6-1.6c-0.9,0-1.6,0.7-1.6,1.6
						V410.1z"/>
				</g>
				<path id="piGG8l9EC_00000137118387767173971100000005107114232875741356_" class="st1" d="M358.3,174.9
					c-1.4,36-23.1-25.5-19.4-34.9C352.2,132.7,360.6,165.4,358.3,174.9z"/>
				<path id="p1FrCbeQPK_00000034798372978481053110000018378403236245653393_" class="st1" d="M338.8,172.3
					c-10.6,9.6-14.2-22.7-17.6-24.9C312.5,111.1,345,158.8,338.8,172.3z"/>
				<path id="p1Blgp3wxQ_00000160909155392295629260000016187681716321967752_" class="st1" d="M320,164.6
					c-15.1,6-14.1-19.3-20.7-25.5C296,116.4,326.8,157.4,320,164.6z"/>
				<path id="pvY5tuQz2_00000026881501593301436990000015024235882444280738_" class="st1" d="M299.4,156.8
					c-12.5,14.1-17.4-17.8-23.8-21.9C283.4,125.1,301.9,147.8,299.4,156.8z"/>
				<path id="pkS7K9h40_00000134242896183692931510000009559504014534875789_" class="st1" d="M277.1,152.8
					c-0.1,16.8-25-15-16.9-17.1c6.6-2.1,6.4,5.9,12.5,7.9C279.4,146.8,276.9,147.2,277.1,152.8z"/>
				<path id="pGnrbGMtq_00000091727296316671449860000004964888263734458777_" class="st1" d="M254.4,156
					c-5,6.5-20.4-11.5-15.8-17.1C246.5,138.3,257.7,147.9,254.4,156z"/>
				<path id="p1BHBw7pcS_00000156570408673694191650000003777390856438437811_" class="st1" d="M233.4,159.1
					c-6,4.9-19.9-6-15.3-12.9C223.2,141.2,236.8,154.2,233.4,159.1z"/>
				<g id="pBLb7A49h_00000168837079393660271000000014185218815155552671_">
					<path class="st1" d="M199.5,164.5c0,1.4,1.1,2.5,2.5,2.5h7.5c1.4,0,2.5-1.1,2.5-2.5v-7.7c0-1.4-1.1-2.5-2.5-2.5h-7.5
						c-1.4,0-2.5,1.1-2.5,2.5L199.5,164.5L199.5,164.5z"/>
				</g>
				<g id="p1DfIVgoba_00000044165237365089043500000010875593482716172983_">
					<path class="st1" d="M181.9,176.4c0,1.4,1.1,2.5,2.5,2.5h6.4c1.4,0,2.5-1.1,2.5-2.5v-6.8c0-1.4-1.1-2.5-2.5-2.5h-6.4
						c-1.4,0-2.5,1.1-2.5,2.5V176.4z"/>
				</g>
				<g id="pgwxiPBYZ_00000014625692161991770000000001220019766675428242_">
					<path class="st1" d="M168.5,190.5c0,1.4,1.1,2.5,2.5,2.5h4.5c1.4,0,2.5-1.1,2.5-2.5v-5.6c0-1.4-1.1-2.5-2.5-2.5H171
						c-1.4,0-2.5,1.1-2.5,2.5V190.5z"/>
				</g>
				<g id="pD9xduLDC_00000156583464093369273600000015554227182903476142_">
					<path class="st1" d="M171.2,313.5c0,1.1,0.9,2,2,2h0.7c1.1,0,2-0.9,2-2c0-1.1-0.9-2-2-2h-0.7
						C172.2,311.6,171.2,312.4,171.2,313.5C171.2,313.5,171.2,312.4,171.2,313.5z"/>
				</g>
				<g id="p6On383Vn_00000166663869233223150290000017431090640691175331_">
					<path class="st1" d="M156.4,298.6c0,1.4,1.1,2.5,2.5,2.5h4.8c1.4,0,2.5-1.1,2.5-2.5v-5.2c0-1.4-1.1-2.5-2.5-2.5h-4.8
						c-1.4,0-2.5,1.1-2.5,2.5V298.6z"/>
				</g>
				<g id="pVYByLNuv_00000148632484491601222410000001303171193541211569_">
					<path class="st1" d="M156.9,208.4c0,1.4,1.1,2.5,2.5,2.5h4.1c1.4,0,2.5-1.1,2.5-2.5v-4.2c0-1.4-1.1-2.5-2.5-2.5h-4.1
						c-1.4,0-2.5,1.1-2.5,2.5V208.4z"/>
				</g>
				<g id="pHQTGWeLZ_00000057140653101797977730000003184425543936077486_">
					<path class="st1" d="M148.9,278.6c0,1.4,1.1,2.5,2.5,2.5h5.8c1.4,0,2.5-1.1,2.5-2.5v-6c0-1.4-1.1-2.5-2.5-2.5h-5.8
						c-1.4,0-2.5,1.1-2.5,2.5V278.6z"/>
				</g>
				<g id="pBiysdhd0_00000155829440639307845910000002220651601854575548_">
					<path class="st1" d="M145.7,256.3c0,1.4,1.1,2.5,2.5,2.5h6.8c1.4,0,2.5-1.1,2.5-2.5v-7.1c0-1.4-1.1-2.5-2.5-2.5h-6.8
						c-1.4,0-2.5,1.1-2.5,2.5V256.3z"/>
				</g>
				<g id="pBiysdhd0_00000114783427424905309680000007130598605406644392_">
					<path class="st1" d="M146.8,232.3c0,1.4,1.1,2.5,2.5,2.5h6.8c1.4,0,2.5-1.1,2.5-2.5v-7.1c0-1.4-1.1-2.5-2.5-2.5h-6.8
						c-1.4,0-2.5,1.1-2.5,2.5V232.3z"/>
				</g>
			</g>
		</g>
	</g>
</g>
</svg>
