<svg width="370" height="243.67257999999998" tabindex="0" xmlns="http://www.w3.org/2000/svg" xmlns:xlink="http://www.w3.org/1999/xlink"><g transform="translate(40,0)"><g transform="translate(-19.307550570520306,227.26893659855654) scale(0.004946991996975589)"><path fill="rgb(191,220,93)" fill-opacity="1" stroke-opacity="1" vector-effect="non-scaling-stroke" stroke-width="1.5" stroke="rgb(191,220,93)" d="M34841.206,-3561.988L34587.305,-3698.155L34406.876,-3881.73L34270.504,-4101.983L34143.72,-4343.044L33992.586,-4586.199L33788.859,-4812.73L33513.859,-5006.777L33160.458,-5157.668L32732.986,-5261.302L32245.22,-5320.349L31716.984,-5343.279L31170.101,-5342.462L30624.502,-5331.746L30095.189,-5324.011L29590.547,-5329.159L29112.17,-5352.896L28656.054,-5396.471L28214.749,-5457.313L27779.917,-5530.359L27344.68,-5609.699L26905.29,-5690.165L26461.814,-5768.512L26017.778,-5843.979L25578.981,-5918.168L25151.806,-5994.343L24741.509,-6076.384L24350.874,-6167.672L23979.545,-6270.194L23624.162,-6384.075L23279.206,-6507.606L22938.327,-6637.74L22595.805,-6770.887L22247.789,-6903.789L21893.034,-7034.262L21532.98,-7161.603L21171.189,-7286.605L20812.304,-7411.183L20460.798,-7537.746L20119.831,-7668.481L19790.477,-7804.743L19471.491,-7946.716L19159.662,-8093.401L18850.635,-8242.93L18539.99,-8393.111L18224.316,-8542.032L17902.005,-8688.582L17573.609,-8832.729L17241.656,-8975.507L16910.011,-9118.709L16582.934,-9264.392L16264.065,-9414.316L15955.598,-9569.482L15657.811,-9729.89L15369.072,-9894.575L15086.305,-10061.914L14805.777,-10230.097L14524.028,-10397.663L14238.695,-10563.908L13949.059,-10729.092L13656.161,-10894.36L13362.495,-11061.401L13071.34,-11231.951L12785.915,-11407.263L12508.557,-11587.693L12240.122,-11772.538L11979.763,-11960.166L11725.123,-12148.413L11472.912,-12335.168L11219.711,-12518.967L10962.828,-12699.458L10700.991,-12877.587L10434.706,-13055.45L10166.212,-13235.831L9899.018,-13421.526L9637.134,-13614.628L9384.169,-13815.957L9142.505,-14024.783L8912.727,-14238.942L8693.449,-14455.325L8481.576,-14670.631L8272.954,-14882.215L8063.261,-15088.801L7848.954,-15290.878L7628.069,-15490.661L7400.684,-15691.599L7168.96,-15897.534L6936.734,-16111.709L6708.747,-16335.87L6489.659,-16569.704L6283.064,-16810.781L6090.693,-17055.051L5911.989,-17297.823L5744.142,-17535.007L5582.6,-17764.339L5421.976,-17986.273L5257.203,-18204.286L5084.725,-18424.454L4903.541,-18654.314L4715.896,-18901.203L4527.501,-19170.369L4347.232,-19463.252L4186.333,-19776.304L4057.233,-20100.642L3972.12,-20422.652L3941.497,-20725.513L3972.884,-20991.382L4069.859,-21203.888L4231.568,-21350.473L4452.754,-21424.186L4724.32,-21424.599L5034.333,-21357.692L5369.361,-21234.773L5715.948,-21070.626L6062.045,-20881.253L6398.214,-20681.629L6718.443,-20483.837L7020.473,-20295.894L7305.615,-20121.393L7578.079,-19959.946L7843.954,-19808.254L8109.988,-19661.512L8382.372,-19514.857L8665.721,-19364.552L8962.407,-19208.712L9272.351,-19047.49L9593.273,-18882.766L9921.352,-18717.474L10252.142,-18554.777L10581.577,-18397.31L10906.842,-18246.642L11226.972,-18103.081L11543.042,-17965.806L11857.928,-17833.267L12175.699,-17703.715L12500.769,-17575.721L12836.99,-17448.551L13186.88,-17322.312L13551.141,-17197.868L13928.586,-17076.561L14316.459,-16959.832L14711.107,-16848.856L15108.839,-16744.286L15506.793,-16646.167L15903.626,-16554.027L16299.875,-16467.115L16697.925,-16384.709L17101.569,-16306.396L17515.287,-16232.263L17943.365,-16162.935L18389.074,-16099.464L18854.055,-16043.099L19338.044,-15995.01L19838.984,-15956.031L20353.485,-15926.508L20877.517,-15906.275L21407.18,-15894.77L21939.378,-15891.257L22472.256,-15895.095L23005.313,-15905.974L23539.189,-15924.064L24075.189,-15950.031L24614.686,-15984.931L25158.536,-16029.99L25706.673,-16086.345L26257.967,-16154.806L26810.388,-16235.694L27361.434,-16328.804L27908.709,-16433.494L28450.521,-16548.875L28986.342,-16674.062L29517.018,-16808.421L30044.667,-16951.752L30572.275,-17104.387L31103.078,-17267.163L31639.847,-17441.31L32184.238,-17628.271L32736.322,-17829.493L33294.407,-18046.251L33855.156,-18279.511L34413.974,-18529.855L34965.566,-18797.457L35504.543,-19082.089L36025.952,-19383.134L36525.638,-19699.592L37000.383,-20030.073L37447.854,-20372.787L37866.388,-20725.566L38254.742,-21085.921L38611.859,-21451.18L38936.766,-21818.682L39228.594,-22186.024L39486.729,-22551.306L39711.04,-22913.327L39902.081,-23271.685L40061.212,-23626.734L40190.58,-23979.409L40292.948,-24330.933L40371.405,-24682.472L40429.047,-25034.82L40468.703,-25388.187L40492.806,-25742.147L40503.448,-26095.77L40502.606,-26447.916L40492.497,-26797.613L40475.931,-27144.427L40456.548,-27488.723L40438.825,-27831.73L40427.794,-28175.372L40428.487,-28521.889L40445.194,-28873.318L40480.706,-29230.961L40535.723,-29594.974L40608.619,-29964.188L40695.682,-30336.248L40791.833,-30708.047L40891.751,-31076.39L40991.172,-31438.741L41088.099,-31793.877L41183.62,-32142.277L41282.094,-32486.132L41390.575,-32828.935L41517.508,-33174.718L41670.892,-33527.086L41856.247,-33888.263L42074.802,-34258.385L42322.326,-34635.233L42588.912,-35014.5L42859.865,-35390.585L43117.632,-35757.777L43344.462,-36111.565L43525.341,-36449.809L43650.624,-36773.449L43717.829,-37086.577L43732.169,-37395.765L43705.629,-37708.746L43654.695,-38032.679L43597.085,-38372.335L43548.096,-38728.606L43517.25,-39097.678L43505.951,-39471.128L43506.667,-39836.985L43503.905,-40181.645L43476.907,-40492.317L43403.653,-40759.539L43265.488,-40979.306L43051.547,-41154.334L42762.124,-41294.178L42410.322,-41414.107L42021.574,-41532.861L41631.026,-41669.64L41279.127,-41840.826L41006.114,-42057.01L40846.284,-42320.832L40822.994,-42626.038L40945.213,-42957.93L41206.2,-43295.161L41584.517,-43612.575L42047.196,-43884.663L42554.53,-44089.05L43065.709,-44209.505L43544.384,-44237.995L43963.317,-44175.531L44307.43,-44031.718L44574.886,-43823.154L44776.133,-43570.992L44931.225,-43298.065L45065.936,-43026.048L45207.387,-42773.047L45379.891,-42551.923L45601.645,-42369.503L45882.703,-42226.693L46224.403,-42119.357L46620.188,-42039.727L47057.522,-41978.077L47520.47,-41924.383L47992.466,-41869.734L48458.791,-41807.335L48908.432,-41733.052L49335.114,-41645.483L49737.471,-41545.657L50118.465,-41436.464L50484.268,-41321.963L50842.879,-41206.67L51202.723,-41094.953L51571.46,-40990.562L51955.133,-40896.341L52357.713,-40814.112L52781.01,-40744.684L53224.881,-40687.963L53687.621,-40643.11L54166.423,-40608.705L54657.841,-40582.896L55158.165,-40563.525L55663.711,-40548.223L56171.013,-40534.493L56676.943,-40519.794L57178.782,-40501.65L57674.259,-40477.779L58161.586,-40446.254L58639.472,-40405.665L59107.133,-40355.273L59564.268,-40295.1L60011.021,-40225.94L60447.908,-40149.257L60875.726,-40066.975L61295.442,-39981.166L61708.083,-39893.699L62114.634,-39805.895L62515.945,-39718.265L62912.657,-39630.393L63305.154,-39541.002L63693.523,-39448.202L64077.555,-39349.884L64456.758,-39244.186L64830.407,-39129.921L65197.623,-39006.885L65557.473,-38875.935L65909.085,-38738.819L66251.757,-38597.774L66585.029,-38454.954L66908.712,-38311.822L67222.836,-38168.648L67527.535,-38024.246L67822.876,-37876.026L68108.66,-37720.393L68384.256,-37553.422L68648.506,-37371.672L68899.739,-37172.95L69135.932,-36956.85L69354.982,-36724.898L69555.066,-36480.245L69735.005,-36226.933L69894.54,-35968.887L70034.452,-35708.834L70156.441,-35447.439L70262.762,-35182.861L70355.645,-34910.914L70436.584,-34625.845L70505.623,-34321.624L70560.786,-33993.501L70597.784,-33639.491L70610.097,-33261.466L70589.449,-32865.541L70526.654,-32461.637L70412.7,-32062.225L70239.899,-31680.478L70002.939,-31328.177L69699.637,-31013.813L69331.287,-30741.307L68902.568,-30509.634L68421.029,-30313.492L67896.293,-30144.88L67339.133,-29995.288L66760.604,-29858.001L66171.377,-29730.008L65581.354,-29613.044L64999.577,-29513.486L64434.334,-29441.052L63893.338,-29406.534L63383.798,-29419.032L62912.261,-29483.287L62484.145,-29597.724L62102.997,-29753.69L61769.595,-29936.151L61481.111,-30125.775L61230.591,-30302.04L61006.969,-30446.762L60795.78,-30547.316L60580.603,-30598.866L60345.087,-30605.09L60075.326,-30577.219L59762.184,-30531.544L59403.168,-30485.872L59003.493,-30455.676L58576.078,-30450.737L58140.403,-30473.005L57720.373,-30516.156L57341.48,-30566.949L57027.735,-30608.129L56798.85,-30622.261L56668.125,-30595.677L56641.351,-30521.673L56716.862,-30402.268L56886.625,-30248.104L57138.09,-30076.477L57456.383,-29907.912L57826.39,-29761.968L58234.338,-29653.188L58668.636,-29588.042L59119.927,-29563.551L59580.491,-29567.89L60043.336,-29582.884L60501.337,-29587.894L60946.817,-29564.298L61371.791,-29499.64L61768.952,-29390.599L62133.212,-29244.15L62463.452,-29076.673L62763.989,-28911.188L63045.291,-28773.248L63323.54,-28686.301L63618.888,-28667.409L63952.528,-28724.124L64342.955,-28853.06L64802.06,-29040.367L65331.775,-29263.93L65921.977,-29496.796L66550.171,-29711.141L67183.175,-29882.048L67780.675,-29990.455L68300.145,-30024.877L68702.368,-29981.775L68956.644,-29864.734L69044.809,-29682.817L68963.375,-29448.556L68723.454,-29176.052L68348.505,-28879.504L67870.353,-28572.315L67324.202,-28266.734L66743.575,-27973.844L66156.019,-27703.619L65580.296,-27464.823L65025.424,-27264.6L64491.559,-27107.788L63972.368,-26996.104L63458.262,-26927.497L62939.717,-26895.94L62409.996,-26891.903L61866.731,-26903.57L61312.135,-26918.675L60751.953,-26926.644L60193.534,-26920.61L59643.602,-26898.821L59106.352,-26865.047L58582.384,-26827.815L58068.771,-26798.493L57560.277,-26788.589L57051.403,-26806.753L56538.796,-26856.153L56023.376,-26932.805L55511.64,-27025.291L55015.758,-27116.015L54552.34,-27183.824L54140.074,-27207.52L53796.685,-27169.568L53535.837,-27059.268L53364.606,-26874.705L53282.068,-26623.075L53279.28,-26319.286L53340.649,-25983.1L53446.395,-25635.401L53575.587,-25294.342L53709.137,-24972.157L53832.16,-24673.3L53935.312,-24394.259L54014.937,-24125.078L54072.166,-23852.233L54111.329,-23562.232L54138.193,-23245.177L54158.53,-22897.52L54177.383,-22523.455L54199.2,-22134.646L54228.679,-21748.375L54271.98,-21384.503L54337.763,-21061.887L54437.538,-20794.97L54584.929,-20591.238L54793.732,-20449.996L55074.959,-20362.669L55433.4,-20314.49L55864.441,-20287.166L56351.946,-20261.954L56867.9,-20222.516L57374.212,-20157.019L57826.66,-20059.138L58180.507,-19927.894L58396.922,-19766.476L58449.095,-19580.436L58326.894,-19375.709L58039.131,-19156.934L57612.886,-18926.41L57089.882,-18683.859L56520.468,-18426.955L55956.206,-18152.405L55442.384,-17857.242L55011.758,-17539.992L54680.634,-17201.413L54447.928,-16844.632L54297.287,-16474.701L54201.731,-16097.683L54129.834,-15719.536L54052.145,-15345.069L53946.581,-14977.212L53801.743,-14616.759L53617.585,-14262.596L53403.454,-13912.327L53174.049,-13563.097L52944.336,-13212.399L52724.618,-12858.653L52516.945,-12501.442L52313.72,-12141.381L52098.871,-11779.701L51851.387,-11417.702L51550.454,-11056.269L51181.089,-10695.592L50738.999,-10335.199L50233.533,-9974.283L49687.978,-9612.233L49136.969,-9249.211L48621.405,-8886.594L48181.759,-8527.137L47851.039,-8174.784L47648.732,-7834.157L47576.902,-7509.831L47619.202,-7205.582L47742.999,-6923.8L47904.232,-6665.231L48054.097,-6429.116L48146.355,-6213.715L48143.941,-6017.075L48023.763,-5837.851L47778.939,-5675.953L47418.238,-5532.834L46963.028,-5411.33L46442.488,-5315.047L45888.102,-5247.451L45328.53,-5210.869L44785.786,-5205.661L44273.306,-5229.802L43796.073,-5279.005L43352.518,-5347.414L42937.564,-5428.742L42546.002,-5517.613L42175.362,-5610.824L41827.62,-5708.204L41509.398,-5812.879L41230.663,-5930.815L41002.276,-6069.725L40833.027,-6237.517L40726.854,-6440.616L40680.943,-6682.478L40685.179,-6962.629L40723.137,-7276.42L40774.482,-7615.555L40818.346,-7969.31L40837.041,-8326.186L40819.423,-8675.693L40763.251,-9009.936L40676.097,-9324.711L40574.618,-9619.946L40482.308,-9899.46L40426.068,-10170.107L40432.187,-10440.532L40522.334,-10719.752L40710.201,-11015.811L40999.27,-11334.68L41382.001,-11679.51L41840.494,-12050.226L42348.493,-12443.427L42874.38,-12852.486L43384.713,-13267.773L43847.825,-13676.969L44237.009,-14065.469L44532.904,-14416.964L44724.848,-14714.255L44811.07,-14940.379L44797.787,-15080.039L44697.385,-15121.248L44525.97,-15056.998L44300.669,-14886.697L44037.048,-14617.081L43747.037,-14262.364L43437.641,-13843.459L43110.625,-13386.27L42763.222,-12919.22L42389.738,-12470.337L41983.814,-12064.299L41540.947,-11719.901L41060.853,-11448.331L40549.242,-11252.514L40018.641,-11127.588L39488.076,-11062.392L38981.581,-11041.665L38525.721,-11048.532L38146.492,-11066.848L37866.065,-11083.012L37699.91,-11087.007L37654.749,-11072.605L37727.674,-11036.822L37906.557,-10978.902L38171.651,-10899.124L38498.081,-10797.768L38858.799,-10674.469L39227.488,-10528.077L39580.978,-10356.985L39900.845,-10159.761L40174.071,-9935.853L40392.821,-9686.127L40553.604,-9413.047L40656.145,-9120.432L40702.352,-8812.847L40695.65,-8494.78L40640.819,-8169.862L40544.288,-7840.347L40414.659,-7507.029L40263.128,-7169.652L40103.456,-6827.728L39951.217,-6481.556L39822.214,-6133.168L39730.209,-5786.913L39684.293,-5449.476L39686.414,-5129.245L39729.649,-4835.107L39797.723,-4574.916L39866.103,-4353.97L39904.711,-4173.864L39881.959,-4032.035L39769.536,-3922.158L39547.14,-3835.389L39206.315,-3762.236L38752.631,-3694.674L38205.718,-3628.063L37597.016,-3562.425L36965.544,-3502.755L36352.313,-3458.247L35794.321,-3440.533L35319.14,-3461.254L34940.999,-3529.452L34841.206,-3561.988"/><path fill="rgb(2,178,19)" fill-opacity="1" stroke-opacity="1" vector-effect="non-scaling-stroke" stroke-width="1.5" stroke="rgb(2,178,19)" d="M34931.525,-3587.07L34702.118,-3691.306L34536.901,-3835.012L34406.463,-4013.247L34279.67,-4217.092L34128.608,-4434.505L33932.337,-4651.685L33678.925,-4854.769L33365.634,-5031.583L32997.482,-5173.203L32584.731,-5275.056L32139.973,-5337.413L31675.467,-5365.173L31201.24,-5366.982L30724.199,-5353.839L30248.233,-5337.4L29775.053,-5328.271L29305.371,-5334.565L28840.012,-5360.949L28380.603,-5408.319L27929.703,-5474.14L27490.366,-5553.347L27065.352,-5639.63L26656.267,-5726.839L26262.929,-5810.242L25883.198,-5887.405L25513.337,-5958.539L25148.845,-6026.273L24785.534,-6094.926L24420.57,-6169.443L24053.19,-6254.246L23684.882,-6352.23L23318.978,-6464.123L22959.743,-6588.338L22611.194,-6721.333L22275.948,-6858.389L21954.406,-6994.632L21644.486,-7126.066L21341.996,-7250.389L21041.552,-7367.418L20737.829,-7479.035L20426.83,-7588.678L20106.852,-7700.492L19778.904,-7818.351L19446.466,-7944.949L19114.638,-8081.203L18788.883,-8226.055L18473.675,-8376.753L18171.382,-8529.511L17881.666,-8680.409L17601.549,-8826.308L17326.13,-8965.582L17049.789,-9098.483L16767.577,-9227.073L16476.454,-9354.726L16176.069,-9485.338L15868.889,-9622.413L15559.639,-9768.259L15254.186,-9923.465L14958.143,-10086.8L14675.513,-10255.526L14407.728,-10426.081L14153.29,-10594.938L13908.117,-10759.447L13666.515,-10918.46L13422.524,-11072.574L13171.326,-11223.961L12910.375,-11375.799L12639.971,-11531.465L12363.149,-11693.681L12084.908,-11863.82L11810.975,-12041.548L11546.404,-12224.897L11294.353,-12410.747L11055.339,-12595.61L10827.145,-12776.518L10605.408,-12951.806L10384.737,-13121.583L10160.087,-13287.769L9928.049,-13453.686L9687.745,-13623.279L9441.09,-13800.17L9192.365,-13986.748L8947.189,-14183.542L8711.144,-14389.035L8488.373,-14599.967L8280.512,-14812.081L8086.201,-15021.138L7901.331,-15223.958L7719.95,-15419.232L7535.659,-15607.912L7343.145,-15793.045L7139.507,-15979.088L6925.045,-16170.854L6703.313,-16372.315L6480.41,-16585.58L6263.65,-16810.278L6059.899,-17043.547L5873.969,-17280.646L5707.423,-17516.09L5558.104,-17745.062L5420.491,-17964.763L5286.868,-18175.394L5149.058,-18380.464L5000.394,-18586.332L4837.507,-18800.981L4661.569,-19032.249L4478.724,-19285.85L4299.609,-19563.594L4138.039,-19862.186L4009.093,-20172.899L3926.955,-20482.237L3902.887,-20773.52L3943.681,-21029.133L4050.839,-21233.041L4220.561,-21373.134L4444.509,-21442.957L4711.153,-21442.547L5007.422,-21378.219L5320.388,-21261.381L5638.697,-21106.616L5953.571,-20929.406L6259.295,-20743.91L6553.199,-20561.193L6835.234,-20388.187L7107.295,-20227.484L7372.445,-20077.931L7634.184,-19935.814L7895.863,-19796.326L8160.278,-19655L8429.46,-19508.811L8704.612,-19356.758L8986.157,-19199.872L9273.851,-19040.727L9566.931,-18882.615L9864.285,-18728.648L10164.632,-18580.991L10466.729,-18440.416L10769.571,-18306.255L11072.587,-18176.733L11375.787,-18049.562L11679.826,-17922.632L11985.963,-17794.613L12295.903,-17665.312L12611.524,-17535.716L12934.56,-17407.72L13266.275,-17283.624L13607.216,-17165.534L13957.104,-17054.842L14314.894,-16951.895L14679.004,-16855.953L15047.678,-16765.427L15419.403,-16678.344L15793.289,-16592.897L16169.336,-16507.965L16548.514,-16423.441L16932.649,-16340.311L17324.119,-16260.459L17725.44,-16186.248L18138.825,-16119.982L18565.804,-16063.395L19006.992,-16017.283L19462.032,-15981.371L19929.727,-15954.446L20408.312,-15934.723L20895.783,-15920.338L21390.222,-15909.862L21890.025,-15902.695L22394.011,-15899.249L22901.382,-15900.882L23411.591,-15909.597L23924.15,-15927.593L24438.471,-15956.768L24953.767,-15998.307L25469.076,-16052.454L25983.374,-16118.519L26495.768,-16195.105L27005.689,-16280.507L27513.044,-16373.179L28018.256,-16472.133L28522.191,-16577.199L29025.973,-16689.067L29530.741,-16809.109L30037.398,-16939.047L30546.437,-17080.539L31057.868,-17234.814L31571.271,-17402.436L32085.946,-17583.276L32601.097,-17776.68L33115.988,-17981.8L33629.99,-18197.978L34142.485,-18425.083L34652.638,-18663.685L35159.073,-18915.004L35659.552,-19180.632L36150.759,-19462.066L36628.286,-19760.178L37086.88,-20074.734L37520.934,-20404.112L37925.167,-20745.299L38295.361,-21094.199L38628.997,-21446.206L38925.634,-21796.938L39186.937,-22142.965L39416.308,-22482.374L39618.18,-22815.04L39797.104,-23142.519L39956.837,-23467.581L40099.622,-23793.478L40225.838,-24123.098L40334.127,-24458.209L40421.977,-24798.958L40486.655,-25143.765L40526.291,-25489.636L40540.851,-25832.855L40532.789,-26169.888L40507.182,-26498.312L40471.296,-26817.537L40433.655,-27129.138L40402.766,-27436.698L40385.792,-27745.162L40387.432,-28059.821L40409.265,-28385.132L40449.706,-28723.635L40504.589,-29075.222L40568.269,-29436.949L40634.994,-29803.478L40700.277,-30168.084L40761.949,-30524.064L40820.683,-30866.259L40879.882,-31192.354L40944.948,-31503.669L41022.117,-31805.206L41117.11,-32104.889L41233.903,-32412.071L41373.891,-32735.562L41535.623,-33081.52L41715.152,-33451.636L41906.932,-33841.975L42105.05,-34242.765L42304.518,-34639.237L42502.371,-35013.452L42698.321,-35346.83L42894.88,-35622.996L43096.929,-35830.435L43310.872,-35964.514L43543.573,-36028.501L43801.304,-36033.383L44088.926,-35996.505L44409.421,-35939.26L44763.83,-35884.214L45151.524,-35852.157L45570.665,-35859.571L46018.698,-35916.919L46492.71,-36028.012L46989.56,-36190.478L47505.777,-36397.18L48037.294,-36638.254L48579.164,-36903.305L49125.416,-37183.344L49669.184,-37472.065L50203.182,-37766.263L50720.484,-38065.349L51215.489,-38370.14L51684.87,-38681.241L52128.288,-38997.432L52548.66,-39314.47L52951.892,-39624.627L53346.051,-39917.106L53740.113,-40179.328L54142.512,-40398.823L54559.758,-40565.382L54995.406,-40673.001L55449.576,-40721.211L55919.122,-40715.482L56398.401,-40666.579L56880.463,-40588.95L57358.424,-40498.435L57826.704,-40409.73L58281.898,-40334.075L58723.104,-40277.621L59151.684,-40240.787L59570.537,-40218.708L59983.106,-40202.679L60392.36,-40182.274L60800.004,-40147.704L61206.098,-40091.929L61609.158,-40012.083L62006.687,-39909.951L62395.98,-39791.418L62774.965,-39665.026L63142.872,-39539.999L63500.531,-39424.154L63850.219,-39322.178L64195.1,-39234.638L64538.395,-39157.942L64882.496,-39085.226L65228.262,-39007.973L65574.678,-38917.984L65918.981,-38809.23L66257.232,-38679.192L66585.188,-38529.355L66899.271,-38364.759L67197.378,-38192.714L67479.328,-38020.976L67746.821,-37855.808L68002.903,-37700.38L68251.067,-37553.904L68494.214,-37411.69L68733.719,-37266.139L68968.867,-37108.452L69196.804,-36930.646L69413.04,-36727.421L69612.402,-36497.412L69790.223,-36243.533L69943.468,-35972.295L70071.519,-35692.235L70176.403,-35411.825L70262.37,-35137.325L70334.878,-34871.125L70399.191,-34610.978L70458.879,-34350.375L70514.569,-34080.013L70563.209,-33790.091L70598.062,-33472.925L70609.426,-33125.3L70585.971,-32750.001L70516.434,-32356.112L70391.326,-31957.968L70204.336,-31572.892L69953.157,-31218.178L69639.624,-30907.932L69269.16,-30650.45L68849.724,-30446.731L68390.509,-30290.482L67900.698,-30169.653L67388.547,-30069.223L66860.959,-29974.663L66323.597,-29875.33L65781.417,-29767.06L65239.435,-29653.348L64703.45,-29544.826L64180.467,-29457.084L63678.659,-29407.255L63206.791,-29410.053L62773.184,-29474.111L62384.415,-29599.4L62044.022,-29776.328L61751.491,-29986.755L61501.77,-30206.792L61285.456,-30410.844L61089.658,-30576.109L60899.436,-30686.637L60699.59,-30736.111L60476.534,-30728.785L60219.977,-30678.373L59924.176,-30605.11L59588.632,-30531.559L59218.15,-30478.025L58822.354,-30458.477L58414.728,-30477.814L58011.38,-30530.999L57629.66,-30604.219L57286.793,-30677.821L56998.63,-30730.406L56778.579,-30743.246L56636.774,-30704.118L56579.502,-30609.821L56608.906,-30466.857L56722.998,-30290.197L56915.973,-30100.396L57178.825,-29919.664L57500.221,-29767.681L57867.546,-29657.988L58267.987,-29595.642L58689.532,-29576.539L59121.715,-29588.503L59556.022,-29613.86L59985.908,-29632.962L60406.487,-29627.952L60814.006,-29586.072L61205.313,-29501.912L61577.511,-29378.258L61927.975,-29225.462L62254.796,-29059.557L62557.603,-28899.517L62838.586,-28764.235L63103.416,-28669.732L63361.732,-28627.05L63626.888,-28641.084L63914.784,-28710.423L64241.765,-28828.051L64621.833,-28982.654L65063.569,-29160.207L65567.346,-29345.534L66123.424,-29523.615L66711.421,-29680.531L67301.466,-29804.063L67857.037,-29884.028L68339.147,-29912.503L68711.284,-29884.057L68944.298,-29796.052L69020.399,-29649.004L68935.552,-29446.927L68699.812,-29197.489L68335.513,-28911.864L67873.632,-28604.142L67348.954,-28290.289L66794.934,-27986.721L66239.148,-27708.651L65700.134,-27468.465L65186.116,-27274.381L64695.724,-27129.624L64220.429,-27032.269L63748.082,-26975.809L63266.735,-26950.347L62767.932,-26944.242L62248.777,-26945.928L61712.428,-26945.623L61167.008,-26936.662L60623.277,-26916.253L60091.718,-26885.574L59579.762,-26849.208L59089.861,-26814.065L58618.892,-26787.946L58159.042,-26778.012L57699.999,-26789.371L57231.929,-26823.985L56748.551,-26880.043L56249.584,-26951.862L55741.977,-27030.323L55239.589,-27103.772L54761.353,-27159.274L54328.281,-27184.055L53959.916,-27166.972L53670.975,-27099.827L53468.871,-26978.354L53352.594,-26802.751L53313.158,-26577.662L53335.444,-26311.598L53401.029,-26015.817L53491.329,-25702.834L53590.425,-25384.713L53686.978,-25071.424L53774.929,-24769.506L53852.947,-24481.282L53922.904,-24204.775L53987.856,-23934.393L54050.13,-23662.29L54110.046,-23380.208L54165.631,-23081.484L54213.41,-22762.85L54250.077,-22425.699L54274.593,-22076.516L54290.13,-21726.364L54305.278,-21389.458L54334.07,-21081.039L54394.638,-20814.911L54506.613,-20601.079L54687.675,-20443.921L54949.879,-20341.25L55296.449,-20284.44L55719.717,-20259.631L56200.65,-20249.781L56710.147,-20237.201L57211.975,-20206.115L57666.91,-20144.766L58037.437,-20046.718L58292.299,-19911.125L58410.209,-19741.992L58382.207,-19546.603L58212.373,-19333.496L57916.895,-19110.401L57521.714,-18882.582L57059.162,-18651.89L56564.114,-18416.694L56070.179,-18172.64L55606.396,-17914.04L55194.756,-17635.527L54848.765,-17333.601L54573.075,-17007.711L54364.115,-16660.638L54211.548,-16298.111L54100.318,-15927.766L54013.017,-15557.686L53932.29,-15194.877L53842.989,-14844.008L53733.839,-14506.679L53598.387,-14181.384L53435.136,-13864.117L53246.825,-13549.48L53038.972,-13232.01L52817.927,-12907.415L52588.793,-12573.448L52353.62,-12230.237L52110.307,-11880.029L51852.515,-11526.452L51570.737,-11173.497L51254.443,-10824.503L50894.963,-10481.386L50488.565,-10144.321L50039.066,-9811.925L49559.331,-9481.9L49071.139,-9151.945L48603.214,-8820.712L48187.53,-8488.529L47854.413,-8157.726L47627.232,-7832.451L47517.663,-7518.026L47522.477,-7219.988L47622.59,-6943.052L47784.724,-6690.26L47965.564,-6462.514L48117.784,-6258.616L48196.961,-6075.819L48168.139,-5910.738L48010.888,-5760.409L47721.917,-5623.216L47314.778,-5499.467L46816.748,-5391.441L46263.513,-5302.9L45692.72,-5238.154L45137.642,-5200.913L44622.197,-5193.205L44158.214,-5214.632L43745.397,-5262.173L43373.838,-5330.618L43028.406,-5413.561L42693.955,-5504.767L42360.152,-5599.586L42024.809,-5696.131L41695.003,-5795.9L41385.735,-5903.7L41116.475,-6026.845L40906.384,-6173.756L40769.344,-6352.249L40709.949,-6567.843L40721.408,-6822.445L40785.89,-7113.661L40877.319,-7434.912L40966.063,-7776.302L41024.57,-8126.096L41032.772,-8472.505L40982.15,-8805.454L40877.616,-9117.999L40736.84,-9407.161L40587.188,-9674.074L40460.904,-9923.455L40389.524,-10162.577L40398.621,-10399.959L40503.863,-10644.052L40709.042,-10902.131L41006.29,-11179.547L41378.239,-11479.376L41801.496,-11802.397L42250.584,-12147.276L42701.516,-12510.801L43134.294,-12888.027L43534.03,-13272.275L43890.669,-13655.003L44197.717,-14025.655L44450.53,-14371.648L44644.806,-14678.658L44775.774,-14931.334L44838.344,-15114.465L44828.133,-15214.532L44743.03,-15221.44L44584.732,-15130.167L44359.706,-14942.013L44079.123,-14665.194L43757.597,-14314.582L43410.91,-13910.57L43053.179,-13477.151L42694.148,-13039.499L42337.33,-12621.364L41979.545,-12242.709L41612.146,-11917.9L41223.781,-11654.733L40804.19,-11454.367L40348.223,-11312.13L39859.158,-11218.988L39350.481,-11163.378L38845.597,-11133.064L38375.353,-11116.718L37973.748,-11104.991L37672.596,-11090.984L37496.182,-11070.138L37456.982,-11039.683L37553.307,-10997.866L37769.375,-10943.174L38077.781,-10873.767L38443.873,-10787.225L38831.136,-10680.657L39206.506,-10551.096L39544.585,-10396.05L39829.993,-10214.05L40057.534,-10005.024L40230.342,-9770.413L40356.61,-9512.975L40445.807,-9236.33L40505.344,-8944.368L40538.51,-8640.64L40544.122,-8327.915L40517.919,-8007.979L40455.228,-7681.764L40354.137,-7349.74L40218.219,-7012.506L40057.974,-6671.422L39890.423,-6329.114L39736.74,-5989.73L39618.315,-5658.843L39552.029,-5342.995L39545.788,-5048.946L39595.376,-4782.756L39683.457,-4548.891L39781.133,-4349.51L39851.94,-4184.112L39857.628,-4049.615L39764.69,-3940.898L39550.385,-3851.713L39207.106,-3775.833L38744.21,-3708.235L38186.93,-3646.1L37572.565,-3589.453L36944.631,-3541.301L36346.079,-3507.227L35812.788,-3494.476L35368.497,-3510.677L35021.999,-3562.387L34931.525,-3587.07"/><path fill="rgb(233,26,145)" fill-opacity="1" stroke-opacity="1" vector-effect="non-scaling-stroke" stroke-width="1.5" stroke="rgb(233,26,145)" d="M30442.963,-5266.042L30419.363,-5277.574L30399.421,-5291.386L30381.16,-5306.298L30362.429,-5321.019L30341.27,-5334.351L30316.221,-5345.372L30286.52,-5353.551L30252.149,-5358.795L30213.749,-5361.408L30172.41,-5361.98L30129.399,-5361.244L30085.886,-5359.922L30042.733,-5358.593L30000.375,-5357.618L29958.821,-5357.115L29917.757,-5357.005L29876.717,-5357.088L29835.272,-5357.145L29793.186,-5357.021L29750.501,-5356.686L29707.528,-5356.243L29664.754,-5355.887L29622.685,-5355.844L29581.677,-5356.276L29541.803,-5357.216L29502.785,-5358.527L29464.028,-5359.91L29424.75,-5360.967L29384.172,-5361.295L29341.737,-5360.607L29297.307,-5358.835L29251.27,-5356.203L29204.548,-5353.237L29158.477,-5350.706L29114.591,-5349.512L29074.341,-5350.529L29038.806,-5354.437L29008.459,-5361.573L28983.04,-5371.838L28961.554,-5384.683L28942.409,-5399.169L28923.665,-5414.101L28903.342,-5428.213L28879.74,-5440.368L28851.697,-5449.731L28818.746,-5455.887L28781.138,-5458.89L28739.742,-5459.221L28695.833,-5457.667L28650.824,-5455.168L28605.991,-5452.622L28562.251,-5450.734L28520.027,-5449.896L28479.231,-5450.15L28439.35,-5451.218L28399.628,-5452.61L28359.287,-5453.765L28317.745,-5454.209L28274.793,-5453.695L28230.683,-5452.286L28186.121,-5450.38L28142.158,-5448.654L28100.016,-5447.953L28060.866,-5449.132L28025.608,-5452.894L27994.7,-5459.648L27968.05,-5469.408L27944.999,-5481.767L27924.393,-5495.936L27904.732,-5510.848L27884.367,-5525.309L27861.711,-5538.163L27835.444,-5548.451L27804.667,-5555.541L27769,-5559.195L27728.608,-5559.588L27684.163,-5557.26L27636.737,-5553.029L27587.676,-5547.872L27538.434,-5542.8L27490.424,-5538.743L27444.881,-5536.465L27402.754,-5536.501L27364.639,-5539.144L27330.75,-5544.443L27300.921,-5552.234L27274.639,-5562.174L27251.105,-5573.781L27229.301,-5586.467L27208.073,-5599.568L27186.217,-5612.384L27162.577,-5624.207L27136.134,-5634.374L27106.1,-5642.326L27072.007,-5647.672L27033.781,-5650.26L26991.783,-5650.236L26946.825,-5648.069L26900.126,-5644.546L26853.22,-5640.714L26807.797,-5637.767L26765.514,-5636.902L26727.76,-5639.138L26695.442,-5645.148L26668.794,-5655.116L26647.277,-5668.662L26629.573,-5684.846L26613.705,-5702.26L26597.274,-5719.216L26577.793,-5733.989L26553.07,-5745.09L26521.574,-5751.519L26482.734,-5752.959L26437.093,-5749.864L26386.297,-5743.423L26332.885,-5735.402L26279.916,-5727.87L26230.487,-5722.872L26187.21,-5722.083L26151.752,-5726.518L26124.518,-5736.345L26104.55,-5750.844L26089.658,-5768.514L26076.787,-5787.332L26062.547,-5805.1L26043.82,-5819.839L26018.333,-5830.144L25985.083,-5835.439L25944.529,-5836.083L25898.519,-5833.307L25849.941,-5828.979L25802.174,-5825.256L25758.442,-5824.173L25721.182,-5827.253L25691.569,-5835.214L25669.277,-5847.829L25652.54,-5863.966L25638.492,-5881.807L25623.737,-5899.204L25605.017,-5914.092L25579.866,-5924.902L25547.101,-5930.867L25507.06,-5932.177L25461.538,-5929.942L25413.421,-5925.973L25366.113,-5922.426L25322.84,-5921.371L25286.011,-5924.381L25256.726,-5932.217L25234.565,-5944.677L25217.677,-5960.64L25203.163,-5978.285L25187.664,-5995.462L25168.05,-6010.122L25142.042,-6020.726L25108.668,-6026.553L25068.446,-6027.84L25023.26,-6025.728L24975.967,-6022.031L24929.804,-6018.866L24887.738,-6018.224L24851.869,-6021.579L24823.027,-6029.589L24800.634,-6041.984L24782.84,-6057.624L24766.931,-6074.742L24749.88,-6091.306L24728.964,-6105.426L24702.287,-6115.731L24669.132,-6121.624L24630.06,-6123.386L24586.754,-6122.094L24541.644,-6119.39L24497.404,-6117.135L24456.423,-6117.041L24420.361,-6120.338L24389.87,-6127.559L24364.542,-6138.476L24343.065,-6152.183L24323.552,-6167.329L24303.961,-6182.419L24282.519,-6196.127L24258.051,-6207.564L24230.168,-6216.426L24199.266,-6223.016L24166.367,-6228.13L24132.837,-6232.839L24100.053,-6238.231L24069.104,-6245.158L24040.567,-6254.054L24014.428,-6264.86L23990.132,-6277.064L23966.752,-6289.846L23943.229,-6302.293L23918.62,-6313.619L23892.306,-6323.35L23864.104,-6331.431L23834.275,-6338.219L23803.432,-6344.385L23772.37,-6350.731L23741.871,-6357.99L23712.522,-6366.634L23684.596,-6376.757L23658.008,-6388.049L23632.361,-6399.88L23607.061,-6411.462L23581.475,-6422.06L23555.093,-6431.208L23527.667,-6438.858L23499.288,-6445.45L23470.408,-6451.866L23441.799,-6459.275L23414.465,-6468.909L23389.537,-6481.805L23368.162,-6498.574L23351.412,-6519.237L23340.212,-6543.182L23335.304,-6569.227L23337.219,-6595.801L23346.264,-6621.188L23362.501,-6643.803L23385.736,-6662.433L23415.5,-6676.406L23451.043,-6685.656L23491.349,-6690.679L23535.192,-6692.387L23581.223,-6691.916L23628.087,-6690.4L23674.568,-6688.783L23719.722,-6687.689L23762.981,-6687.377L23804.207,-6687.779L23843.673,-6688.594L23881.983,-6689.432L23919.929,-6689.943L23958.323,-6689.923L23997.831,-6689.361L24038.838,-6688.43L24081.383,-6687.425L24125.163,-6686.667L24169.615,-6686.405L24214.051,-6686.749L24257.812,-6687.629L24300.422,-6688.821L24341.683,-6690.001L24381.715,-6690.842L24420.918,-6691.095L24459.871,-6690.668L24499.193,-6689.648L24539.4,-6688.285L24580.783,-6686.93L24623.349,-6685.945L24666.826,-6685.604L24710.734,-6686.023L24754.501,-6687.121L24797.606,-6688.636L24839.696,-6690.185L24880.669,-6691.361L24920.693,-6691.838L24960.159,-6691.455L24999.584,-6690.273L25039.482,-6688.562L25080.245,-6686.748L25122.046,-6685.31L25164.805,-6684.658L25208.212,-6685.023L25251.807,-6686.385L25295.094,-6688.458L25337.658,-6690.738L25379.27,-6692.616L25419.934,-6693.519L25459.887,-6693.064L25499.532,-6691.179L25539.342,-6688.17L25579.74,-6684.707L25621,-6681.735L25663.181,-6680.316L25706.116,-6681.441L25749.457,-6685.831L25792.761,-6693.788L25835.602,-6705.106L25877.675,-6719.074L25918.864,-6734.575L25959.274,-6750.243L25999.199,-6764.685L26039.047,-6776.693L26079.239,-6785.427L26120.107,-6790.538L26161.811,-6792.195L26204.304,-6791.03L26247.347,-6788.002L26290.568,-6784.219L26333.555,-6780.734L26375.96,-6778.372L26417.582,-6777.606L26458.417,-6778.501L26498.652,-6780.741L26538.621,-6783.72L26578.721,-6786.687L26619.309,-6788.907L26660.62,-6789.814L26702.707,-6789.128L26745.431,-6786.915L26788.499,-6783.586L26831.532,-6779.836L26874.169,-6776.529L26916.147,-6774.568L26957.369,-6774.747L26997.927,-6777.634L27038.076,-6783.481L27078.169,-6792.191L27118.57,-6803.329L27159.562,-6816.181L27201.281,-6829.857L27243.68,-6843.403L27286.546,-6855.919L27329.551,-6866.669L27372.334,-6875.152L27414.596,-6881.141L27456.166,-6884.686L27497.049,-6886.068L27537.417,-6885.736L27577.571,-6884.222L27617.862,-6882.056L27658.604,-6879.699L27699.996,-6877.497L27742.074,-6875.665L27784.706,-6874.316L27827.621,-6873.498L27870.479,-6873.258L27912.96,-6873.697L27954.836,-6875.007L27996.033,-6877.48L28036.647,-6881.47L28076.916,-6887.33L28117.164,-6895.314L28157.718,-6905.48L28198.826,-6917.603L28240.597,-6931.136L28282.975,-6945.221L28325.752,-6958.772L28368.624,-6970.616L28411.262,-6979.676L28453.4,-6985.167L28494.897,-6986.766L28535.77,-6984.724L28576.196,-6979.887L28616.458,-6973.614L28656.882,-6967.6L28697.75,-6963.616L28739.233,-6963.226L28781.347,-6967.507L28823.952,-6976.844L28866.784,-6990.828L28909.526,-7008.285L28951.882,-7027.447L28993.655,-7046.219L29034.794,-7062.524L29075.407,-7074.65L29115.731,-7081.542L29156.077,-7082.984L29196.748,-7079.642L29237.966,-7072.954L29279.815,-7064.881L29322.221,-7057.575L29364.971,-7053.015L29407.767,-7052.673L29450.299,-7057.285L29492.324,-7066.747L29533.727,-7080.166L29574.548,-7096.054L29614.973,-7112.61L29655.286,-7128.053L29695.801,-7140.936L29736.78,-7150.379L29778.367,-7156.185L29820.557,-7158.834L29863.191,-7159.336L29906,-7159.005L29948.67,-7159.193L29990.922,-7161.032L30032.583,-7165.239L30073.626,-7172.028L30114.18,-7181.114L30154.498,-7191.837L30194.892,-7203.336L30235.655,-7214.757L30276.988,-7225.442L30318.951,-7235.055L30361.444,-7243.624L30404.233,-7251.495L30447.01,-7259.214L30489.468,-7267.367L30531.38,-7276.408L30572.654,-7286.535L30613.36,-7297.616L30653.71,-7309.205L30694.008,-7320.629L30734.572,-7331.13L30775.656,-7340.034L30817.383,-7346.901L30859.717,-7351.636L30902.465,-7354.523L30945.331,-7356.187L30987.984,-7357.483L31030.147,-7359.342L31071.661,-7362.604L31112.532,-7367.866L31152.928,-7375.389L31193.139,-7385.06L31233.505,-7396.437L31274.332,-7408.846L31315.813,-7421.52L31357.975,-7433.74L31400.677,-7444.966L31443.636,-7454.915L31486.499,-7463.588L31528.932,-7471.237L31570.706,-7478.285L31611.753,-7485.23L31652.19,-7492.529L31692.29,-7500.517L31732.422,-7509.353L31772.95,-7519.01L31814.149,-7529.304L31856.13,-7539.949L31898.806,-7550.632L31941.911,-7561.076L31985.059,-7571.087L32027.843,-7580.58L32069.935,-7589.571L32111.172,-7598.152L32151.604,-7606.457L32191.491,-7614.621L32231.243,-7622.761L32271.323,-7630.962L32312.135,-7639.292L32353.911,-7647.818L32396.652,-7656.631L32440.105,-7665.864L32483.821,-7675.694L32527.248,-7686.326L32569.869,-7697.954L32611.335,-7710.719L32651.567,-7724.654L32690.799,-7739.647L32729.553,-7755.417L32768.537,-7771.519L32808.494,-7787.371L32850.014,-7802.308L32893.373,-7815.644L32938.405,-7826.732L32984.457,-7835.024L33030.427,-7840.102L33074.886,-7841.69L33116.268,-7839.647L33153.085,-7833.946L33184.136,-7824.642L33208.675,-7811.85L33226.507,-7795.729L33237.992,-7776.483L33243.977,-7754.368L33245.657,-7729.709L33244.39,-7702.914L33241.52,-7674.473L33238.214,-7644.939L33235.345,-7614.896L33233.443,-7584.897L33232.697,-7555.41L33233.016,-7526.758L33234.112,-7499.08L33235.604,-7472.32L33237.111,-7446.246L33238.32,-7420.504L33239.036,-7394.69L33239.187,-7368.432L33238.821,-7341.467L33238.069,-7313.694L33237.114,-7285.19L33236.153,-7256.189L33235.363,-7227.035L33234.878,-7198.099L33234.777,-7169.698L33235.068,-7142.027L33235.697,-7115.114L33236.55,-7088.811L33237.468,-7062.832L33238.273,-7036.81L33238.795,-7010.388L33238.904,-6983.296L33238.542,-6955.414L33237.74,-6926.805L33236.63,-6897.705L33235.428,-6868.471L33234.399,-6839.504L33233.807,-6811.159L33233.852,-6783.661L33234.617,-6757.046L33236.025,-6731.148L33237.834,-6705.619L33239.66,-6680L33241.048,-6653.818L33241.561,-6626.682L33240.891,-6598.386L33238.952,-6568.963L33235.952,-6538.709L33232.41,-6508.155L33229.125,-6477.991L33227.077,-6448.972L33227.295,-6421.797L33230.691,-6397.003L33237.911,-6374.884L33249.203,-6355.441L33264.352,-6338.381L33282.677,-6323.15L33303.093,-6308.999L33324.242,-6295.076L33344.653,-6280.519L33362.923,-6264.537L33377.878,-6246.49L33388.706,-6225.937L33395.035,-6202.663L33396.955,-6176.698L33394.994,-6148.301L33390.042,-6117.944L33383.252,-6086.276L33375.927,-6054.074L33369.397,-6022.19L33364.909,-5991.471L33363.523,-5962.689L33366.019,-5936.451L33372.826,-5913.131L33383.977,-5892.812L33399.079,-5875.254L33417.342,-5859.912L33437.629,-5845.984L33458.573,-5832.505L33478.718,-5818.467L33496.697,-5802.947L33511.41,-5785.227L33522.173,-5764.889L33528.82,-5741.853L33531.717,-5716.364L33531.691,-5688.927L33529.874,-5660.202L33527.469,-5630.869L33525.499,-5601.51L33524.573,-5572.517L33524.705,-5544.043L33525.252,-5516.029L33524.968,-5488.264L33522.179,-5460.507L33515.06,-5432.61L33501.947,-5404.628L33481.653,-5376.897L33453.697,-5350.038L33418.419,-5324.902L33376.954,-5302.45L33331.055,-5283.597L33282.807,-5269.044L33234.291,-5259.137L33187.245,-5253.78L33142.805,-5252.423L33101.368,-5254.134L33062.601,-5257.731L33025.589,-5261.972L32989.089,-5265.74L32951.838,-5268.216L32912.837,-5268.978L32871.564,-5268.038L32828.065,-5265.788L32782.917,-5262.876L32737.066,-5260.046L32691.585,-5257.967L32647.42,-5257.088L32605.169,-5257.55L32564.946,-5259.177L32526.372,-5261.524L32488.675,-5263.999L32450.888,-5266.002L32412.083,-5267.068L32371.599,-5266.967L32329.192,-5265.754L32285.096,-5263.748L32239.953,-5261.449L32194.658,-5259.418L32150.136,-5258.144L32107.118,-5257.926L32065.96,-5258.806L32026.56,-5260.562L31988.381,-5262.762L31950.584,-5264.871L31912.236,-5266.374L31872.533,-5266.905L31831.004,-5266.331L31787.627,-5264.787L31742.838,-5262.643L31697.427,-5260.417L31652.349,-5258.654L31608.491,-5257.791L31566.446,-5258.054L31526.37,-5259.399L31487.929,-5261.517L31450.375,-5263.905L31412.722,-5265.983L31373.983,-5267.228L31333.416,-5267.309L31290.713,-5266.167L31246.092,-5264.04L31200.258,-5261.416L31154.246,-5258.925L31109.18,-5257.191L31065.998,-5256.686L31025.21,-5257.605L30986.751,-5259.804L30949.968,-5262.818L30913.744,-5265.949L30876.742,-5268.415L30837.715,-5269.532L30795.817,-5268.881L30750.84,-5266.43L30703.328,-5262.583L30654.524,-5258.136L30606.18,-5254.158L30560.232,-5251.802L30518.442,-5252.094L30482.046,-5255.743L30451.505,-5263.001L30442.963,-5266.042"/></g></g></svg>