<svg width="600" height="615" tabindex="0" xmlns="http://www.w3.org/2000/svg" xmlns:xlink="http://www.w3.org/1999/xlink"><g transform="translate(40,0)"><g><g transform="translate(0, 14.750000000000012)"><text font-family="sans-serif" font-size="10" fill="rgb(68, 68, 68)" x="0" y="-3.6875000000000524">Kernel</text><rect x="0" y="-1.8437500000000262" width="318.36270608300174" height="3.6875000000000524" vector-effect="non-scaling-stroke" opacity="1" fill="rgb(255,0,0)"/></g><g transform="translate(0, 29.500000000000025)"><text font-family="sans-serif" font-size="10" fill="rgb(68, 68, 68)" x="0" y="-3.6875000000000524">Data Fitting</text><rect x="0" y="-1.8437500000000262" width="79.08372953654182" height="3.6875000000000524" vector-effect="non-scaling-stroke" opacity="1" fill="rgb(0,0,255)"/></g><g transform="translate(0, 44.24999999999997)"><text font-family="sans-serif" font-size="10" fill="rgb(68, 68, 68)" x="0" y="-3.6875000000000524">Digits of Pi</text><rect x="0" y="-1.8437500000000262" width="80.10416475636819" height="3.6875000000000524" vector-effect="non-scaling-stroke" opacity="1" fill="rgb(0,0,255)"/></g><g transform="translate(0, 58.999999999999986)"><text font-family="sans-serif" font-size="10" fill="rgb(68, 68, 68)" x="0" y="-3.6875000000000524">Discrete Fourier Transform</text><rect x="0" y="-1.8437500000000262" width="40.31216083518528" height="3.6875000000000524" vector-effect="non-scaling-stroke" opacity="1" fill="rgb(0,0,255)"/></g><g transform="translate(0, 73.75)"><text font-family="sans-serif" font-size="10" fill="rgb(68, 68, 68)" x="0" y="-3.6875000000000524">Eigenvalues of a Matrix</text><rect x="0" y="-1.8437500000000262" width="51.95039973739358" height="3.6875000000000524" vector-effect="non-scaling-stroke" opacity="1" fill="rgb(0,0,255)"/></g><g transform="translate(0, 88.50000000000001)"><text font-family="sans-serif" font-size="10" fill="rgb(68, 68, 68)" x="0" y="-3.6875000000000524">Elementary Functions</text><rect x="0" y="-1.8437500000000262" width="19.101762364980107" height="3.6875000000000524" vector-effect="non-scaling-stroke" opacity="1" fill="rgb(0,0,255)"/></g><g transform="translate(0, 103.25000000000003)"><text font-family="sans-serif" font-size="10" fill="rgb(68, 68, 68)" x="0" y="-3.6875000000000524">Gamma Function</text><rect x="0" y="-1.8437500000000262" width="60.272551151636264" height="3.6875000000000524" vector-effect="non-scaling-stroke" opacity="1" fill="rgb(0,0,255)"/></g><g transform="translate(0, 117.99999999999997)"><text font-family="sans-serif" font-size="10" fill="rgb(68, 68, 68)" x="0" y="-3.6875000000000524">Large Integer Multiplication</text><rect x="0" y="-1.8437500000000262" width="65.3481344065109" height="3.6875000000000524" vector-effect="non-scaling-stroke" opacity="1" fill="rgb(0,0,255)"/></g><g transform="translate(0, 132.75)"><text font-family="sans-serif" font-size="10" fill="rgb(68, 68, 68)" x="0" y="-3.6875000000000524">Matrix Arithmetic</text><rect x="0" y="-1.8437500000000262" width="142.7143165199663" height="3.6875000000000524" vector-effect="non-scaling-stroke" opacity="1" fill="rgb(0,0,255)"/></g><g transform="translate(0, 147.5)"><text font-family="sans-serif" font-size="10" fill="rgb(68, 68, 68)" x="0" y="-3.6875000000000524">Matrix Multiplication</text><rect x="0" y="-1.8437500000000262" width="67.47905183281016" height="3.6875000000000524" vector-effect="non-scaling-stroke" opacity="1" fill="rgb(0,0,255)"/></g><g transform="translate(0, 162.25)"><text font-family="sans-serif" font-size="10" fill="rgb(68, 68, 68)" x="0" y="-3.6875000000000524">Matrix Transpose</text><rect x="0" y="-1.8437500000000262" width="83.89287525160182" height="3.6875000000000524" vector-effect="non-scaling-stroke" opacity="1" fill="rgb(0,0,255)"/></g><g transform="translate(0, 177.00000000000003)"><text font-family="sans-serif" font-size="10" fill="rgb(68, 68, 68)" x="0" y="-3.6875000000000524">Numerical Integration</text><rect x="0" y="-1.8437500000000262" width="48.5005685048323" height="3.6875000000000524" vector-effect="non-scaling-stroke" opacity="1" fill="rgb(0,0,255)"/></g><g transform="translate(0, 191.74999999999997)"><text font-family="sans-serif" font-size="10" fill="rgb(68, 68, 68)" x="0" y="-3.6875000000000524">Polynomial Expansion</text><rect x="0" y="-1.8437500000000262" width="318.36270608300174" height="3.6875000000000524" vector-effect="non-scaling-stroke" opacity="1" fill="rgb(0,0,255)"/></g><g transform="translate(0, 206.5)"><text font-family="sans-serif" font-size="10" fill="rgb(68, 68, 68)" x="0" y="-3.6875000000000524">Random Number Sort</text><rect x="0" y="-1.8437500000000262" width="31.754847921322423" height="3.6875000000000524" vector-effect="non-scaling-stroke" opacity="1" fill="rgb(0,0,255)"/></g><g transform="translate(0, 221.25)"><text font-family="sans-serif" font-size="10" fill="rgb(68, 68, 68)" x="0" y="-3.6875000000000524">Singular Value Decomposition</text><rect x="0" y="-1.8437500000000262" width="43.71882231421503" height="3.6875000000000524" vector-effect="non-scaling-stroke" opacity="1" fill="rgb(0,0,255)"/></g><g transform="translate(0, 236)"><text font-family="sans-serif" font-size="10" fill="rgb(68, 68, 68)" x="0" y="-3.6875000000000524">Solving a Linear System</text><rect x="0" y="-1.8437500000000262" width="55.42922114837977" height="3.6875000000000524" vector-effect="non-scaling-stroke" opacity="1" fill="rgb(0,0,255)"/></g><g transform="translate(0, 250.75000000000003)"><text font-family="sans-serif" font-size="10" fill="rgb(68, 68, 68)" x="0" y="-3.6875000000000524">Javascript</text><rect x="0" y="-1.8437500000000262" width="321.8390809007611" height="3.6875000000000524" vector-effect="non-scaling-stroke" opacity="1" fill="rgb(255,0,0)"/></g><g transform="translate(0, 265.5)"><text font-family="sans-serif" font-size="10" fill="rgb(68, 68, 68)" x="0" y="-3.6875000000000524">arrayTest</text><rect x="0" y="-1.8437500000000262" width="321.8390809007611" height="3.6875000000000524" vector-effect="non-scaling-stroke" opacity="1" fill="rgb(0,0,255)"/></g><g transform="translate(0, 280.25)"><text font-family="sans-serif" font-size="10" fill="rgb(68, 68, 68)" x="0" y="-3.6875000000000524">domTest</text><rect x="0" y="-1.8437500000000262" width="84.0840855071307" height="3.6875000000000524" vector-effect="non-scaling-stroke" opacity="1" fill="rgb(0,0,255)"/></g><g transform="translate(0, 295)"><text font-family="sans-serif" font-size="10" fill="rgb(68, 68, 68)" x="0" y="-3.6875000000000524">mathTest</text><rect x="0" y="-1.8437500000000262" width="28.994511886277976" height="3.6875000000000524" vector-effect="non-scaling-stroke" opacity="1" fill="rgb(0,0,255)"/></g><g transform="translate(0, 309.75)"><text font-family="sans-serif" font-size="10" fill="rgb(68, 68, 68)" x="0" y="-3.6875000000000524">stringTest</text><rect x="0" y="-1.8437500000000262" width="69.5868278357841" height="3.6875000000000524" vector-effect="non-scaling-stroke" opacity="1" fill="rgb(0,0,255)"/></g><g transform="translate(0, 324.5)"><text font-family="sans-serif" font-size="10" fill="rgb(68, 68, 68)" x="0" y="-3.6875000000000524">Bubbles</text><rect x="0" y="-1.8437500000000262" width="383.88" height="3.6875000000000524" vector-effect="non-scaling-stroke" opacity="1" fill="rgb(255,0,0)"/></g><g transform="translate(0, 339.25)"><text font-family="sans-serif" font-size="10" fill="rgb(68, 68, 68)" x="0" y="-3.6875000000000524">FPS</text><rect x="0" y="-1.8437500000000262" width="383.824" height="3.6875000000000524" vector-effect="non-scaling-stroke" opacity="1" fill="rgb(0,0,255)"/></g><g transform="translate(0, 354)"><text font-family="sans-serif" font-size="10" fill="rgb(68, 68, 68)" x="0" y="-3.6875000000000524">Boids</text><rect x="0" y="-1.8437500000000262" width="239.45263999999997" height="3.6875000000000524" vector-effect="non-scaling-stroke" opacity="1" fill="rgb(255,0,0)"/></g><g transform="translate(0, 368.75)"><text font-family="sans-serif" font-size="10" fill="rgb(68, 68, 68)" x="0" y="-3.6875000000000524">FPS</text><rect x="0" y="-1.8437500000000262" width="239.45263999999997" height="3.6875000000000524" vector-effect="non-scaling-stroke" opacity="1" fill="rgb(0,0,255)"/></g><g transform="translate(0, 383.5)"><text font-family="sans-serif" font-size="10" fill="rgb(68, 68, 68)" x="0" y="-3.6875000000000524">Balls3D</text><rect x="0" y="-1.8437500000000262" width="444.05760000000004" height="3.6875000000000524" vector-effect="non-scaling-stroke" opacity="1" fill="rgb(255,0,0)"/></g><g transform="translate(0, 398.25)"><text font-family="sans-serif" font-size="10" fill="rgb(68, 68, 68)" x="0" y="-3.6875000000000524">FPS</text><rect x="0" y="-1.8437500000000262" width="444.08" height="3.6875000000000524" vector-effect="non-scaling-stroke" opacity="1" fill="rgb(0,0,255)"/></g><g transform="translate(0, 413)"><text font-family="sans-serif" font-size="10" fill="rgb(68, 68, 68)" x="0" y="-3.6875000000000524">Wave3D</text><rect x="0" y="-1.8437500000000262" width="322.6832" height="3.6875000000000524" vector-effect="non-scaling-stroke" opacity="1" fill="rgb(255,0,0)"/></g><g transform="translate(0, 427.75)"><text font-family="sans-serif" font-size="10" fill="rgb(68, 68, 68)" x="0" y="-3.6875000000000524">FPS</text><rect x="0" y="-1.8437500000000262" width="322.6832" height="3.6875000000000524" vector-effect="non-scaling-stroke" opacity="1" fill="rgb(0,0,255)"/></g><g transform="translate(0, 442.5)"><text font-family="sans-serif" font-size="10" fill="rgb(68, 68, 68)" x="0" y="-3.6875000000000524">WLJS Interpreter</text><rect x="0" y="-1.8437500000000262" width="253.22179380123143" height="3.6875000000000524" vector-effect="non-scaling-stroke" opacity="1" fill="rgb(255,0,0)"/></g><g transform="translate(0, 457.25)"><text font-family="sans-serif" font-size="10" fill="rgb(68, 68, 68)" x="0" y="-3.6875000000000524">Calc</text><rect x="0" y="-1.8437500000000262" width="234.45730807265625" height="3.6875000000000524" vector-effect="non-scaling-stroke" opacity="1" fill="rgb(0,0,255)"/></g><g transform="translate(0, 472)"><text font-family="sans-serif" font-size="10" fill="rgb(68, 68, 68)" x="0" y="-3.6875000000000524">parseAndCalc</text><rect x="0" y="-1.8437500000000262" width="253.22179380123143" height="3.6875000000000524" vector-effect="non-scaling-stroke" opacity="1" fill="rgb(0,0,255)"/></g><g transform="translate(0, 486.75)"><text font-family="sans-serif" font-size="10" fill="rgb(68, 68, 68)" x="0" y="-3.6875000000000524">parseArray</text><rect x="0" y="-1.8437500000000262" width="31.639396743257198" height="3.6875000000000524" vector-effect="non-scaling-stroke" opacity="1" fill="rgb(0,0,255)"/></g><g transform="translate(0, 501.5)"><text font-family="sans-serif" font-size="10" fill="rgb(68, 68, 68)" x="0" y="-3.6875000000000524">parseNumericArray</text><rect x="0" y="-1.8437500000000262" width="231.21096347957422" height="3.6875000000000524" vector-effect="non-scaling-stroke" opacity="1" fill="rgb(0,0,255)"/></g><g transform="translate(0, 516.25)"><text font-family="sans-serif" font-size="10" fill="rgb(68, 68, 68)" x="0" y="-3.6875000000000524">Sockets</text><rect x="0" y="-1.8437500000000262" width="200.55459587651757" height="3.6875000000000524" vector-effect="non-scaling-stroke" opacity="1" fill="rgb(255,0,0)"/></g><g transform="translate(0, 531)"><text font-family="sans-serif" font-size="10" fill="rgb(68, 68, 68)" x="0" y="-3.6875000000000524">HTTPDownload</text><rect x="0" y="-1.8437500000000262" width="200.55459587651754" height="3.6875000000000524" vector-effect="non-scaling-stroke" opacity="1" fill="rgb(0,0,255)"/></g><g transform="translate(0, 545.75)"><text font-family="sans-serif" font-size="10" fill="rgb(68, 68, 68)" x="0" y="-3.6875000000000524">RoundTrip</text><rect x="0" y="-1.8437500000000262" width="112.24108675646349" height="3.6875000000000524" vector-effect="non-scaling-stroke" opacity="1" fill="rgb(0,0,255)"/></g><g transform="translate(0, 560.5)"><text font-family="sans-serif" font-size="10" fill="rgb(68, 68, 68)" x="0" y="-3.6875000000000524">WebsocketsReadJSON</text><rect x="0" y="-1.8437500000000262" width="6.998594302561835" height="3.6875000000000524" vector-effect="non-scaling-stroke" opacity="1" fill="rgb(0,0,255)"/></g><g transform="translate(0, 575.25)"><text font-family="sans-serif" font-size="10" fill="rgb(68, 68, 68)" x="0" y="-3.6875000000000524">WebsocketsSendJSON</text><rect x="0" y="-1.8437500000000262" width="93.67716731200609" height="3.6875000000000524" vector-effect="non-scaling-stroke" opacity="1" fill="rgb(0,0,255)"/></g></g><g transform="translate(0,590)" fill="rgb(68, 68, 68)" font-size="10" font-family="sans-serif" text-anchor="middle"><path class="domain" stroke="currentColor" d="M0,0H560"/><g class="tick" opacity="1" transform="translate(0,0)"><line stroke="currentColor" y2="5"/><text fill="currentColor" y="8" dy="0.71em">0</text></g><g class="tick" opacity="1" transform="translate(56,0)"><line stroke="currentColor" y2="5"/><text fill="currentColor" y="8" dy="0.71em">5</text></g><g class="tick" opacity="1" transform="translate(112,0)"><line stroke="currentColor" y2="5"/><text fill="currentColor" y="8" dy="0.71em">10</text></g><g class="tick" opacity="1" transform="translate(168,0)"><line stroke="currentColor" y2="5"/><text fill="currentColor" y="8" dy="0.71em">15</text></g><g class="tick" opacity="1" transform="translate(224,0)"><line stroke="currentColor" y2="5"/><text fill="currentColor" y="8" dy="0.71em">20</text></g><g class="tick" opacity="1" transform="translate(280,0)"><line stroke="currentColor" y2="5"/><text fill="currentColor" y="8" dy="0.71em">25</text></g><g class="tick" opacity="1" transform="translate(336,0)"><line stroke="currentColor" y2="5"/><text fill="currentColor" y="8" dy="0.71em">30</text></g><g class="tick" opacity="1" transform="translate(392,0)"><line stroke="currentColor" y2="5"/><text fill="currentColor" y="8" dy="0.71em">35</text></g><g class="tick" opacity="1" transform="translate(448,0)"><line stroke="currentColor" y2="5"/><text fill="currentColor" y="8" dy="0.71em">40</text></g><g class="tick" opacity="1" transform="translate(504,0)"><line stroke="currentColor" y2="5"/><text fill="currentColor" y="8" dy="0.71em">45</text></g><g class="tick" opacity="1" transform="translate(560,0)"><line stroke="currentColor" y2="5"/><text fill="currentColor" y="8" dy="0.71em">50</text></g></g></g></svg>