<svg width="370" height="243.67257999999998" tabindex="0" xmlns="http://www.w3.org/2000/svg" xmlns:xlink="http://www.w3.org/1999/xlink"><g transform="translate(40,0)"><g><path class="line-0a4eeb3e-71d5-422a-ae86-dc2ee5a49ccd" vector-effect="non-scaling-stroke" fill="none" opacity="1" stroke="rgb(93,129,180)" stroke-width="1.5" d="M182.553,2.075L180.993,2.49L180.213,2.49L177.872,2.49L175.532,2.905L173.972,3.734L173.972,4.564L172.411,4.979L170.851,5.394L170.071,5.809L170.071,6.224L170.071,7.469L171.631,8.714L174.752,9.129L178.652,9.129L181.773,8.299L183.333,7.054L183.333,6.224L182.553,6.224L180.213,6.224L177.872,7.054L177.092,8.299L176.312,9.959L174.752,11.203L173.191,12.033L171.631,12.033L170.071,12.033L168.511,12.033L168.511,12.448L169.291,13.693L170.071,15.768L170.071,17.842L171.631,19.087L173.191,20.332L174.752,21.577L175.532,21.992L176.312,22.407L176.312,23.651L175.532,24.896L175.532,25.726L176.312,26.556L177.872,27.386L180.213,28.216L183.333,28.216L185.674,27.801L187.234,28.216L187.234,28.631L186.454,29.046L184.113,29.461L181.773,30.705L180.213,31.95L178.652,32.365L176.312,31.95L173.972,31.535L170.851,31.12L168.511,30.705L167.731,31.12L167.731,32.365L169.291,34.44L170.851,36.1L172.411,36.93L173.191,36.93L174.752,36.93L176.312,36.93L178.652,36.515L180.993,36.93L183.333,38.174L184.113,39.004L183.333,39.004L181.773,39.834L178.652,40.249L175.532,40.664L172.411,40.664L170.071,40.664L167.731,39.834L165.39,39.004L163.05,37.344L160.709,36.515L157.589,36.1L156.028,36.515L154.468,36.93L152.908,38.174L151.348,38.589L149.787,39.004L147.447,39.419L146.667,39.834L145.887,40.249L146.667,41.079L147.447,42.324L147.447,43.154L146.667,43.569L145.106,43.569L141.986,43.983L138.865,43.569L136.525,43.569L133.404,43.569L131.844,43.154L131.844,42.324L132.624,41.494L133.404,39.834L135.745,38.174L138.085,36.93L140.426,36.1L143.546,35.27L146.667,34.44L149.787,34.44L152.128,34.025L153.688,32.78L155.248,32.365L157.589,32.78L159.929,33.195L162.27,33.61L163.83,34.025L165.39,33.61L166.95,33.195L168.511,31.95L169.291,30.705L170.071,29.461L170.851,28.631L170.851,26.971L169.291,25.726L167.731,25.311L166.17,25.311L164.61,25.726L162.27,26.556L160.709,27.801L159.149,28.216L157.589,29.046L154.468,29.876L151.348,30.705L149.007,31.535L146.667,33.195L144.326,34.44L142.766,35.685L141.986,37.344L139.645,39.004L138.865,40.664L139.645,42.739L141.206,44.398L141.986,46.058L142.766,46.888L142.766,47.718L141.206,48.548L138.085,48.963L136.525,48.963L135.745,48.963L134.184,48.548L132.624,47.303L131.064,46.888L129.504,46.473L127.943,46.888L127.163,47.718L126.383,48.548L126.383,49.378L125.603,50.622L124.043,51.452L122.482,52.282L121.702,53.942L121.702,55.187L121.702,55.602L123.262,56.432L124.043,57.262L124.043,57.676L123.262,58.506L123.262,60.166L122.482,61.826L121.702,63.486L122.482,65.145L122.482,65.975L120.922,66.39L120.142,65.975L120.922,64.73L121.702,63.071L124.043,62.241L127.943,61.411L131.844,60.996L134.184,61.411L135.745,62.656L135.745,63.486L134.965,63.901L132.624,63.901L131.064,63.901L129.504,63.901L129.504,64.315L129.504,65.56L130.284,67.635L131.844,69.295L133.404,70.125L134.184,70.125L135.745,69.71L138.085,69.295L139.645,69.295L141.986,69.295L145.106,69.295L147.447,69.71L148.227,70.125L149.007,70.54L149.007,71.784L147.447,73.029L145.106,73.444L143.546,73.029L142.766,71.784L142.766,70.125L142.766,68.465L142.766,67.22L142.766,65.975L142.766,64.73L141.986,63.901L142.766,63.486L144.326,63.486L146.667,63.486L148.227,64.315L150.567,64.73L152.908,64.73L155.248,63.901L157.589,63.486L160.709,63.071L163.05,63.071L164.61,63.901L166.95,65.56L169.291,67.635L170.071,69.295L171.631,70.954L172.411,72.199L173.191,73.444L172.411,74.274L171.631,74.689L170.071,74.274L168.511,74.274L166.17,74.274L163.83,74.274L162.27,75.104L160.709,76.764L159.149,77.593L156.809,77.593L155.248,77.179L153.688,75.934L152.908,74.689L152.908,74.274L154.468,73.859L156.028,73.444L156.809,73.444L156.809,72.614L156.809,70.954L156.809,70.125L156.809,69.295L157.589,68.05L159.149,66.805L160.709,66.39L161.489,65.975L162.27,66.39L163.05,67.635L163.83,68.88L165.39,69.295L167.731,69.71L170.071,69.295L171.631,68.05L173.191,67.22L173.191,66.39L172.411,64.73L172.411,63.071L173.191,61.411L173.972,60.166L176.312,59.336L178.652,59.336L180.993,59.336L183.333,59.336L184.894,58.506L184.894,57.262L184.894,55.187L183.333,53.112L181.773,51.867L179.433,50.622L177.872,49.378L175.532,48.548L173.191,48.548L171.631,48.548L171.631,49.378L170.851,50.622L170.851,52.282L170.851,53.112L169.291,53.112L166.17,53.112L164.61,53.527L163.83,53.942L163.83,54.357L163.83,54.772L163.83,54.357L162.27,53.527L159.929,51.867L157.589,50.208L156.809,49.378L156.809,48.548L158.369,48.133L160.709,48.548L163.83,48.963L166.95,49.378L170.851,50.622L174.752,51.867L177.872,53.112L179.433,54.357L180.213,55.602L179.433,56.017L177.092,56.432L174.752,56.847L172.411,57.676L170.071,58.506L167.731,59.336L166.17,59.336L163.83,58.506L161.489,57.262L159.149,56.017L158.369,55.602L157.589,56.017L156.809,57.262L156.809,59.336L156.028,60.581L155.248,60.996L153.688,60.581L152.128,59.336L151.348,57.262L151.348,55.187L150.567,53.112L149.787,51.867L149.787,51.452L148.227,51.867L146.667,53.112L145.887,55.187L145.887,56.432L146.667,56.847L149.007,57.262L150.567,57.676L150.567,58.091L149.787,58.506L147.447,59.336L144.326,59.336L141.206,58.506L138.085,56.847L134.965,56.017L133.404,55.602L132.624,56.017L131.844,56.847L132.624,57.676L133.404,57.676L132.624,56.847L131.844,55.187L132.624,53.942L133.404,53.527L135.745,53.112L138.085,53.112L139.645,53.112L141.206,52.697L142.766,51.452L144.326,50.208L147.447,48.548L149.787,47.303L152.128,45.643L154.468,44.813L156.028,43.983L156.028,43.154L157.589,41.909L159.149,41.494L159.929,40.249L159.929,39.834L161.489,40.249L163.05,41.079L163.83,41.909L163.83,43.569L164.61,44.398L165.39,45.228L166.17,45.643L167.731,45.228L170.071,44.813L173.191,44.813L175.532,43.983L177.092,43.154L178.652,43.154L180.993,43.154L183.333,43.569L184.894,44.398L186.454,46.058L186.454,47.303L184.894,47.718L183.333,47.718L182.553,47.303L182.553,46.058L184.113,45.228L186.454,44.398L188.014,43.154L190.355,42.739L192.695,42.324L194.255,41.079L195.035,40.664L195.816,40.249L195.816,39.004L194.255,37.759L192.695,37.344L191.915,36.93L190.355,36.515L188.014,36.1L187.234,36.1L186.454,35.27L186.454,34.025L187.234,32.78L189.574,31.95L191.915,31.535L194.255,31.95L196.596,31.95L199.716,32.78L202.837,33.195L205.177,32.78L206.738,32.365L208.298,32.78L209.078,33.195L208.298,34.025L206.738,34.855L205.957,35.685L204.397,36.515L202.057,36.515L199.716,36.1L198.156,35.685L197.376,34.44L197.376,32.78L198.936,31.12L201.277,30.291L204.397,29.461L206.738,28.631L207.518,27.801L206.738,27.386L205.177,26.141L202.837,24.896L199.716,23.651L196.596,21.992L193.475,20.332L190.355,18.672L186.454,17.012L183.333,16.183L181.773,15.353L180.993,14.108L180.993,12.863L182.553,12.448L184.894,11.203L186.454,10.788L187.234,10.373L188.794,9.959L189.574,8.714L190.355,7.469L191.915,6.224L194.255,5.809L196.596,6.224L198.936,6.639L201.277,7.884L203.617,8.714L205.177,8.714L205.177,7.884L204.397,7.054L202.057,5.394L198.936,3.32L197.376,2.075L197.376,1.245L198.156,1.245L200.496,2.075L202.837,2.905L205.177,3.32L206.738,4.149L208.298,4.979L209.858,4.979L211.418,5.809L212.979,7.054L215.319,7.884L216.879,7.884L216.879,8.714L216.879,9.544L215.319,9.959L213.759,10.788L212.979,12.448L212.199,13.278L210.638,13.278L209.078,13.693L207.518,14.108L205.957,14.523L205.177,15.768L205.957,17.842L206.738,19.917L205.957,21.162L205.177,21.577L203.617,21.162L201.277,20.747L198.936,19.502L197.376,18.257L195.035,17.012L194.255,15.768L193.475,13.693L194.255,12.448L195.035,12.033L197.376,12.448L198.936,13.693L199.716,14.938L198.936,15.353L197.376,15.768L194.255,15.353L191.135,14.938L188.014,15.353L184.894,16.183L181.773,16.183L179.433,17.012L177.872,17.842L177.872,18.257L178.652,19.087L180.993,19.917L184.113,20.747L185.674,21.577L185.674,22.822L186.454,23.651L185.674,24.481L184.894,24.481L185.674,23.651L188.014,22.822L188.794,22.407L191.135,22.407L192.695,23.237L193.475,24.896L194.255,26.141L196.596,26.971L197.376,27.386L198.936,26.971L201.277,25.726L203.617,24.066L205.957,22.822L208.298,22.407L210.638,22.822L212.199,23.237L213.759,24.481L215.319,24.896L216.879,24.896L218.44,24.896L220.78,25.726L223.121,26.141L223.901,26.556L226.241,26.556L228.582,26.556L230.142,25.726L231.702,25.311L234.043,25.726L236.383,26.971L238.723,27.386L241.844,28.631L244.965,29.046L248.085,28.631L249.645,27.801L250.426,26.971L249.645,25.311L247.305,23.651L245.745,22.407L244.184,20.747L242.624,19.087L241.844,17.427L242.624,16.183L242.624,15.353L243.404,15.353L244.965,15.768L247.305,17.012L248.085,18.257L248.865,19.502L250.426,20.332L251.206,21.577L251.986,22.407L253.546,22.822L255.887,22.822L256.667,22.407L257.447,21.162L256.667,19.502L255.887,18.672L253.546,17.427L252.766,16.183L251.206,15.353L249.645,14.523L248.865,13.278L249.645,12.448L250.426,12.033L252.766,11.618L255.887,12.033L259.007,12.863L261.348,14.108L263.688,15.353L265.248,17.012L267.589,18.257L269.149,18.672L271.489,18.257L272.27,17.427L272.27,16.598L272.27,15.768L271.489,14.938L269.149,14.523L266.809,14.938L264.468,14.523L261.348,14.523L259.787,15.353L259.007,16.598L259.787,17.427L261.348,19.087L262.908,20.747L264.468,21.992L266.028,22.407L267.589,22.822L269.929,22.822L271.489,22.822L272.27,23.237L273.83,24.481L273.83,25.726L273.05,27.386L273.83,29.046L275.39,30.705L275.39,32.365L276.95,34.44L277.731,36.515L278.511,38.174L279.291,39.834L280.851,41.494L280.851,43.154L280.851,43.983L280.851,44.398L280.851,43.983L281.631,43.569L283.972,42.739L287.092,41.909L290.213,41.909L291.773,42.739L293.333,43.154L294.894,43.983L295.674,45.228L295.674,46.473L295.674,47.303L294.894,47.718L292.553,47.303L290.213,47.303L287.092,46.473L283.972,46.058L280.071,46.473L276.95,47.718L273.83,48.548L270.709,49.378L267.589,49.793L264.468,49.378L261.348,48.963L259.787,48.133L259.787,47.718L260.567,46.888L262.908,46.058L265.248,44.398L266.028,43.569L266.028,42.324L265.248,41.909L263.688,42.324L261.348,43.154L259.787,43.154L257.447,43.154L255.106,42.324L252.766,40.664L251.986,39.419L251.206,38.174L251.986,37.344L253.546,36.515L255.887,35.685L256.667,34.025L257.447,32.365L256.667,31.12L255.887,30.705L253.546,30.705L251.986,31.535L251.206,32.78L251.986,33.195L253.546,33.61L255.887,34.44L259.007,35.27L262.128,35.685L265.248,36.93L266.809,37.759L267.589,37.759L266.809,37.759L265.248,38.589L262.128,38.589L259.787,39.004L257.447,40.249L255.887,41.494L254.326,42.739L253.546,44.813L251.986,46.473L251.206,48.133L251.206,49.793L251.986,51.037L251.986,52.282L253.546,53.527L254.326,54.772L255.106,56.017L254.326,57.262L255.106,58.506L255.887,60.166L256.667,61.411L257.447,62.656L258.227,64.315L257.447,65.145L256.667,65.56L255.887,66.39L255.106,67.22L255.106,68.05L255.887,69.71L256.667,70.954L258.227,71.369L259.007,70.954L260.567,70.125L262.128,68.465L263.688,66.805L266.028,65.56L267.589,65.145L268.369,65.145L268.369,65.975L267.589,67.635L265.248,69.71L263.688,71.784L262.908,73.859L262.128,75.519L262.128,76.349L263.688,76.349L264.468,75.934L265.248,75.519L267.589,75.104L269.149,74.689L269.149,74.274L269.929,73.444L270.709,72.199L271.489,70.54L273.05,69.295L275.39,68.05L277.731,66.805L280.071,65.975L282.411,65.975L283.192,65.975L284.752,66.805L286.312,68.465L287.092,70.125L287.872,70.954L289.433,72.199L290.993,72.614L293.333,73.029L295.674,73.444L298.014,74.689L301.135,75.934L303.475,78.008L304.255,79.668L305.035,80.498L304.255,80.498L301.915,80.083L300.355,79.668L299.574,79.668L298.794,80.498L298.014,81.328L298.014,81.743L296.454,81.328L294.894,80.083L294.113,78.423L294.113,76.764L294.894,75.104L297.234,73.444L299.574,71.784L301.915,69.71L303.475,67.635L303.475,66.39L301.915,65.975L299.574,65.975L296.454,66.805L294.894,68.05L294.894,68.88L295.674,68.88L296.454,68.465L297.234,67.22L296.454,65.56L294.113,63.486L290.993,62.241L288.652,60.996L287.092,60.581L286.312,60.996L287.092,62.241L288.652,62.656L289.433,63.901L288.652,64.315L287.092,63.901L283.972,62.656L281.631,61.826L280.071,60.166L279.291,58.506L280.071,57.676L282.411,56.847L284.752,56.432L287.092,56.847L290.213,57.676L292.553,58.506L294.894,59.336L295.674,59.336L296.454,58.506L297.234,58.091L298.014,56.847L298.794,55.602L301.135,55.187L303.475,54.772L305.816,54.357L308.156,54.772L309.716,56.017L309.716,56.432L308.936,56.847L307.376,57.262L306.596,57.676L306.596,58.091L308.156,59.336L309.716,60.996L310.496,61.826L309.716,61.826L308.156,61.826L305.035,61.411L302.695,61.411L301.915,62.241L302.695,63.071L304.255,63.901L307.376,65.145L310.496,65.56L312.057,65.975L312.837,67.22L312.057,67.635L310.496,68.05L308.936,69.295L307.376,70.125L306.596,70.954L305.816,72.614L305.035,73.444L305.035,74.274L306.596,74.689L307.376,74.274L309.716,73.444L312.057,72.614L314.397,71.784L315.957,71.784L317.518,72.614L317.518,73.029L316.738,74.274L314.397,75.519L312.837,76.764L311.277,78.008L311.277,80.083L312.057,82.158L314.397,83.403L315.957,83.818L317.518,83.403L318.298,82.158L318.298,80.083L317.518,78.838L315.957,78.008L315.177,78.008L314.397,78.838L313.617,80.498L312.057,81.743L310.496,82.988L308.936,84.233L308.156,85.477L308.936,86.722L311.277,87.552L315.177,88.797L318.298,90.042L319.858,91.286L320.638,91.701L319.858,92.531L319.078,92.531L319.078,91.701L319.078,90.042L318.298,89.212L317.518,87.967L315.177,87.552L312.837,87.967L310.496,88.797L308.156,89.627L305.816,91.286L304.255,92.116L301.135,92.946L298.794,94.191L296.454,94.606L294.113,94.191L290.993,94.191L289.433,93.361L287.092,92.116L284.752,90.872L282.411,90.042L280.851,89.627L279.291,89.627L279.291,89.212L280.851,89.212L283.972,89.627L287.872,90.042L291.773,90.042L295.674,90.457L298.794,90.457L301.135,89.627L301.915,88.382L301.915,87.967L300.355,87.137L298.794,86.307L296.454,85.477L294.894,84.233L292.553,82.158L290.993,80.913L288.652,80.498L287.092,80.083L285.532,79.668L285.532,79.253L284.752,78.008L284.752,75.934L284.752,73.859L283.972,72.614L282.411,71.369L280.851,70.954L280.071,71.369L279.291,72.614L280.071,73.444L280.071,75.104L280.071,76.349L280.071,77.593L279.291,78.423L278.511,79.668L278.511,80.913L278.511,81.743L276.95,82.573L275.39,82.988L272.27,83.403L269.149,82.988L267.589,82.573L266.809,81.328L266.028,80.913L265.248,80.498L264.468,80.083L262.128,80.083L259.007,80.913L256.667,81.743L255.887,82.573L255.106,84.233L255.887,85.477L257.447,86.722L259.787,87.137L262.128,87.137L264.468,86.307L266.809,86.307L269.149,86.307L269.929,86.722L269.929,87.552L269.149,88.382L267.589,89.212L266.028,90.042L264.468,90.457L262.908,90.872L261.348,91.701L259.007,91.701L257.447,91.286L255.887,90.872L253.546,90.042L251.206,89.627L249.645,90.042L247.305,90.872L244.965,91.701L243.404,92.116L241.844,91.701L241.064,90.457L240.284,89.212L239.504,88.797L237.943,88.797L236.383,89.627L234.043,91.286L232.482,92.116L230.922,92.116L230.142,91.701L229.362,91.286L228.582,90.872L227.021,91.286L225.461,92.531L223.121,94.606L220.78,96.266L219.22,97.925L218.44,99.17L219.22,99.585L220.78,99.17L222.34,98.34L222.34,96.681L220.78,95.021L218.44,93.361L215.319,91.701L212.979,90.042L211.418,88.382L209.858,86.307L208.298,84.233L208.298,82.988L209.078,82.158L210.638,82.158L212.199,82.573L213.759,83.818L214.539,85.062L215.319,86.307L215.319,87.552L216.879,88.382L217.66,88.382L219.22,87.552L219.22,86.307L218.44,84.233L217.66,82.573L216.879,80.913L214.539,79.253L212.199,77.593L209.858,76.764L205.957,75.519L202.837,75.104L200.496,75.519L199.716,76.764L199.716,77.179L201.277,78.008L203.617,78.838L205.957,78.838L206.738,78.008L208.298,77.179L209.858,76.764L211.418,76.349L213.759,76.764L216.879,78.008L220,79.668L223.121,80.913L226.241,81.328L228.582,80.913L230.142,79.668L231.702,78.008L233.262,76.349L234.043,74.689L234.043,73.029L234.043,72.199L234.043,71.784L232.482,71.784L230.142,72.199L228.582,73.444L227.801,74.689L225.461,75.934L224.681,77.179L225.461,78.008L226.241,78.838L227.801,79.668L230.142,80.913L231.702,82.158L232.482,84.233L232.482,85.477L231.702,85.892L230.142,85.892L227.801,85.892L226.241,85.477L225.461,85.892L223.901,87.137L223.121,88.797L222.34,90.457L220.78,92.531L220,94.606L220.78,96.681L220.78,98.755L220.78,100.415L220.78,102.075L220.78,103.735L220.78,105.394L220.78,106.639L220.78,108.299L221.56,109.959L220.78,111.204L218.44,112.448L216.879,113.278L216.879,114.108L216.879,114.938L218.44,116.183L220.78,117.428L223.901,119.502L225.461,121.577L225.461,123.652L223.901,125.726L222.34,126.971L220,127.386L219.22,127.386L219.22,126.556L219.22,125.311L218.44,124.896L216.879,125.311L214.539,125.311L212.979,126.141L211.418,127.386L210.638,128.631L209.858,129.461L209.078,130.291L206.738,130.706L205.177,130.291L204.397,129.461L204.397,128.216L205.177,126.971L206.738,125.311L209.078,124.482L210.638,123.237L212.199,121.992L213.759,121.577L216.099,121.162L217.66,120.747L220,121.162L223.121,122.407L225.461,123.652L226.241,125.311L226.241,126.971L226.241,128.216L226.241,129.461L225.461,130.706L226.241,132.365L227.801,134.025L229.362,135.27L230.922,136.515L234.043,136.93L236.383,136.515L237.943,135.27L238.723,134.025L239.504,132.78L238.723,132.365L237.163,132.365L237.163,133.195L236.383,134.855L235.603,136.515L236.383,137.345L238.723,138.589L241.064,139.834L244.965,140.249L247.305,140.249L248.085,140.249L247.305,140.249L246.525,140.249L245.745,141.079L244.965,142.324L244.965,143.569L244.965,143.984L244.184,144.399L241.844,143.984L240.284,143.569L237.943,143.569L237.163,144.399L237.163,145.228L237.943,146.058L239.504,146.888L242.624,147.303L245.745,147.718L248.085,147.303L249.645,147.718L249.645,148.133L249.645,148.963L248.085,149.793L245.745,150.623L243.404,150.623L241.064,150.208L238.723,150.208L237.943,150.208L237.943,151.038L239.504,152.697L242.624,153.942L244.184,154.772L245.745,155.602L248.085,155.602L248.865,154.772L249.645,153.942L251.206,153.527L252.766,152.697L253.546,151.867L255.887,151.453L257.447,151.867L259.007,152.282L260.567,153.112L262.128,153.942L263.688,154.357L265.248,153.942L267.589,153.112L269.149,152.282L271.489,151.453L272.27,150.623L272.27,149.793L270.709,148.548L268.369,146.473L266.028,144.814L265.248,143.984L265.248,143.154L266.809,142.739L269.149,143.154L270.709,143.984L270.709,144.814L269.929,146.058L268.369,146.888L266.028,147.718L264.468,148.548L263.688,149.378L264.468,150.623L266.028,152.697L267.589,154.772L269.149,156.847L269.929,158.921L270.709,160.996L270.709,162.241L272.27,163.071L273.05,163.071L275.39,162.241L277.731,160.996L280.071,159.751L281.631,158.092L282.411,156.432L281.631,155.187L280.851,153.527L279.291,151.867L278.511,150.208L278.511,148.548L280.071,147.303L280.071,146.888L280.071,146.473L279.291,146.058L279.291,145.643L277.731,144.814L276.95,143.154L276.17,141.494L274.61,139.834L271.489,138.175L269.149,136.93L266.028,136.1L264.468,136.1L263.688,136.93L262.908,137.76L261.348,138.175L261.348,139.004L259.787,139.834L259.007,140.664L258.227,141.909L259.007,143.569L258.227,145.228L258.227,146.058L256.667,146.058L255.887,145.643L255.106,144.399L254.326,142.324L253.546,140.249L253.546,138.175L254.326,136.93L255.106,135.685L255.887,134.855L256.667,134.025L256.667,133.61L255.106,132.78L252.766,132.78L251.206,133.195L249.645,134.44L248.085,135.27L247.305,135.685L246.525,135.27L244.965,134.025L244.184,131.95L243.404,130.291L243.404,128.631L244.184,126.971L245.745,125.311L247.305,124.067L250.426,122.822L251.986,122.407L253.546,122.407L254.326,123.237L253.546,124.067L251.986,125.311L250.426,126.556L248.865,127.801L248.865,128.631L249.645,129.046L251.206,129.046L253.546,128.216L255.887,127.386L257.447,126.141L259.787,125.726L260.567,125.726L260.567,126.556L260.567,127.801L260.567,129.046L260.567,129.876L262.128,130.706L263.688,131.121L265.248,131.535L267.589,131.95L269.929,132.365L270.709,132.78L273.05,133.61L275.39,134.025L276.95,134.44L276.95,134.855L276.95,135.27L275.39,135.685L273.05,136.515L271.489,137.76L271.489,138.589L273.05,139.004L275.39,139.419L278.511,139.004L281.631,139.004L283.972,139.004L284.752,139.419L285.532,139.834L285.532,141.079L285.532,141.909L286.312,143.569L287.092,144.814L287.872,146.058L289.433,147.303L290.213,148.963L290.993,150.623L293.333,152.282L294.894,153.112L295.674,153.112L295.674,152.282L295.674,151.038L294.894,149.378L294.894,147.718L294.113,146.473L293.333,145.228L292.553,143.569L291.773,142.739L291.773,142.324L292.553,141.494L293.333,140.664L294.113,140.249L296.454,139.419L298.014,138.175L299.574,136.93L301.135,135.685L302.695,134.44L301.915,133.61L300.355,132.78L298.014,132.365L296.454,132.78L294.113,133.61L291.773,133.61L290.213,134.44L288.652,135.27L287.092,135.27L286.312,134.44L285.532,134.025L285.532,132.78L286.312,131.121L287.872,130.291L288.652,129.461L290.993,129.046L293.333,129.046L295.674,129.046L297.234,128.216L298.014,128.216L297.234,127.386L294.894,126.141L291.773,124.896L288.652,123.652L287.092,121.992L286.312,121.162L287.092,120.332L287.872,119.502L288.652,118.672L288.652,117.428L287.872,116.183L285.532,115.768L284.752,115.768L283.192,115.768L281.631,115.768L280.071,115.353L279.291,114.108L278.511,112.448L279.291,111.618L280.071,111.618L282.411,111.204L283.972,110.789L283.972,111.204L282.411,110.789L281.631,109.544L280.851,108.714L280.851,107.884L282.411,106.224L285.532,105.394L287.872,104.564L288.652,104.15L288.652,103.735L287.092,103.735L284.752,103.735L281.631,104.15L279.291,104.564L276.95,105.809L275.39,107.469L273.05,108.714L270.709,110.374L269.149,112.033L267.589,113.278L266.809,114.523L267.589,116.183L268.369,117.843L267.589,119.502L267.589,120.747L267.589,121.992L267.589,123.237L267.589,124.067L268.369,124.896L268.369,126.141L268.369,127.386L268.369,127.801L269.929,127.801L272.27,127.801L274.61,127.801L275.39,127.801L276.17,128.216L276.95,129.461L277.731,129.876L278.511,130.291L280.851,129.876L281.631,129.046L281.631,127.386L281.631,126.556L282.411,125.311L283.192,124.896L285.532,124.482L287.872,124.067L290.213,123.652L292.553,124.067L294.894,123.652L296.454,123.237L297.234,123.237L297.234,122.407L296.454,120.747L294.894,119.087L294.113,117.428L294.113,116.183L294.894,114.938L297.234,113.693L299.574,112.448L301.915,111.204L304.255,109.959L305.035,108.714L304.255,108.299L303.475,107.884L301.135,107.469L298.794,107.054L296.454,107.054L295.674,107.054L294.113,107.469L292.553,107.884L290.993,108.299L290.993,109.129L290.213,109.959L290.993,110.374L293.333,111.204L296.454,112.033L299.574,112.033L303.475,112.033L306.596,112.863L309.716,114.108L312.057,114.523L313.617,114.938L315.177,114.523L315.957,113.278L315.957,112.033L316.738,111.618L318.298,111.618L319.078,112.448L319.858,113.693L320.638,114.938L319.858,116.183L319.078,117.843L319.078,118.672L319.858,119.087L319.858,119.502L321.418,119.917L321.418,120.332L321.418,121.162L321.418,122.822L322.199,124.482L322.979,125.726L324.539,126.971L325.319,128.631L324.539,131.121L322.979,132.78L320.638,134.025L317.518,134.44L315.177,134.44L313.617,132.78L313.617,131.535L312.837,130.291L312.057,129.046L311.277,127.801L310.496,126.556L309.716,125.311L308.936,124.067L308.936,122.822L308.936,121.992L310.496,121.577L310.496,120.747L311.277,119.917L311.277,119.502L309.716,118.257L306.596,117.013L303.475,116.598L301.135,116.598L299.574,117.013L299.574,117.843L300.355,118.257L302.695,117.843L304.255,117.013L306.596,115.353L308.156,113.278L309.716,111.204L310.496,109.129L312.057,107.054L313.617,105.809L314.397,104.979L315.177,104.979L316.738,105.809L318.298,107.469L319.078,108.299L320.638,108.714L321.418,108.714L322.199,107.884L322.199,106.224L322.199,104.564L321.418,103.735L320.638,102.49L319.858,101.245L319.078,100.83L319.078,100.415L319.858,99.17L321.418,97.925L321.418,97.511L320.638,97.096L318.298,96.681L315.177,96.266L311.277,96.266L308.936,95.436L308.156,94.191L308.936,93.776L310.496,94.191L312.057,94.191L312.057,95.021L312.057,96.266L311.277,97.511L309.716,98.755L309.716,100.415L309.716,102.075L308.156,103.32L305.816,104.15L304.255,104.15L302.695,103.735L301.135,102.49L300.355,100.83L301.135,99.17L301.915,98.34L302.695,97.925L304.255,98.34L305.035,99.585L304.255,100.415L302.695,100.415L299.574,100L295.674,99.585L293.333,99.17L292.553,99.585L292.553,100L292.553,100.415L292.553,100.83L290.993,100.83L287.872,100L283.972,99.17L280.851,99.17L279.291,99.17L277.731,99.17L276.95,100L276.17,101.245L275.39,102.49L273.83,103.735L272.27,104.979L269.929,105.394L268.369,105.394L266.028,104.564L262.908,103.735L260.567,102.49L259.787,102.075L259.007,102.49L258.227,103.735L257.447,104.15L257.447,104.979L255.887,104.979L254.326,104.15L254.326,102.49L254.326,100.83L252.766,98.755L251.986,96.681L251.206,94.606L248.865,92.531L248.085,90.457L247.305,88.797L245.745,87.137L243.404,86.307L241.844,85.477L239.504,84.647L237.943,83.403L237.163,82.158L236.383,80.083L236.383,78.423L237.163,77.179L237.943,76.764L239.504,76.764L242.624,77.593L244.184,78.423L245.745,79.668L246.525,80.913L245.745,81.743L244.184,81.743L244.184,82.158L244.184,82.573L245.745,82.988L248.865,83.403L252.766,84.233L255.106,84.233L255.887,83.403L255.106,81.743L253.546,80.083L250.426,78.008L247.305,75.934L245.745,74.274L244.184,73.444L243.404,73.444L244.184,73.444L246.525,74.274L248.085,75.519L251.206,76.349L253.546,76.349L254.326,76.349L253.546,75.519L253.546,73.859L252.766,72.614L251.206,71.369L250.426,70.125L249.645,69.71L247.305,69.295L244.965,68.88L242.624,68.88L239.504,68.88L236.383,68.465L234.823,68.05L234.043,67.635L234.823,66.805L237.163,66.805L240.284,66.39L243.404,66.39L245.745,65.56L248.085,65.145L249.645,63.901L250.426,62.656L250.426,60.996L249.645,60.166L248.865,59.751L247.305,59.751L246.525,60.581L244.965,61.411L244.184,62.241L241.844,62.241L240.284,62.656L238.723,63.071L237.163,63.486L234.823,63.071L232.482,63.486L230.142,63.071L228.582,61.826L228.582,61.411L228.582,61.826L229.362,62.241L229.362,63.486L229.362,65.56L227.801,67.22L227.021,68.88L225.461,70.125L224.681,71.369L222.34,72.614L221.56,73.859L220,74.274L219.22,74.274L219.22,73.444L219.22,72.199L218.44,70.54L219.22,68.88L220,68.05L220.78,67.22L221.56,65.975L221.56,65.56L220,65.145L218.44,64.73L216.879,64.315L216.099,63.901L215.319,62.656L216.099,61.411L217.66,59.336L217.66,57.676L217.66,56.017L217.66,54.357L216.879,52.697L214.539,51.037L212.979,48.963L210.638,46.888L209.078,45.643L208.298,44.398L208.298,43.154L209.078,41.909L211.418,41.494L212.979,41.079L213.759,41.494L214.539,42.739L215.319,44.813L216.099,46.888L218.44,48.963L220.78,51.037L222.34,52.282L223.901,52.697L225.461,53.112L226.241,53.527L227.021,53.942L227.801,54.772L227.801,56.432L226.241,57.262L224.681,58.091L223.121,58.921L221.56,59.336L219.22,59.751L216.879,60.996L214.539,61.411L211.418,61.411L208.298,62.241L205.177,63.071L202.057,63.071L198.936,63.901L197.376,65.145L195.816,66.39L195.816,67.635L197.376,69.71L199.716,70.954L200.496,71.784L202.057,71.784L203.617,70.954L203.617,69.295L202.837,68.465L203.617,68.05L205.177,68.465L206.738,69.71L209.078,70.954L210.638,71.369L212.199,70.954L212.979,70.54L212.199,69.295L211.418,68.05L210.638,67.22L209.078,66.39L206.738,64.73L205.177,63.071L202.837,61.826L200.496,60.166L198.936,58.921L198.936,58.091L198.156,57.262L198.936,56.017L200.496,54.772L202.057,53.942L203.617,52.697L205.957,51.452L206.738,50.208L207.518,49.793L207.518,49.378L205.957,48.963L203.617,48.548L201.277,48.963L198.936,48.548L195.816,48.133L192.695,48.548L190.355,49.793L189.574,51.037L188.794,52.282L188.794,52.697L190.355,52.697L191.915,52.697L193.475,51.867L195.035,51.037L197.376,50.208L198.936,48.963L199.716,46.888L198.936,45.643L198.936,44.813L198.936,43.983L198.936,43.154L200.496,42.324L202.837,41.494L205.177,40.249L207.518,39.004L209.858,37.759L212.199,37.344L214.539,36.93L215.319,37.344L216.099,38.589L216.879,40.664L217.66,42.739L219.22,44.813L221.56,46.058L223.901,46.888L226.241,46.888L227.021,46.058L226.241,44.398L225.461,43.569L224.681,43.154L223.121,43.154L221.56,43.983L221.56,45.643L220.78,47.303L218.44,48.963L216.099,50.622L214.539,52.282L212.979,53.942L212.199,54.772L211.418,55.602L210.638,56.847L210.638,57.676L209.078,57.676L207.518,57.676L205.957,57.262L204.397,56.017L201.277,55.187L198.156,55.187L195.816,56.017L195.035,57.262L195.035,59.336L195.035,60.581L195.035,60.996L194.255,61.411L192.695,61.826L190.355,61.411L188.794,61.826L187.234,62.656L184.894,62.656L181.773,62.241L179.433,62.656L177.872,63.071L177.092,63.071L177.872,63.901L180.213,65.145L182.553,65.56L183.333,65.975L184.113,67.22L183.333,67.635L181.773,68.05L180.213,69.295L180.213,70.54L180.993,71.784L182.553,73.029L183.333,73.444L184.894,73.444L186.454,73.444L187.234,72.614L187.234,71.784L188.794,71.369L189.574,70.54L189.574,68.88L190.355,68.05L192.695,68.05L193.475,68.465L194.255,69.71L194.255,71.784L194.255,73.444L193.475,75.104L192.695,76.349L192.695,77.593L193.475,78.838L192.695,79.668L191.135,80.083L189.574,80.083L188.014,79.668L185.674,78.423L183.333,77.179L181.773,76.349L180.993,76.349L178.652,76.764L177.092,78.008L175.532,80.083L173.191,82.158L170.071,83.403L167.731,84.647L164.61,85.892L162.27,87.137L161.489,87.552L160.709,87.967L159.929,87.552L159.149,86.722L158.369,85.892L156.028,85.062L154.468,84.233L153.688,83.818L152.908,82.988L151.348,81.328L149.787,79.668L147.447,78.008L144.326,76.764L141.206,75.934L138.865,75.104L136.525,75.104L134.965,75.104L132.624,75.104L131.064,74.689L129.504,74.274L128.723,73.029L127.943,71.784L127.163,70.54L126.383,70.125L125.603,70.54L124.823,71.784L124.823,73.859L126.383,75.934L127.943,77.179L130.284,78.008L132.624,78.838L134.965,79.668L137.305,80.498L140.426,81.328L141.986,82.158L142.766,82.158L142.766,81.328L142.766,80.498L141.986,79.668L142.766,79.253L145.106,78.838L148.227,79.253L151.348,79.668L155.248,80.083L158.369,80.498L161.489,80.913L163.83,80.498L164.61,79.668L165.39,78.838L166.95,78.008L168.511,77.593L170.851,78.008L174.752,78.838L177.872,79.668L179.433,80.498L180.993,81.743L182.553,82.158L184.113,82.158L185.674,82.988L188.794,83.403L191.135,83.818L191.915,84.647L191.135,85.062L189.574,85.477L187.234,86.307L185.674,86.722L184.894,86.722L185.674,87.552L188.014,87.967L191.135,87.552L193.475,87.552L195.035,88.382L195.035,89.212L193.475,90.457L191.135,91.701L188.014,92.116L186.454,92.116L186.454,91.701L188.014,91.286L188.794,91.701L191.135,92.946L192.695,93.776L194.255,94.606L195.035,94.606L197.376,94.606L199.716,94.606L202.837,94.606L205.957,95.021L209.078,95.436L210.638,95.021L211.418,93.776L210.638,92.946L209.078,91.286L206.738,89.627L204.397,87.967L202.837,86.722L201.277,85.062L199.716,83.403L199.716,82.573L201.277,82.573L202.057,82.988L202.837,84.233L202.837,86.307L202.837,87.967L202.837,89.627L202.057,90.872L202.837,92.116L205.177,93.361L206.738,95.021L207.518,96.681L208.298,97.925L207.518,98.34L205.177,98.755L202.837,99.17L201.277,99.585L200.496,100L201.277,100.83L202.057,100.83L202.057,100L200.496,99.17L198.156,98.34L194.255,97.925L190.355,97.511L186.454,97.511L182.553,97.096L179.433,97.511L177.872,97.511L177.872,97.925L178.652,98.755L180.993,100L184.113,100.415L186.454,101.245L187.234,101.66L187.234,102.075L185.674,102.49L184.113,103.735L182.553,104.979L180.993,106.224L179.433,107.054L178.652,107.054L176.312,106.639L174.752,105.394L173.191,104.564L171.631,103.735L169.291,102.905L168.511,102.075L167.731,101.66L168.511,101.245L170.851,100.83L173.972,101.245L177.092,102.075L180.213,102.905L182.553,104.15L184.894,104.979L187.234,105.809L189.574,106.639L191.915,107.469L193.475,107.469L195.035,107.469L197.376,107.469L198.936,106.639L198.936,106.224L198.936,105.809L198.156,105.394L197.376,104.564L195.816,103.735L194.255,102.075L192.695,100.415L190.355,98.755L186.454,96.681L182.553,95.436L180.213,94.606L179.433,93.776L178.652,92.946L177.872,92.116L177.092,90.872L175.532,90.042L172.411,89.627L170.851,90.042L170.071,91.286L170.851,92.116L171.631,92.116L173.972,91.701L174.752,90.457L176.312,88.382L177.092,87.137L177.092,85.892L175.532,84.647L174.752,83.403L172.411,82.988L170.071,82.573L169.291,82.988L168.511,84.233L166.95,86.307L166.17,88.382L165.39,90.457L164.61,91.701L164.61,92.946L166.17,94.191L167.731,95.436L168.511,96.266L168.511,97.096L167.731,97.925L165.39,97.925L163.83,97.511L162.27,97.511L159.929,97.511L158.369,96.681L157.589,95.851L156.809,95.436L156.809,94.191L156.809,92.946L156.028,91.701L156.028,90.872L154.468,90.042L152.128,90.042L151.348,90.457L151.348,91.701L149.787,92.946L149.787,94.191L151.348,95.436L152.908,97.096L155.248,98.755L158.369,100.83L161.489,102.49L164.61,104.15L166.95,105.809L169.291,107.054L171.631,108.299L173.972,109.544L175.532,109.959L177.872,110.374L178.652,111.204L180.213,111.618L181.773,111.618L183.333,111.618L184.894,111.204L188.014,110.789L189.574,110.374L190.355,110.789L191.915,111.618L193.475,112.448L195.035,112.448L198.156,112.448L200.496,111.618L202.837,110.789L204.397,109.544L205.957,108.299L207.518,107.469L209.858,107.469L210.638,107.054L210.638,106.639L209.858,106.224L209.078,105.394L209.078,103.735L209.858,102.905L211.418,102.905L213.759,103.735L215.319,104.979L215.319,107.054L214.539,108.299L213.759,109.544L211.418,110.789L209.858,111.618L209.078,112.448L208.298,113.693L207.518,114.938L206.738,116.183L204.397,117.843L201.277,118.672L198.156,119.087L195.816,119.087L195.035,118.257L194.255,117.013L193.475,116.183L192.695,115.768L191.135,114.938L188.014,114.938L185.674,115.353L183.333,115.353L181.773,115.768L179.433,116.183L177.872,115.768L175.532,114.523L173.972,114.108L172.411,113.693L172.411,114.108L171.631,115.353L171.631,116.598L172.411,117.843L173.191,119.087L173.191,120.332L174.752,120.747L176.312,121.162L177.872,121.577L180.213,121.162L183.333,120.332L184.894,119.502L185.674,119.502L186.454,119.502L185.674,120.332L183.333,121.577L181.773,122.822L180.213,124.067L177.872,125.311L177.092,126.556L177.092,127.801L177.872,129.461L179.433,131.121L180.993,132.78L180.993,133.61L180.993,134.44L180.213,135.685L179.433,136.93L179.433,138.175L180.213,140.249L181.773,141.494L184.113,142.324L185.674,143.154L186.454,143.984L188.014,144.814L188.794,145.643L188.794,146.058L190.355,146.058L191.915,146.058L193.475,145.228L194.255,144.399L195.035,143.569L195.816,142.739L197.376,141.909L198.936,141.909L201.277,141.909L204.397,142.739L206.738,143.154L209.078,143.569L210.638,143.154L211.418,142.739L212.199,141.909L213.759,141.909L214.539,141.079L215.319,140.249L217.66,140.249L220,140.664L222.34,141.079L225.461,142.324L227.801,143.984L228.582,144.814L229.362,144.814L230.142,143.984L230.142,143.154L230.142,141.909L230.142,141.079L228.582,140.249L225.461,139.419L223.121,137.76L221.56,136.93L221.56,136.515L222.34,136.1L224.681,135.685L225.461,135.27L225.461,134.44L223.901,133.61L221.56,133.61L218.44,134.44L215.319,135.27L213.759,135.685L213.759,135.27L213.759,134.025L213.759,132.78L213.759,132.365L212.199,132.365L209.078,132.78L206.738,134.025L203.617,135.27L201.277,135.685L200.496,136.515L201.277,137.76L202.837,138.175L204.397,137.76L205.957,138.175L205.957,138.589L204.397,139.004L202.837,140.249L201.277,142.324L198.936,144.399L198.156,146.058L198.156,147.718L198.156,149.378L198.936,150.208L201.277,150.208L203.617,150.623L205.177,150.623L205.177,149.793L205.177,148.963L205.177,148.548L205.177,147.718L205.957,147.303L208.298,146.888L210.638,147.303L212.979,147.718L214.539,147.718L216.099,146.888L217.66,146.058L219.22,145.228L220.78,144.814L221.56,144.814L222.34,145.643L223.121,147.303L224.681,148.963L225.461,149.793L227.801,150.623L229.362,150.623L229.362,150.208L227.801,149.793L226.241,150.208L224.681,150.623L224.681,151.867L224.681,153.527L225.461,154.357L225.461,155.187L224.681,155.602L222.34,155.602L220,154.772L217.66,153.942L216.879,152.697L216.099,152.282L215.319,152.282L214.539,152.282L212.979,152.697L211.418,153.527L210.638,154.357L209.858,155.187L209.078,156.017L209.078,157.262L209.078,157.677L207.518,157.262L205.957,156.432L204.397,156.432L203.617,156.432L202.837,157.262L203.617,158.507L204.397,160.166L205.177,160.996L205.177,161.826L203.617,161.826L201.277,161.411L200.496,160.166L199.716,158.921L198.156,156.847L198.156,155.187L197.376,153.527L195.035,152.697L193.475,151.867L191.915,151.038L188.794,149.793L185.674,148.963L183.333,148.133L180.213,148.133L178.652,148.963L178.652,150.208L178.652,151.038L179.433,151.453L180.993,151.038L182.553,150.623L183.333,150.623L184.894,151.453L186.454,152.282L188.794,153.527L190.355,154.772L191.915,156.017L192.695,156.847L193.475,158.092L193.475,159.751L192.695,160.581L191.135,161.411L191.135,162.656L190.355,163.071L188.794,162.656L187.234,163.071L187.234,163.486L187.234,163.901L186.454,164.731L186.454,166.39L186.454,168.05L184.894,168.88L183.333,169.295L181.773,169.295L179.433,168.465L177.872,167.635L176.312,167.635L173.972,168.05L173.191,168.465L172.411,168.88L170.851,169.295L170.071,168.88L168.511,167.635L165.39,166.39L163.83,165.146L163.05,163.071L161.489,161.411L159.929,160.581L159.149,160.581L158.369,160.581L158.369,161.411L159.929,162.656L161.489,163.901L163.05,165.146L163.05,166.39L161.489,167.635L159.929,168.88L159.929,170.125L159.929,170.54L161.489,171.785L163.83,172.199L166.17,172.614L168.511,172.199L171.631,172.199L173.191,172.199L173.972,173.029L173.191,173.444L172.411,174.689L171.631,175.934L171.631,176.349L173.191,176.349L175.532,175.934L177.872,175.519L179.433,174.689L181.773,174.274L183.333,173.444L185.674,173.029L187.234,172.614L188.794,173.029L190.355,173.859L191.915,175.519L192.695,177.594L192.695,179.253L193.475,180.913L192.695,182.573L191.915,183.403L190.355,183.403L189.574,182.988L188.794,182.158L188.794,180.498L188.014,179.253L188.014,178.009L187.234,177.594L185.674,177.594L184.113,178.424L184.113,179.668L184.113,181.743L184.113,182.988L183.333,183.403L182.553,182.988L180.993,181.743L178.652,180.498L177.092,180.083L176.312,180.498L174.752,181.743L172.411,182.988L171.631,183.403L170.071,182.988L168.511,182.573L168.511,181.328L168.511,180.083L166.95,178.838L166.17,178.424L164.61,177.594L163.05,177.594L161.489,178.424L161.489,179.668L160.709,180.083L159.929,180.498L157.589,180.913L155.248,181.328L152.128,182.158L149.007,182.988L147.447,183.403L146.667,182.988L146.667,181.743L147.447,180.498L149.787,180.083L151.348,180.498L152.128,181.328L152.908,182.988L152.908,184.648L152.908,186.307L152.908,187.967L152.908,190.042L152.128,192.117L150.567,194.191L147.447,196.266L144.326,198.341L141.206,200.415L139.645,202.075L139.645,203.735L139.645,205.395L138.865,206.224L138.865,207.054L137.305,207.884L134.965,208.714L134.184,209.544L134.184,210.374L133.404,211.204L133.404,212.449L132.624,212.863L131.064,212.449L129.504,212.034L129.504,210.789L129.504,208.714L131.064,206.639L132.624,204.565L134.184,202.49L135.745,200.415L137.305,199.17L138.865,198.756L140.426,199.17L141.986,200.415L141.986,202.49L142.766,204.565L142.766,206.639L143.546,208.299L145.106,209.959L147.447,210.789L149.787,211.619L152.128,211.619L153.688,211.204L153.688,210.374L152.908,209.959L151.348,208.714L150.567,207.884L149.007,207.054L149.007,205.809L149.787,204.15L151.348,203.32L152.128,202.905L152.908,202.905L152.128,202.905L151.348,202.905L149.787,202.075L147.447,200.415L145.106,198.341L144.326,196.681L144.326,195.021L143.546,193.776L144.326,193.361L146.667,192.946L149.007,192.946L149.787,193.776L152.128,195.021L153.688,196.266L153.688,197.511L153.688,197.926L155.248,197.926L156.809,197.096L157.589,195.851L159.929,195.436L162.27,195.851L164.61,196.266L166.17,197.511L167.731,198.756L167.731,199.17L166.95,199.585L164.61,199.585L162.27,199.585L160.709,200L160.709,200.83L161.489,201.66L163.05,203.32L165.39,204.565L168.511,205.809L170.851,207.469L171.631,208.299L172.411,209.129L173.191,210.374L172.411,211.204L170.851,212.034L170.851,213.693L171.631,215.353L171.631,216.183L171.631,216.598L171.631,217.013L171.631,217.428L170.071,217.428L167.731,217.843L165.39,218.258L164.61,218.258L162.27,218.258L159.929,218.258L157.589,218.258L155.248,218.258L152.908,218.258L150.567,218.258L148.227,218.258L145.887,218.258L144.326,218.258L142.766,218.258L141.206,217.428L139.645,217.013L138.085,217.013L137.305,217.428L134.965,217.428L134.184,217.428L134.965,216.598L136.525,214.938L138.085,213.693L140.426,213.278L142.766,213.278L144.326,213.278L146.667,214.108L149.007,214.938L151.348,214.938L153.688,214.523L156.028,214.938L158.369,214.938L159.929,214.108L162.27,213.693L163.83,213.278L165.39,212.034L165.39,211.204L165.39,210.374L163.83,209.959L162.27,209.544L159.929,209.129L159.149,207.884L159.149,207.469L159.149,206.639L159.929,205.809L162.27,204.98L164.61,204.98L166.95,204.98L170.851,205.395L173.972,205.809L177.092,207.054L179.433,208.299L180.213,209.129L180.993,209.959L180.993,211.619L180.213,212.449L178.652,213.278L178.652,214.523L177.872,215.768L178.652,216.598L180.213,217.843L183.333,218.258L186.454,217.843L190.355,217.013L193.475,215.768L195.035,214.523L195.816,213.278L195.816,212.034L194.255,210.374L192.695,208.714L191.135,207.469L188.794,206.224L186.454,204.98L184.894,203.735L184.113,202.905L183.333,201.245L182.553,200L180.993,199.17L180.213,199.17L178.652,199.585L177.092,200.415L176.312,200.83L175.532,201.66L174.752,202.49L174.752,202.905L176.312,203.735L178.652,205.395L182.553,207.054L185.674,207.884L187.234,209.129L188.014,210.374L188.794,211.619L188.794,212.034L188.014,213.278L187.234,214.523L186.454,214.938L185.674,215.353L185.674,216.598L187.234,217.428L189.574,217.428L192.695,217.843L195.035,218.258L197.376,218.258L198.936,217.843L201.277,218.258L202.837,218.258L203.617,217.428L204.397,216.598L204.397,215.768L202.837,214.108L202.057,212.863L202.837,211.619L202.837,209.959L202.837,208.714L203.617,208.299L202.837,207.884L200.496,207.469L198.936,207.469L198.156,207.054L196.596,206.224L195.035,204.98L193.475,204.565L191.135,203.735L189.574,202.905L188.014,201.66L188.014,200.83L189.574,200L191.135,199.17L191.135,198.341L191.135,197.926L190.355,197.096L188.014,196.266L184.894,195.851L182.553,195.436L180.213,195.436L177.872,195.436L175.532,195.436L173.191,195.436L170.851,195.436L168.511,194.606L165.39,194.191L163.05,192.946L162.27,191.702L162.27,190.457L162.27,189.627L163.83,189.212L166.17,189.627L168.511,189.627L169.291,189.627L170.851,190.042L170.851,190.457L170.851,190.872L170.851,191.287L172.411,192.117L173.972,192.117L175.532,191.287L177.092,189.627L177.872,187.967L178.652,186.722L179.433,186.307L181.773,186.307L184.113,187.137L187.234,187.967L190.355,188.382L192.695,187.967L195.035,187.552L196.596,186.307L197.376,185.063L197.376,183.403L198.936,182.573L200.496,181.328L202.837,180.913L205.177,180.498L207.518,180.083L209.858,178.838L210.638,177.594L211.418,175.934L212.199,174.274L212.979,172.614L213.759,171.785L215.319,171.785L216.879,172.199L218.44,173.444L220.78,175.104L223.121,176.764L224.681,178.009L226.241,179.253L228.582,180.498L230.922,182.158L233.262,183.403L237.163,184.233L241.064,185.063L244.184,185.892L245.745,186.307L246.525,186.307L245.745,187.137L243.404,187.967L241.844,188.382L241.844,188.797L241.844,190.042L241.844,190.872L241.844,191.702L241.064,192.946L238.723,194.191L235.603,194.606L233.262,194.606L232.482,193.776L230.922,192.117L230.142,190.042L230.922,188.797L232.482,187.967L232.482,187.137L234.043,186.307L234.823,185.478L234.043,184.648L231.702,183.403L229.362,182.158L225.461,181.328L221.56,180.498L219.22,178.838L217.66,178.009L216.099,178.009L216.099,178.424L217.66,179.253L219.22,180.913L220.78,182.573L223.121,184.233L223.901,185.478L223.121,186.307L221.56,187.137L220.78,187.137L220,186.307L219.22,185.478L218.44,185.063L217.66,183.818L215.319,183.403L213.759,183.818L212.979,184.648L212.199,185.063L210.638,185.478L209.078,185.892L206.738,185.478L205.177,184.233L203.617,182.988L203.617,181.743L203.617,180.083L202.837,178.838L200.496,177.594L199.716,176.764L197.376,175.934L195.816,174.689L195.816,173.444L196.596,173.029L197.376,173.029L199.716,173.029L202.837,173.859L204.397,174.689L205.177,174.689L205.177,173.859L204.397,173.029L202.057,171.785L200.496,170.125L198.936,169.295L196.596,168.88L195.035,168.465L194.255,167.635L194.255,167.22L195.035,165.975L197.376,165.146L199.716,165.146L202.837,165.56L205.177,165.56L208.298,165.975L209.858,165.56L209.858,165.146L208.298,165.146L207.518,165.975L206.738,167.22L205.957,168.88L206.738,169.71L209.078,169.71L211.418,169.71L213.759,169.71L216.879,169.295L218.44,168.88L219.22,168.465L218.44,167.22L217.66,165.56L216.099,163.901L216.099,162.241L216.099,161.411L216.099,160.581L216.099,159.336L217.66,158.921L218.44,159.336L219.22,159.751L221.56,160.996L222.34,162.656L223.121,164.316L223.121,165.56L223.901,166.805L224.681,167.635L227.021,168.05L227.801,168.05L229.362,167.635L229.362,166.39L228.582,164.731L227.801,163.071L228.582,160.996L229.362,159.751L231.702,158.921L233.262,158.921L234.823,159.336L235.603,160.581L236.383,161.826L237.163,163.486L238.723,164.316L238.723,165.56L237.943,165.975L237.163,165.56L234.823,164.731L232.482,163.901L230.142,162.241L229.362,160.581L229.362,158.921L230.142,156.847L231.702,155.187L234.043,154.357L236.383,154.357L237.163,154.772L238.723,156.017L239.504,157.677L240.284,159.336L241.064,160.581L243.404,161.826L245.745,163.071L248.865,164.316L251.986,164.731L253.546,165.56L255.106,166.805L256.667,168.05L258.227,169.295L259.007,171.37L259.787,173.029L260.567,173.859L259.787,174.274L257.447,173.859L255.887,173.444L254.326,172.614L251.206,172.199L248.085,171.37L244.965,171.37L241.844,170.54L240.284,170.54L239.504,170.955L238.723,172.199L238.723,172.614L237.943,173.444L235.603,173.859L234.043,173.444L233.262,172.199L231.702,171.785L230.142,171.37L229.362,171.37L227.021,171.785L225.461,173.029L225.461,174.274L226.241,175.104L227.801,175.519L230.142,176.349L231.702,177.179L233.262,178.009L234.823,178.838L236.383,179.253L238.723,178.838L241.064,178.424L242.624,178.009L244.965,177.594L247.305,178.009L248.085,178.838L249.645,179.668L251.986,180.498L253.546,182.158L255.106,183.818L257.447,185.063L259.007,185.478L260.567,185.892L262.908,186.307L265.248,185.892L268.369,185.478L272.27,185.892L276.17,186.307L279.291,185.892L281.631,185.478L283.192,185.063L283.972,183.818L283.192,181.743L282.411,180.498L280.851,180.083L278.511,180.083L276.17,180.083L275.39,180.498L275.39,180.913L276.17,181.328L276.95,182.158L276.95,182.988L275.39,183.403L273.05,182.988L269.929,182.158L267.589,181.328L266.809,181.328L266.809,182.158L266.028,182.988L265.248,183.403L263.688,182.988L261.348,182.573L258.227,182.158L255.106,182.158L252.766,182.158L250.426,182.573L247.305,182.988L244.965,182.573L243.404,181.743L241.064,180.913L240.284,179.668L241.064,177.594L242.624,175.934L244.965,175.104L247.305,174.689L249.645,175.104L251.986,175.934L254.326,177.179L255.887,177.594L259.007,178.009L261.348,177.594L263.688,177.594L265.248,176.764L267.589,176.764L269.929,176.349L271.489,175.934L273.05,175.104L274.61,174.274L276.17,173.444L277.731,173.029L279.291,172.614L279.291,171.785L278.511,171.785L276.17,170.955L273.83,169.71L271.489,168.465L269.149,167.635L266.809,165.975L266.028,164.316L263.688,162.656L262.128,160.996L262.128,159.751L263.688,159.336L265.248,158.921L266.809,158.507L269.149,158.092L271.489,157.262L273.05,156.432L274.61,155.602L276.95,155.602L277.731,156.432L278.511,157.677L280.071,158.921L280.851,160.166L280.851,161.411L280.851,162.656L280.851,163.486L280.071,164.316L280.071,165.975L281.631,166.805L283.192,166.805L283.972,167.22L285.532,167.635L286.312,168.05L285.532,168.88L284.752,169.71L283.192,169.71L280.071,169.71L276.17,168.88L272.27,168.05L268.369,167.635L265.248,167.22L263.688,165.975L262.128,164.731L260.567,163.071L259.787,161.826L258.227,160.581L256.667,159.336L255.887,158.092L255.106,157.677L253.546,157.262L251.986,157.677L249.645,158.092L248.085,159.336L248.085,160.166L249.645,160.996L251.206,161.411L251.986,162.656L251.206,163.486L250.426,164.731L248.085,165.975L246.525,166.805L246.525,167.635L248.085,168.465L249.645,169.295L252.766,169.295L256.667,169.71L260.567,170.125L262.908,170.54L265.248,170.955L267.589,172.199L269.929,173.859L272.27,174.689L276.17,175.519L280.071,175.519L283.192,175.519L285.532,175.519L286.312,175.934L287.092,176.764L287.872,178.424L287.872,180.083L287.872,180.913L289.433,182.158L290.213,183.403L289.433,184.233L290.213,185.063L290.213,186.307L290.213,187.552L289.433,188.382L290.213,189.627L290.993,190.872L293.333,192.117L294.894,193.361L298.014,194.606L300.355,195.021L301.915,194.606L303.475,194.191L305.816,193.776L306.596,193.361L308.156,192.946L310.496,192.531L312.057,192.531L313.617,191.702L315.957,191.287L318.298,190.872L320.638,190.457L323.759,190.042L325.319,190.457L326.879,190.042L328.44,189.627L330,190.042L330,190.457L330,190.872L329.22,191.702L327.66,192.531L324.539,193.361L322.199,194.191L319.858,194.191L318.298,194.606L315.957,195.436L313.617,195.851L311.277,196.266L308.936,197.096L306.596,197.926L305.035,199.17L304.255,200.83L302.695,202.075L301.135,202.905L300.355,203.32L299.574,202.905L298.014,201.66L297.234,200.83L298.014,200L297.234,198.756L295.674,197.511L294.113,196.266L292.553,195.021L289.433,194.191L286.312,193.776L284.752,193.361L283.192,192.946L282.411,192.117L281.631,190.872L280.851,189.627L278.511,188.797L276.17,188.797L273.83,189.212L272.27,189.627L272.27,190.042L273.83,190.872L275.39,191.702L276.17,191.702L276.17,192.531L274.61,193.361L272.27,193.361L269.929,192.946L267.589,193.361L266.028,193.776L266.028,194.191L266.809,195.436L268.369,196.266L270.709,196.681L273.05,197.096L275.39,197.511L277.731,197.511L279.291,197.511L280.851,197.511L283.192,197.096L285.532,196.681L286.312,196.681L288.652,197.096L290.213,197.926L290.213,198.756L290.213,200L290.213,200.83L289.433,202.075L289.433,203.32L290.213,204.15L290.993,204.565L292.553,205.395L293.333,206.224L292.553,206.639L292.553,207.884L292.553,208.714L292.553,209.544L293.333,210.374L295.674,210.789L297.234,210.374L298.014,209.959L299.574,209.129L301.915,208.299L302.695,207.884L304.255,208.299L305.035,209.129L304.255,210.374L303.475,211.619L303.475,213.278L303.475,214.108L303.475,214.523L305.035,214.523L306.596,214.523L308.156,214.523L309.716,215.353L312.057,216.183L312.837,217.428L312.057,217.843L311.277,218.258L308.936,218.258L305.816,218.673L302.695,218.258L299.574,218.258L296.454,217.428L293.333,216.183L290.993,215.353L288.652,214.523L286.312,213.278L283.192,212.863L281.631,212.863L279.291,212.034L276.95,211.619L276.17,211.204L276.95,210.374L276.17,209.129L275.39,208.299L274.61,207.469L273.83,207.469L271.489,207.469L269.149,207.884L266.809,207.884L265.248,207.469L263.688,207.054L263.688,206.224L263.688,204.98L264.468,204.565L264.468,204.15L263.688,202.905L261.348,202.49L259.787,202.075L258.227,200.83L256.667,199.585L254.326,198.341L252.766,196.266L251.206,194.191L250.426,192.117L250.426,190.042L251.986,188.797L254.326,188.382L257.447,187.967L259.787,188.382L261.348,189.627L261.348,190.457L260.567,190.457L258.227,190.872L255.887,191.287L255.106,191.702L254.326,192.117L254.326,193.361L255.887,194.191L257.447,195.021L258.227,195.851L260.567,197.096L262.128,197.511L263.688,198.341L266.028,199.17L267.589,200L268.369,200L269.929,200.83L271.489,201.245L273.05,201.66L276.17,202.075L278.511,203.32L279.291,203.735L278.511,204.565L277.731,204.565L276.95,203.735L277.731,202.49L279.291,202.075L280.851,202.075L282.411,202.905L283.972,204.15L283.972,205.809L283.972,207.469L285.532,208.714L287.092,209.959L288.652,211.619L291.773,212.863L294.894,214.108L296.454,215.768L296.454,217.013L294.894,217.843L291.773,218.673L289.433,218.673L287.092,217.843L285.532,217.428L283.972,216.598L282.411,215.768L280.071,215.768L279.291,216.598L278.511,216.598L277.731,217.428L276.95,218.258L275.39,218.673L272.27,218.258L269.929,218.258L268.369,217.428L268.369,217.013L269.149,216.183L270.709,215.353L270.709,214.108L270.709,213.693L269.149,213.278L266.809,213.278L263.688,213.278L260.567,213.278L256.667,212.449L254.326,211.204L253.546,209.959L253.546,209.544L253.546,209.959L255.106,211.204L256.667,212.034L257.447,212.449L259.007,212.863L261.348,212.449L262.128,211.204L261.348,209.959L260.567,208.714L258.227,207.469L255.106,206.224L251.986,204.98L248.865,204.565L245.745,204.98L242.624,204.565L240.284,204.15L238.723,203.735L237.163,202.905L235.603,202.075L234.043,202.075L232.482,202.075L230.922,202.075L229.362,202.49L227.021,202.49L225.461,202.49L224.681,202.905L224.681,204.15L225.461,205.395L226.241,206.224L227.021,207.054L227.021,208.299L225.461,209.544L224.681,210.789L223.901,212.449L223.901,213.278L224.681,214.108L226.241,214.108L227.021,213.278L229.362,212.449L230.922,211.619L231.702,209.959L232.482,208.299L234.043,207.469L234.823,207.054L236.383,207.469L237.943,208.714L240.284,210.374L241.844,211.204L244.184,212.034L245.745,212.034L246.525,211.204L247.305,209.959L248.865,208.714L249.645,206.639L249.645,204.565L250.426,203.32L249.645,202.075L248.085,200.83L247.305,199.585L248.085,199.17L248.865,198.756L249.645,198.341L249.645,197.926L248.865,197.511L246.525,196.681L243.404,195.021L240.284,194.191L237.943,193.361L234.823,192.531L231.702,191.702L229.362,191.702L227.021,190.872L223.901,190.457L220.78,190.457L219.22,190.872L218.44,190.872L218.44,191.702L220,192.531L222.34,193.776L223.121,194.606L223.121,195.851L223.901,197.096L223.901,197.926L224.681,197.926L226.241,198.341L228.582,198.341L230.922,197.926L234.043,197.511L236.383,197.926L238.723,198.341L240.284,199.17L241.844,200.415L242.624,202.49L242.624,204.565L241.844,206.639L241.064,208.714L238.723,210.789L236.383,212.034L235.603,213.278L236.383,214.108L237.943,214.523L241.064,214.523L244.184,215.353L247.305,215.353L250.426,215.768L253.546,216.598L256.667,217.428L259.007,217.428L259.787,218.258L259.007,218.673L257.447,218.258L254.326,218.258L251.206,218.673L248.865,218.258L246.525,218.258L244.184,218.258L241.844,217.843L240.284,217.843L237.943,217.843L235.603,217.843L234.043,218.258L232.482,218.258L230.142,218.258L228.582,218.258L227.021,217.843L224.681,217.843L222.34,217.843L220.78,217.843L218.44,218.258L216.099,218.673L213.759,218.258L212.979,217.843L212.199,216.598L212.979,215.768L213.759,215.353L213.759,214.938L212.979,214.523L212.199,214.108L209.858,213.693L208.298,212.449L208.298,211.204L208.298,209.959L207.518,208.714L208.298,206.639L209.078,205.395L209.858,204.565L211.418,204.565L212.979,204.98L213.759,206.224L215.319,207.054L215.319,208.299L215.319,209.544L216.099,210.374L217.66,210.789L218.44,210.789L220,209.959L220,208.299L220,206.639L218.44,204.98L216.879,203.32L214.539,201.66L212.199,200L209.858,198.341L207.518,196.681L205.177,195.851L202.837,195.851L200.496,195.851L198.156,195.851L196.596,195.436L195.816,194.191L196.596,192.117L198.936,190.872L202.057,190.042L205.177,189.212L206.738,188.382L207.518,188.382L206.738,188.382L205.177,188.797L204.397,189.627L205.177,190.872L206.738,191.702L208.298,192.531L209.858,193.361L211.418,193.776L212.979,194.606L213.759,195.021L214.539,195.436L216.099,195.851L217.66,197.096L217.66,197.926L216.879,198.756L216.099,199.585L213.759,200.415L209.858,200.83L206.738,201.66L203.617,202.49L200.496,202.905L198.936,202.49L198.936,202.075L199.716,200.83L201.277,200.415L202.837,199.585L202.837,198.756L202.057,197.511L200.496,196.266L198.156,194.191L195.816,192.117L193.475,190.872L191.915,190.457L190.355,190.872L188.794,191.287L187.234,192.531L186.454,192.946L184.894,192.531L182.553,191.287L180.213,190.042L177.872,187.967L174.752,186.722L170.851,185.478L167.731,185.063L164.61,185.478L162.27,185.892L160.709,185.478L159.149,185.892L157.589,186.307L156.028,186.722L153.688,187.552L151.348,188.382L149.007,188.382L146.667,188.382L144.326,187.552L141.986,186.307L138.865,185.063L136.525,183.818L133.404,182.573L130.284,181.328L127.943,180.083L127.163,179.668L126.383,179.253L125.603,178.009L124.823,176.764L123.262,175.934L121.702,175.104L120.142,175.104L118.582,175.104L117.801,175.934L117.021,176.764L114.681,177.179L112.34,177.594L110,178.009L107.66,177.594L106.879,177.179L107.66,176.764L108.44,175.519L110,174.274L110.78,173.029L110.78,171.37L109.22,169.295L107.66,168.05L105.319,166.805L103.759,166.39L101.418,166.805L100.638,167.635L99.078,167.635L98.298,167.635L96.738,167.22L95.177,165.975L93.617,164.316L92.057,163.071L89.716,161.826L87.376,160.581L85.035,159.751L82.695,159.751L80.355,159.751L78.014,159.751L75.674,159.751L73.333,160.166L70.213,160.581L67.092,160.581L63.972,160.581L60.851,160.581L57.73,160.166L55.39,158.921L53.83,157.677L53.83,156.432L54.61,155.602L56.17,155.187L57.73,155.602L60.071,156.432L60.851,157.262L62.411,157.262L64.752,156.847L67.092,156.432L67.872,156.017L68.652,156.017L67.872,156.017L66.312,155.602L64.752,154.772L64.752,153.942L64.752,152.697L65.532,151.453L65.532,150.208L63.972,149.378L60.851,148.548L57.73,147.718L53.83,147.718L51.489,148.133L50.709,148.548L49.929,148.963L49.929,150.208L49.929,150.623L49.149,151.453L46.809,151.867L44.468,151.867L42.908,151.453L42.128,151.038L40.567,149.793L40.567,148.548L40.567,148.133L39.007,148.133L38.227,148.963L37.447,150.208L36.667,151.867L36.667,153.527L37.447,155.187L36.667,156.432L36.667,157.262L35.887,157.262L34.326,157.262L32.766,156.432L31.986,155.187L30.426,154.772L28.085,154.357L26.525,153.942L25.745,153.527L25.745,153.112L25.745,151.867L26.525,151.453L26.525,150.208L25.745,149.793L23.404,149.378L21.844,148.963L21.064,147.718L21.064,147.303L21.844,146.058L23.404,145.643L25.745,146.058L28.085,146.888L29.645,146.888L31.206,147.303L31.986,146.888L32.766,146.058L33.546,145.228L35.106,144.399L36.667,143.984L39.787,144.399L42.128,144.399L43.688,143.984L44.468,143.569L43.688,142.324L42.128,141.079L41.348,140.664L41.348,140.249L41.348,139.834L41.348,139.419L42.128,138.589L42.908,137.76L43.688,137.345L44.468,136.93L46.809,136.93L49.149,136.93L50.709,136.1L50.709,134.855L50.709,134.025L49.149,133.195L46.028,132.78L42.128,132.78L39.007,133.61L35.887,134.025L32.766,134.44L31.206,134.855L30.426,135.685L30.426,136.1L31.206,137.345L32.766,139.004L32.766,139.834L32.766,140.664L31.206,141.494L29.645,141.494L28.085,140.664L27.305,139.834L25.745,139.004L24.184,138.589L23.404,139.004L22.624,139.419L21.064,140.664L20.284,141.909L19.504,142.739L17.943,143.569L15.603,144.399L14.043,144.399L11.702,143.984L10.142,143.984L7.801,143.154L6.241,142.324L5.461,141.909L4.681,141.079L4.681,139.419L6.241,138.175L7.021,137.76L7.801,137.345L9.362,137.76L10.922,139.004L11.702,139.834L13.262,139.834L14.823,139.834L15.603,139.004L16.383,137.76L16.383,136.515L17.163,135.685L17.943,135.27L19.504,134.855L21.064,134.025L23.404,133.195L24.965,131.95L26.525,131.121L28.865,130.706L31.206,130.706L34.326,131.535L38.227,132.78L42.128,133.195L46.028,133.195L49.929,133.195L53.83,133.195L56.17,133.195L57.73,133.61L58.511,134.855L59.291,135.685L59.291,136.515L60.851,137.345L62.411,138.175L63.972,139.004L63.972,139.834L63.191,140.664L62.411,141.909L60.851,143.154L59.291,143.569L57.73,144.814L56.95,145.228L54.61,144.814L53.05,144.399L52.269,143.984L52.269,142.739L51.489,141.909L52.269,141.079L53.83,140.249L55.39,140.249L57.73,141.079L60.851,142.324L62.411,144.399L63.191,146.473L62.411,148.133L60.071,149.793L56.95,151.453L54.61,153.112L51.489,154.357L48.369,155.187L46.809,155.602L45.248,156.017L43.688,156.432L42.908,157.262L43.688,158.507L43.688,159.336L45.248,160.166L46.028,160.996L47.589,161.411L48.369,162.241L49.929,163.071L50.709,163.071L53.05,162.656L54.61,162.656L55.39,162.656L55.39,163.486L56.17,164.316L56.95,165.146L57.73,165.146L60.071,165.146L61.631,165.146L61.631,165.975L60.851,166.39L60.851,167.635L60.851,168.05L62.411,168.465L65.532,168.465L67.872,168.465L69.433,167.635L70.213,166.805L70.213,165.146L70.213,163.901L70.993,162.656L72.553,162.241L74.113,162.656L74.894,163.486L75.674,164.316L75.674,165.56L75.674,166.805L76.454,167.22L78.794,168.05L80.355,168.88L83.475,169.71L85.816,169.71L88.156,169.71L89.716,169.71L91.277,169.71L92.837,169.71L95.177,170.125L97.518,171.37L100.638,172.199L103.759,172.199L105.319,171.785L106.099,171.785L105.319,171.785L102.979,171.785L101.418,172.614L99.858,173.859L99.078,175.104L99.858,176.349L100.638,178.009L100.638,178.838L102.199,180.083L103.759,181.328L105.319,182.573L108.44,183.818L110.78,185.478L111.56,187.137L112.34,188.382L111.56,188.797L109.22,188.797L107.66,188.382L107.66,187.552L106.099,186.307L104.539,185.478L102.979,184.233L101.418,183.818L99.078,183.818L97.518,184.648L97.518,185.063L98.298,186.307L98.298,187.552L99.078,188.382L100.638,188.797L102.199,190.042L102.979,190.872L104.539,191.702L104.539,192.117L102.979,192.946L101.418,193.776L101.418,194.606L100.638,194.606L99.858,194.606L99.078,193.776L97.518,192.946L94.397,191.702L92.057,191.287L89.716,191.702L88.156,192.117L86.596,191.702L85.035,191.702L83.475,191.702L81.915,190.872L79.574,190.457L78.014,190.872L77.234,191.702L76.454,192.531L77.234,194.191L79.574,195.851L80.355,196.681L81.135,196.681L82.695,196.681L84.255,196.266L85.035,195.436L87.376,195.436L89.716,195.436L92.057,195.436L93.617,195.851L94.397,197.096L94.397,198.341L95.177,200L95.957,201.245L96.738,201.66L97.518,201.66L97.518,200.83L95.957,200L93.617,199.585L91.277,200L90.496,200.83L91.277,202.075L92.837,203.735L95.177,204.98L97.518,205.395L99.858,204.98L102.199,204.565L104.539,204.15L106.879,204.15L109.22,204.15L110.78,204.15L110.78,203.735L110,202.905L107.66,201.245L106.099,200L105.319,199.17L105.319,198.341L106.879,197.926L109.22,198.341L111.56,199.17L113.121,199.585L115.461,200.415L117.801,201.245L120.142,201.245L120.922,200.415L120.922,200L119.362,199.17L116.241,197.511L113.901,195.851L113.121,194.191L113.901,192.946L116.241,191.702L119.362,190.457L120.922,189.627L120.922,188.797L120.922,187.552L119.362,186.307L118.582,185.063L117.801,183.403L117.021,182.573L115.461,182.158L113.901,181.743L112.34,181.328L112.34,181.743L113.901,181.328L116.241,180.913L118.582,181.328L120.922,182.158L122.482,182.988L124.043,184.648L124.823,185.478L126.383,185.478L127.943,185.892L129.504,185.478L131.064,184.233L132.624,182.988L133.404,181.743L134.184,180.083L135.745,179.253L137.305,179.253L138.085,179.668L139.645,180.913L139.645,182.573L139.645,184.233L139.645,185.892L139.645,187.967L138.865,190.042L138.865,192.117L137.305,193.776L134.965,194.606L133.404,194.606L133.404,194.191L134.184,192.946L134.965,191.702L135.745,190.457L135.745,190.042L134.965,189.212L132.624,189.212L131.064,189.627L129.504,190.872L127.943,192.117L127.163,194.191L127.943,196.266L128.723,197.511L128.723,197.926L128.723,197.511L127.943,196.266L125.603,194.191L122.482,192.946L120.922,192.531L119.362,192.531L117.021,192.946L116.241,194.191L117.021,195.021L117.801,195.851L120.142,197.096L123.262,198.756L126.383,200L127.943,201.66L128.723,203.32L127.943,204.15L127.163,204.98L125.603,206.224L124.823,207.469L123.262,208.299L122.482,209.129L121.702,209.129L120.142,208.299L119.362,206.639L119.362,205.395L118.582,204.98L117.021,205.395L117.021,206.224L116.241,207.884L116.241,209.544L116.241,211.204L117.021,212.863L117.801,214.938L119.362,216.598L120.922,217.843L122.482,218.258L124.043,217.843L125.603,217.428L126.383,216.598L125.603,215.353L124.823,214.938L124.043,215.353L121.702,215.768L118.582,216.183L116.241,217.428L113.901,218.258L111.56,218.258L109.22,218.258L106.879,218.258L105.319,217.843L104.539,217.013L104.539,216.183L105.319,215.353L107.66,214.523L109.22,214.108L111.56,213.693L112.34,213.278L112.34,212.034L111.56,210.789L110,208.714L107.66,207.469L105.319,207.054L104.539,207.469L103.759,207.884L104.539,209.129L104.539,210.374L104.539,210.789L102.979,210.374L100.638,210.789L96.738,210.789L93.617,210.789L92.057,211.619L92.057,213.278L93.617,214.938L95.177,216.598L95.957,217.428L95.957,218.258L94.397,218.673L92.057,218.258L90.496,217.428L90.496,216.598L91.277,215.768L92.837,214.523L95.177,214.108L97.518,213.693L98.298,213.278L97.518,212.034L96.738,210.789L94.397,208.714L91.277,207.054L88.936,205.395L87.376,203.735L85.035,202.905L83.475,202.075L81.915,201.245L80.355,200.415L78.014,199.585L76.454,197.926L74.113,196.681L72.553,195.851L71.773,195.851L70.993,196.266L69.433,196.681L68.652,196.681L67.092,195.851L64.752,195.021L63.191,194.606L63.191,195.021L63.191,196.266L63.191,198.341L63.972,200.415L64.752,202.49L65.532,204.15L66.312,205.809L67.092,207.054L67.872,208.299L69.433,209.129L70.213,209.544L71.773,209.544L74.894,209.129L78.014,208.714L79.574,208.299L81.135,208.714L82.695,209.544L83.475,210.374L84.255,210.374L85.816,209.959L86.596,209.129L85.816,207.469L84.255,205.809L81.135,204.15L77.234,203.32L74.113,202.075L72.553,201.66L71.773,202.075L72.553,202.905L74.113,203.735L74.894,204.98L74.113,205.395L72.553,204.98L69.433,204.98L65.532,204.98L62.411,204.565L60.851,204.98L59.291,206.224L59.291,207.054L60.851,207.884L61.631,209.129L60.851,209.959L61.631,210.789L62.411,212.034L63.191,212.449L65.532,213.278L68.652,213.693L71.773,214.108L74.113,213.693L75.674,213.278L77.234,212.863L78.794,213.278L80.355,213.278L81.915,214.108L83.475,215.768L83.475,216.598L83.475,217.428L81.915,217.843L80.355,218.258L78.014,217.843L76.454,218.258L74.113,217.843L72.553,217.428L70.213,216.183L67.872,215.768L64.752,214.523L61.631,213.278L57.73,212.034L54.61,211.619L51.489,210.789L49.929,210.789L49.929,211.619L49.929,212.863L50.709,213.278L53.05,214.108L55.39,214.938L57.73,215.768L61.631,216.598L63.972,217.428L64.752,218.258L63.972,218.673L62.411,218.258L59.291,218.258L56.17,218.673L54.61,218.258L53.05,217.843L50.709,218.258L48.369,218.258L46.028,218.258L43.688,218.258L42.128,217.843L42.128,217.428L42.908,216.598L44.468,215.353L44.468,214.523L44.468,213.693L43.688,212.034L43.688,210.789L42.908,209.544L43.688,208.299L43.688,207.054L44.468,205.809L44.468,204.15L45.248,202.49L46.028,200.83L48.369,200L49.929,199.17L50.709,199.17L51.489,200L51.489,201.245L49.929,202.075L49.149,203.735L49.929,205.395L50.709,206.224L51.489,206.224L53.05,205.809L54.61,204.98L56.17,203.32L56.95,201.66L57.73,200.83L59.291,200L59.291,198.756L58.511,197.511L57.73,196.266L57.73,194.191L56.95,192.946L56.17,192.531L55.39,192.946L54.61,193.776L52.269,194.606L49.929,195.436L49.149,195.436L47.589,194.606L46.809,193.361L47.589,192.946L48.369,191.702L49.149,190.872L49.929,190.042L49.929,189.212L49.149,188.382L49.149,187.552L47.589,186.307L46.809,185.063L47.589,184.648L48.369,183.403L49.149,182.573L49.929,181.743L49.929,181.328L49.929,180.083L49.149,178.838L48.369,177.594L48.369,176.349L48.369,174.689L46.809,173.029L46.028,171.37L45.248,170.125L43.688,169.71L43.688,170.125L43.688,170.955L42.908,172.199L40.567,173.029L39.787,173.029L37.447,172.614L35.106,172.614L32.766,172.199L31.986,171.785L30.426,171.37L28.865,170.955L27.305,170.54L26.525,170.125L25.745,169.295L24.965,168.465L24.184,167.22L23.404,165.56L23.404,164.731L22.624,164.731L21.064,164.731L20.284,165.56L20.284,166.805L19.504,168.05L17.943,168.465L17.163,168.88L16.383,168.465L14.823,168.05L12.482,166.805L11.702,165.975L10.142,165.146L9.362,164.316L10.142,163.071L11.702,162.656L11.702,162.241L11.702,161.826L10.142,161.826L8.582,161.411L7.801,160.581L7.021,159.336L7.801,158.507L9.362,157.262L9.362,156.432L7.801,156.017L7.021,156.432L4.681,156.432L2.34,156.432L0.78,156.017L0,154.772L0,153.527L0.78,153.112L2.34,152.697L4.681,152.697L7.801,152.697L9.362,152.282L10.142,151.038L10.142,150.623L8.582,150.208L5.461,149.793L3.121,148.963L1.56,148.133L0,146.473L0,145.228L0.78,144.814L1.56,145.228L3.121,145.643L5.461,146.473L7.021,147.303L9.362,147.718L12.482,148.133L14.043,149.378L15.603,151.038L17.163,151.867L17.163,153.112L16.383,154.357L16.383,155.602L16.383,156.847L16.383,158.092L17.943,159.336L20.284,160.166L21.844,160.166L21.844,159.336L22.624,158.921L23.404,158.092L23.404,157.677L24.965,157.677L27.305,158.507L28.085,159.751L28.865,161.411L29.645,163.071L30.426,165.146L31.986,166.805L34.326,167.635L35.106,167.635L35.887,167.635L36.667,166.805L36.667,165.56L35.887,164.316L35.106,163.901L35.106,163.071L35.106,162.241L35.887,162.241L38.227,163.071L40.567,163.486L42.908,164.316L45.248,165.56L46.809,166.805L47.589,168.05L49.929,169.295L51.489,169.71L53.05,170.54L55.39,170.955L58.511,170.54L60.851,170.54L63.191,171.37L64.752,172.199L64.752,173.444L63.972,175.519L62.411,176.764L60.851,178.009L59.291,179.253L57.73,179.668L56.17,179.253L55.39,178.838L54.61,177.594L54.61,175.934L56.17,174.689L56.95,174.274L58.511,174.274L60.851,175.104L62.411,176.349L63.972,177.179L66.312,177.179L68.652,177.594L70.213,178.009L72.553,177.594L74.894,177.594L77.234,178.424L78.014,178.838L78.794,179.253L79.574,180.498L80.355,181.328L81.135,182.158L81.915,182.573L81.915,182.988L80.355,182.573L77.234,182.158L74.113,181.743L71.773,182.158L70.213,182.573L69.433,183.818L68.652,185.478L67.872,186.307L67.092,186.307L65.532,185.478L64.752,184.233L63.972,183.403L63.191,183.403L61.631,183.403L60.851,184.233L58.511,184.648L56.95,185.063L55.39,185.478L55.39,186.307L56.17,186.722L57.73,187.967L60.071,189.212L62.411,189.627L64.752,190.457L67.092,191.287L68.652,191.287L70.213,190.457L71.773,189.627L72.553,187.967L73.333,186.722L75.674,186.307L76.454,186.307L78.014,186.307L80.355,187.137L82.695,187.552L83.475,187.137L85.816,186.722L88.156,187.137L89.716,186.722L89.716,185.892L91.277,185.478L92.057,184.648L92.057,182.988L92.057,181.328L93.617,180.498L94.397,179.253L94.397,178.009L94.397,176.764L93.617,175.934L91.277,175.104L89.716,174.689L88.936,175.104L87.376,176.349L87.376,178.009L88.156,178.838L87.376,179.253L85.816,178.838L84.255,177.594L81.915,176.349L78.794,175.519L75.674,174.689L73.333,173.859L72.553,173.859L71.773,173.029L72.553,172.199L74.894,172.199L78.014,172.614L79.574,172.199L81.135,171.785L82.695,170.955L82.695,169.295L81.915,167.22L82.695,165.146L83.475,163.901L83.475,163.486L85.035,163.901L86.596,164.316L88.156,164.731L90.496,164.731L93.617,164.316L96.738,163.486L100.638,163.486L104.539,163.901L107.66,164.731L110,165.975L112.34,166.805L113.901,167.635L114.681,168.88L116.241,169.295L117.801,168.88L119.362,169.295L120.922,169.71L121.702,169.71L122.482,170.54L124.043,171.37L125.603,172.199L126.383,172.614L127.943,173.444L129.504,173.859L131.064,174.274L131.064,173.859L132.624,173.444L134.965,172.199L135.745,170.955L136.525,170.54L138.865,170.955L139.645,171.785L140.426,173.029L142.766,174.274L143.546,175.519L143.546,176.764L143.546,177.179L141.986,177.179L140.426,176.764L140.426,175.519L141.206,174.274L143.546,173.859L147.447,174.274L149.787,175.104L152.128,175.934L153.688,175.934L155.248,175.934L156.028,175.104L156.809,173.859L157.589,172.614L157.589,171.37L157.589,169.295L156.809,167.635L156.028,165.975L154.468,165.146L152.908,165.146L149.787,165.56L147.447,165.56L145.106,166.39L143.546,167.22L143.546,168.05L145.106,169.295L146.667,170.54L148.227,170.955L149.787,170.955L150.567,170.125L149.787,168.465L149.007,166.805L149.787,165.146L150.567,163.071L150.567,161.411L151.348,159.751L151.348,158.092L151.348,156.432L151.348,155.602L152.128,154.357L152.908,153.112L155.248,151.867L157.589,151.453L158.369,150.623L158.369,149.793L157.589,149.793L155.248,150.623L152.908,151.453L152.128,152.697L152.908,154.357L155.248,155.187L159.149,155.187L161.489,154.772L162.27,153.942L162.27,153.527L162.27,153.942L162.27,154.357L163.05,155.187L164.61,156.432L166.17,157.677L167.731,158.092L169.291,158.921L171.631,158.921L173.972,158.921L175.532,158.921L175.532,159.336L173.972,160.166L172.411,161.826L170.851,162.656L170.851,163.071L172.411,163.901L175.532,164.731L177.872,164.731L179.433,164.731L180.213,164.316L180.993,163.486L180.993,161.826L180.993,160.166L182.553,159.336L184.894,158.507L185.674,157.677L185.674,156.847L184.894,156.432L182.553,155.187L178.652,154.772L175.532,154.772L173.972,155.187L173.191,155.187L172.411,155.187L171.631,154.357L171.631,153.112L171.631,151.453L170.851,150.208L171.631,148.963L173.191,147.718L173.972,146.058L174.752,145.228L176.312,143.984L177.872,142.739L180.213,141.909L182.553,141.079L183.333,139.834L184.894,138.589L185.674,137.345L186.454,135.685L186.454,134.025L187.234,132.78L188.014,131.535L189.574,130.706L190.355,130.706L191.135,131.535L192.695,132.365L193.475,134.025L192.695,136.1L191.915,137.345L191.915,137.76L191.915,137.345L192.695,136.1L194.255,134.855L196.596,133.61L198.156,132.365L198.156,131.121L198.156,130.291L197.376,128.631L195.035,127.801L193.475,126.971L191.915,126.141L188.794,125.726L187.234,126.141L185.674,126.556L183.333,126.971L182.553,127.801L183.333,127.801L184.113,126.971L185.674,125.311L188.794,124.482L191.135,123.237L193.475,122.822L195.816,123.237L197.376,124.067L198.936,124.067L201.277,124.482L202.057,124.067L202.837,123.237L204.397,121.992L205.957,120.747L206.738,119.917L209.078,119.087L211.418,118.672L213.759,118.257L216.099,117.843L219.22,117.428L221.56,117.013L223.901,115.768L226.241,114.523L227.021,114.108L226.241,112.863L226.241,112.033L226.241,111.204L226.241,110.374L227.021,108.714L227.801,107.884L227.801,106.639L226.241,105.809L225.461,104.979L225.461,104.15L226.241,103.32L227.801,103.32L230.142,103.735L232.482,104.979L233.262,106.639L234.043,108.299L234.823,109.959L235.603,110.789L236.383,111.204L237.943,112.033L239.504,112.863L239.504,113.278L238.723,113.693L237.163,114.523L234.823,114.938L232.482,115.353L230.922,116.183L230.922,117.013L231.702,117.428L232.482,118.257L234.043,119.087L235.603,119.087L235.603,119.917L234.043,120.747L234.043,121.577L233.262,122.407L232.482,124.067L231.702,125.726L232.482,127.801L232.482,129.046L233.262,129.461L234.043,129.046L235.603,127.801L237.163,126.556L238.723,125.311L240.284,124.482L241.844,123.652L243.404,122.822L243.404,121.992L243.404,121.162L242.624,119.917L242.624,118.672L243.404,118.257L244.965,117.843L245.745,117.428L247.305,117.013L248.865,116.598L248.865,115.768L248.085,114.108L248.085,113.278L248.085,112.448L248.085,112.033L248.865,111.204L249.645,110.374L250.426,108.714L249.645,107.054L247.305,104.979L244.184,102.905L241.064,101.66L238.723,101.245L236.383,101.245L235.603,101.245L234.823,101.245L234.043,100.415L232.482,99.585L232.482,98.34L232.482,97.511L233.262,96.681L234.043,96.266L235.603,95.021L237.163,94.606L237.943,94.606L238.723,95.436L241.064,95.851L242.624,97.096L244.184,97.925L245.745,97.925L248.085,97.925L248.865,98.755L249.645,99.585L248.865,100L247.305,101.245L245.745,102.49L244.184,103.32L241.844,103.735L240.284,104.979L240.284,105.809L240.284,106.639L240.284,107.469L241.844,107.884L244.184,108.299L246.525,108.299L248.865,108.299L252.766,107.884L255.887,108.299L257.447,108.714L259.007,109.959L259.007,110.789L257.447,112.448L256.667,113.693L257.447,114.938L257.447,115.353L257.447,116.183L257.447,117.013L256.667,117.428L255.887,117.843L255.887,119.087L256.667,119.502L259.007,119.502L261.348,119.502L263.688,119.502L266.028,119.502L268.369,120.332L270.709,121.162L273.05,121.992L275.39,121.992L276.95,121.992L277.731,121.162L276.95,119.917L276.95,119.087L276.17,118.257L274.61,116.598L273.83,115.768L273.05,114.938L270.709,113.693L267.589,112.863L266.028,112.033L265.248,110.789L264.468,109.544L265.248,108.299L266.809,106.639L268.369,104.979L268.369,103.32L268.369,102.075L266.809,100.83L265.248,99.585L262.128,98.34L259.007,96.681L256.667,95.436L255.887,95.021L255.887,94.606L257.447,95.021L259.787,96.266L262.908,97.096L266.028,97.511L267.589,97.925L267.589,97.511L268.369,96.681L269.149,96.266L269.149,95.436L269.149,94.606L270.709,93.776L271.489,93.361L272.27,92.531L273.83,92.116L276.17,92.531L276.95,93.361L278.511,94.191L280.071,95.436L280.851,96.266L281.631,96.266L283.972,96.681L285.532,96.266L287.092,95.021L289.433,93.776L291.773,92.531L292.553,90.457L293.333,89.212L292.553,87.967L291.773,86.722L290.213,85.477L289.433,85.062L287.872,84.233L287.092,84.233L284.752,84.647L282.411,85.477L280.071,85.477L277.731,85.062L275.39,83.818L273.83,82.158L273.83,80.083L273.83,78.008L273.83,75.934L274.61,73.859L274.61,71.784L273.83,69.71L273.83,68.05L274.61,66.39L274.61,64.73L274.61,63.486L274.61,62.241L273.05,60.996L271.489,60.581L269.149,60.996L267.589,60.996L265.248,61.411L264.468,61.411L262.908,60.581L262.908,59.336L262.128,58.921L261.348,58.091L260.567,57.262L261.348,56.432L262.128,55.602L262.908,53.942L265.248,52.282L266.809,50.622L267.589,48.963L268.369,47.718L269.929,46.473L270.709,45.228L272.27,44.398L273.05,43.569L273.83,41.909L273.83,40.249L273.83,38.589L272.27,36.515L270.709,35.27L269.149,34.44L267.589,33.61L265.248,32.78L263.688,31.95L262.128,30.291L260.567,28.216L259.787,26.971L260.567,26.141L262.128,25.726L264.468,26.141L265.248,27.386L266.028,27.801L266.809,28.631L267.589,29.876L269.149,31.12L272.27,32.365L276.17,33.61L278.511,34.025L279.291,33.61L280.071,32.78L280.071,31.12L279.291,29.461L278.511,28.216L278.511,26.971L278.511,25.311L277.731,23.651L276.95,21.992L277.731,20.332L278.511,19.502L279.291,19.087L280.851,19.502L283.192,20.747L283.972,21.992L283.972,22.822L283.972,24.066L284.752,25.311L285.532,26.556L287.872,27.801L290.213,28.631L291.773,28.631L291.773,28.216L290.213,27.801L287.872,27.801L287.092,28.631L285.532,29.876L285.532,30.705L287.092,31.535L289.433,32.365L290.993,32.365L292.553,32.78L292.553,33.61L290.993,34.44L288.652,35.27L287.092,36.93L286.312,37.759L286.312,38.174L287.872,38.174L290.213,37.759L290.993,37.344L292.553,37.344L294.113,38.174L295.674,39.004L296.454,40.249L298.794,41.494L299.574,42.739L301.135,43.983L302.695,45.643L304.255,47.303L304.255,48.133L304.255,48.963L304.255,49.793L302.695,50.622L300.355,50.622L299.574,51.037L298.794,51.867L296.454,51.867L294.894,51.867L294.113,52.697L291.773,53.942L289.433,54.357L288.652,54.772L287.872,54.357L286.312,53.942L285.532,52.697L286.312,51.452L286.312,50.208L285.532,49.793L284.752,48.963L283.192,48.963L280.851,48.963L279.291,49.793L278.511,50.622L277.731,51.452L277.731,52.282L277.731,53.942L276.17,54.772L274.61,54.772L273.05,55.187L272.27,55.602L270.709,55.602L269.149,55.602L266.809,55.602L265.248,54.772L262.128,53.527L259.007,52.282L255.887,51.867L252.766,52.282L249.645,53.527L248.085,54.357L246.525,54.772L244.965,55.187L244.184,55.602L243.404,56.017L241.064,56.432L238.723,57.676L237.943,58.506L236.383,58.506L235.603,57.676L235.603,56.847L235.603,56.017L234.823,54.772L234.043,53.527L233.262,52.697L232.482,51.867L231.702,50.622L231.702,49.378L233.262,48.548L234.823,47.303L237.163,46.473L240.284,46.058L241.844,46.058L242.624,46.473L241.844,47.718L240.284,48.548L239.504,49.378L239.504,50.622L240.284,51.037L241.844,50.622L244.184,50.208L245.745,48.963L246.525,46.888L247.305,44.813L248.085,43.569L247.305,42.324L246.525,41.079L245.745,39.834L243.404,38.589L241.844,36.515L240.284,34.855L237.943,33.61L236.383,32.365L234.823,31.95L232.482,31.535L230.142,31.12L227.801,30.291L225.461,30.291L223.121,29.461L220.78,29.461L218.44,29.046L216.879,29.461L215.319,29.876L215.319,31.12L215.319,31.535L216.879,32.78L218.44,33.195L220.78,33.195L223.121,33.195L226.241,33.61L228.582,34.025L231.702,34.855L234.043,36.1L234.823,37.344L235.603,38.589L235.603,39.004L234.043,39.004L231.702,38.174L230.142,37.344L227.021,36.93L224.681,36.515L223.901,36.93L224.681,38.174L225.461,38.589L226.241,39.004L227.801,40.249L229.362,41.494L230.142,41.909L231.702,43.154L234.823,43.569L236.383,43.569L237.943,42.739L239.504,41.909L241.064,40.249L241.064,38.589L242.624,36.93L243.404,35.27L244.184,33.61L244.965,31.95L245.745,30.291L245.745,28.216L244.965,26.141L243.404,24.896L241.064,23.651L240.284,23.237L239.504,23.651L239.504,24.896L239.504,26.141L238.723,27.386L236.383,27.801L233.262,27.386L230.922,26.141L230.142,24.481L230.142,22.822L231.702,21.577L234.043,20.332L234.823,19.502L235.603,18.257L236.383,17.012L235.603,15.353L234.043,14.108L234.043,13.278L233.262,13.278L231.702,13.693L230.142,14.938L229.362,16.598L228.582,17.427L227.801,18.257L227.021,19.502L226.241,20.332L224.681,20.747L223.121,21.162L221.56,20.747L221.56,19.502L223.121,17.842L224.681,16.183L225.461,14.523L225.461,13.278L224.681,12.863L222.34,12.448L220.78,12.448L220,13.278L219.22,14.108L218.44,14.938L218.44,16.598L217.66,17.842L216.099,18.257L214.539,18.672L212.979,18.257L210.638,17.012L208.298,15.353L205.177,13.693L202.057,11.618L198.936,9.544L195.816,7.469L193.475,5.394L191.135,3.32L190.355,1.66L188.794,0.83L187.234,0"/></g><g transform="translate(0,218.67257999999998)" fill="rgb(68, 68, 68)" font-size="10" font-family="sans-serif" text-anchor="middle"><path class="domain" stroke="currentColor" d="M0,0H330"/><g class="tick" opacity="1" transform="translate(26.524815295593626,0)"><line stroke="currentColor" y2="5"/><text fill="currentColor" y="8" dy="0.71em">50</text></g><g class="tick" opacity="1" transform="translate(65.53191104175932,0)"><line stroke="currentColor" y2="5"/><text fill="currentColor" y="8" dy="0.71em">60</text></g><g class="tick" opacity="1" transform="translate(104.53900678792502,0)"><line stroke="currentColor" y2="5"/><text fill="currentColor" y="8" dy="0.71em">70</text></g><g class="tick" opacity="1" transform="translate(143.54610253409072,0)"><line stroke="currentColor" y2="5"/><text fill="currentColor" y="8" dy="0.71em">80</text></g><g class="tick" opacity="1" transform="translate(182.55319828025642,0)"><line stroke="currentColor" y2="5"/><text fill="currentColor" y="8" dy="0.71em">90</text></g><g class="tick" opacity="1" transform="translate(221.56029402642213,0)"><line stroke="currentColor" y2="5"/><text fill="currentColor" y="8" dy="0.71em">100</text></g><g class="tick" opacity="1" transform="translate(260.56738977258783,0)"><line stroke="currentColor" y2="5"/><text fill="currentColor" y="8" dy="0.71em">110</text></g><g class="tick" opacity="1" transform="translate(299.57448551875353,0)"><line stroke="currentColor" y2="5"/><text fill="currentColor" y="8" dy="0.71em">120</text></g></g><g fill="rgb(68, 68, 68)" font-size="10" font-family="sans-serif" text-anchor="end"><path class="domain" stroke="currentColor" d="M0,218.67257999999998V0"/><g class="tick" opacity="1" transform="translate(0,200.4152893213687)"><line stroke="currentColor" x2="-5"/><text fill="currentColor" x="-8" dy="0.32em">10</text></g><g class="tick" opacity="1" transform="translate(0,179.66836426419735)"><line stroke="currentColor" x2="-5"/><text fill="currentColor" x="-8" dy="0.32em">20</text></g><g class="tick" opacity="1" transform="translate(0,158.92143920702603)"><line stroke="currentColor" x2="-5"/><text fill="currentColor" x="-8" dy="0.32em">30</text></g><g class="tick" opacity="1" transform="translate(0,138.17451414985467)"><line stroke="currentColor" x2="-5"/><text fill="currentColor" x="-8" dy="0.32em">40</text></g><g class="tick" opacity="1" transform="translate(0,117.42758909268335)"><line stroke="currentColor" x2="-5"/><text fill="currentColor" x="-8" dy="0.32em">50</text></g><g class="tick" opacity="1" transform="translate(0,96.68066403551201)"><line stroke="currentColor" x2="-5"/><text fill="currentColor" x="-8" dy="0.32em">60</text></g><g class="tick" opacity="1" transform="translate(0,75.93373897834067)"><line stroke="currentColor" x2="-5"/><text fill="currentColor" x="-8" dy="0.32em">70</text></g><g class="tick" opacity="1" transform="translate(0,55.18681392116935)"><line stroke="currentColor" x2="-5"/><text fill="currentColor" x="-8" dy="0.32em">80</text></g><g class="tick" opacity="1" transform="translate(0,34.43988886399802)"><line stroke="currentColor" x2="-5"/><text fill="currentColor" x="-8" dy="0.32em">90</text></g><g class="tick" opacity="1" transform="translate(0,13.69296380682668)"><line stroke="currentColor" x2="-5"/><text fill="currentColor" x="-8" dy="0.32em">100</text></g></g></g></svg>