<?xml version="1.0" encoding="utf-8"?>
<!-- Generator: Adobe Illustrator 26.5.0, SVG Export Plug-In . SVG Version: 6.00 Build 0)  -->
<svg version="1.1" id="Layer_1" xmlns="http://www.w3.org/2000/svg" xmlns:xlink="http://www.w3.org/1999/xlink" x="0px" y="0px"
	 viewBox="0 0 212.6 212.5" style="enable-background:new 0 0 212.6 212.5;" xml:space="preserve">
<style type="text/css">
	.st0{fill:#D3337B;}
	.st1{display:none;}
	.st2{display:inline;fill:#8095A1;}
</style>
<g>
	<g id="Layer_2_00000069362284490082048960000008890646949251778488_">
		<g>
			<g>
				<g id="p17HiGKS6N_00000098932426822396795170000003877197690229538971_">
					<path class="st0" d="M79.3,211.4c0,0.6,0.5,1.1,1.1,1.1h1.2c0.6,0,1.1-0.5,1.1-1.1v-1.2c0-0.6-0.5-1.1-1.1-1.1h-1.2
						c-0.6,0-1.1,0.5-1.1,1.1V211.4z"/>
				</g>
				<g id="pMa7wO5zI_00000009565606322902765740000004852120475279160239_">
					<path class="st0" d="M90.1,210.5c0,0.6,0.5,1.1,1.1,1.1h2.6c0.6,0,1.1-0.5,1.1-1.1v-1.6c0-0.6-0.5-1.1-1.1-1.1h-2.6
						c-0.6,0-1.1,0.5-1.1,1.1V210.5z"/>
				</g>
				<path id="p179fAChyF_00000141418403655123013550000009296019344140971926_" class="st0" d="M99.8,208.7
					c-3.1-2.2-6.8-5.4-10.6-6.9c-1.2,0-2.2-3.6-2.7-4.5c-2.4,0.3-7.9-6.4-2.8-5.9c4.4-0.1,1.6,6.2,5.6,5.7c2.2,0.1,2.7,0.5,3.4,2.6
					c0.5,1.6,0.9,1.8,2.9,1.8c2-0.2,3,3.5,5.5,2.8C106.1,203.9,103.2,210.5,99.8,208.7z"/>
				<g id="pIIHWPwOd_00000101795282601735509000000000760064940968948147_">
					<path class="st0" d="M69.5,207.7c0,0.6,0.5,1.1,1.1,1.1h4.2c0.6,0,1.1-0.5,1.1-1.1v-3c0-0.6-0.5-1.1-1.1-1.1h-4.2
						c-0.6,0-1.1,0.5-1.1,1.1V207.7z"/>
				</g>
				<g id="pVjyPykMF_00000138537188695485746730000001755223037906321822_">
					<path class="st0" d="M83.3,207.9c0,0.6,0.5,1.1,1.1,1.1h3c0.6,0,1.1-0.5,1.1-1.1v-3c0-0.6-0.5-1.1-1.1-1.1h-3
						c-0.6,0-1.1,0.5-1.1,1.1L83.3,207.9L83.3,207.9z"/>
				</g>
				<g id="p32GVXz0V_00000096030896201409043520000010111689372717783710_">
					<path class="st0" d="M61.4,207.4c0,0.6,0.5,1.1,1.1,1.1h2.8c0.6,0,1.1-0.5,1.1-1.1v-1c0-0.6-0.5-1.1-1.1-1.1h-2.8
						c-0.6,0-1.1,0.5-1.1,1.1V207.4z"/>
				</g>
				<path id="p1HL4g7683_00000018199706262958436390000014589060179352962980_" class="st0" d="M107.3,204
					c-6.4-2.4-14.2-8.5-17.7-14.3c2.8-3.5,9.4,6.1,13.4,6.8C106.9,198.4,119.3,204.6,107.3,204z"/>
				<g id="p2P72DdnD_00000036933376872242828250000001787153873543979442_">
					<path class="st0" d="M77.7,202.9c0,0.6,0.5,1.1,1.1,1.1H82c0.6,0,1.1-0.5,1.1-1.1v-3.1c0-0.6-0.5-1.1-1.1-1.1h-3.2
						c-0.6,0-1.1,0.5-1.1,1.1V202.9z"/>
				</g>
				<g id="ptJFnBqQu_00000065052989609321763380000000765813592552690330_">
					<path class="st0" d="M57.9,201.1c0,0.6,0.5,1.1,1.1,1.1h3c0.6,0,1.1-0.5,1.1-1.1v-1.2c0-0.6-0.5-1.1-1.1-1.1h-3
						c-0.6,0-1.1,0.5-1.1,1.1V201.1z"/>
				</g>
				<g id="pFNNfQSsF_00000099630755813610769370000012433077373537329585_">
					<path class="st0" d="M51.9,200.8c0,0.6,0.5,1.1,1.1,1.1h1.1c0.6,0,1.1-0.5,1.1-1.1v-0.3c0-0.6-0.5-1.1-1.1-1.1H53
						c-0.6,0-1.1,0.5-1.1,1.1V200.8z"/>
				</g>
				<g id="pktrvynQf_00000175294525970812675720000014251689044477079199_">
					<path class="st0" d="M65.6,200.2c0,0.6,0.5,1.1,1.1,1.1H70c0.6,0,1.1-0.5,1.1-1.1v-2.1c0-0.6-0.5-1.1-1.1-1.1h-3.4
						c-0.6,0-1.1,0.5-1.1,1.1V200.2z"/>
				</g>
				<path id="p9dEc2HI6_00000138543212840011356280000001588887974729511813_" class="st0" d="M113,198.6c-3.8-2.2-5.8-3.9-9.2-5.5
					c-1-1.2-0.4-3-2.3-2.6c-5.4,0.2-3.8-8.7,1-3C106.2,190.3,131,199.3,113,198.6z"/>
				<g id="pAwrpY26W_00000043438095060689027820000010702947312423788729_">
					<path class="st0" d="M73.9,197c0,0.6,0.5,1.1,1.1,1.1H77c0.6,0,1.1-0.5,1.1-1.1v-1.8c0-0.6-0.5-1.1-1.1-1.1h-2.1
						c-0.6,0-1.1,0.5-1.1,1.1V197z"/>
				</g>
				<g id="p03dmIT0H_00000165935571163158216990000014089825294878925715_">
					<path class="st0" d="M54,194.5c0,0.6,0.5,1.1,1.1,1.1h2.1c0.6,0,1.1-0.5,1.1-1.1v-1.9c0-0.6-0.5-1.1-1.1-1.1h-2.1
						c-0.6,0-1.1,0.5-1.1,1.1V194.5z"/>
				</g>
				<g id="pmDFLb47o_00000150810979451351876860000015177954418997835684_">
					<path class="st0" d="M45,193.9c0,0.6,0.5,1.1,1.1,1.1H48c0.6,0,1.1-0.5,1.1-1.1V192c0-0.6-0.5-1.1-1.1-1.1h-1.9
						c-0.6,0-1.1,0.5-1.1,1.1V193.9z"/>
				</g>
				<g id="p14KuQCSMo_00000025405718344659191420000007620289888801530260_">
					<path class="st0" d="M62.2,192.8c0,0.6,0.5,1.1,1.1,1.1h2.1c0.6,0,1.1-0.5,1.1-1.1v-1.2c0-0.6-0.5-1.1-1.1-1.1h-2.1
						c-0.6,0-1.1,0.5-1.1,1.1V192.8z"/>
				</g>
				<path id="phZSTSaeE_00000003064874574084269260000001741561422298398395_" class="st0" d="M119.4,192.7
					c-5.9-3-14.9-5.7-17.6-12.4c2.6-2.4,10.4,5.2,14.9,5.3C125.3,186.4,132.3,194.2,119.4,192.7z"/>
				<g id="p11eADbchl_00000062905530716645490850000014399131588027329725_">
					<path class="st0" d="M69.8,190.5c0,0.6,0.5,1.1,1.1,1.1H73c0.6,0,1.1-0.5,1.1-1.1v-2.1c0-0.6-0.5-1.1-1.1-1.1h-2.1
						c-0.6,0-1.1,0.5-1.1,1.1V190.5z"/>
				</g>
				<g id="ph4IDrhSU_00000074441282926572014060000000267973440075717562_">
					<path class="st0" d="M77.7,188.1c0,0.6,0.5,1.1,1.1,1.1H80c0.6,0,1.1-0.5,1.1-1.1v-1.4c0-0.6-0.5-1.1-1.1-1.1h-1.2
						c-0.6,0-1.1,0.5-1.1,1.1V188.1z"/>
				</g>
				<g id="pvU5pfwmd_00000036227641835401877370000011332570097285932190_">
					<path class="st0" d="M49.5,187.3c0,0.6,0.5,1.1,1.1,1.1h2.3c0.6,0,1.1-0.5,1.1-1.1v-2.4c0-0.6-0.5-1.1-1.1-1.1h-2.3
						c-0.6,0-1.1,0.5-1.1,1.1V187.3z"/>
				</g>
				<g id="p19wK0fX22_00000172413218851809350710000012950877571299247037_">
					<path class="st0" d="M40.7,186.2c0,0.6,0.5,1.1,1.1,1.1h1.6c0.6,0,1.1-0.5,1.1-1.1v-2.8c0-0.6-0.5-1.1-1.1-1.1h-1.6
						c-0.6,0-1.1,0.5-1.1,1.1V186.2z"/>
				</g>
				<g id="pmI1TfoV1_00000071546664007621078360000000899195201031333784_">
					<path class="st0" d="M58.6,186.1c0,0.6,0.5,1.1,1.1,1.1h1.3c0.6,0,1.1-0.5,1.1-1.1v-1.8c0-0.6-0.5-1.1-1.1-1.1h-1.3
						c-0.6,0-1.1,0.5-1.1,1.1V186.1z"/>
				</g>
				<g id="pItNO8qlR_00000182492504880340137570000015614151985566807447_">
					<path class="st0" d="M86.8,185.9c0,0.6,0.5,1,1,1s1-0.5,1-1v-1.2c0-0.6-0.5-1-1-1s-1,0.5-1,1V185.9z"/>
				</g>
				<path id="pWus32TMl_00000042726954780507336710000005819224201885368224_" class="st0" d="M125.8,186
					c-1.8,0.8-24.8-9.5-13.1-9.6c3.2,2.6,24.5,3.2,21.6,6.9C134,185.3,129.9,186.6,125.8,186z"/>
				<g id="pUpnmPzR_00000132055551504883224050000004081084929883269038_">
					<path class="st0" d="M93.6,184c0,0.6,0.5,1.1,1.1,1.1h0.9c0.6,0,1.1-0.5,1.1-1.1v-1c0-0.6-0.5-1.1-1.1-1.1h-0.9
						c-0.6,0-1.1,0.5-1.1,1.1V184z"/>
				</g>
				<g id="p8WrKPXSl_00000046306852016670916960000017512359759094456494_">
					<path class="st0" d="M66.3,182.5c0,0.6,0.5,1.1,1.1,1.1h0.6c0.6,0,1.1-0.5,1.1-1.1v-0.7c0-0.6-0.5-1.1-1.1-1.1h-0.6
						c-0.6,0-1.1,0.5-1.1,1.1V182.5z"/>
				</g>
				<g id="pfTRbRAcu_00000140001075509888547040000000389393270947573891_">
					<path class="st0" d="M46.9,178.4c0,0.6,0.5,1.1,1.1,1.1h1.2c0.6,0,1.1-0.5,1.1-1.1v-1.1c0-0.6-0.5-1.1-1.1-1.1H48
						c-0.6,0-1.1,0.5-1.1,1.1V178.4z"/>
				</g>
				<g id="p1CsdzUDfd_00000088816509316070753790000004609040963354717595_">
					<path class="st0" d="M37.8,177.2c0,0.6,0.5,1.1,1.1,1.1h1.7c0.6,0,1.1-0.5,1.1-1.1v-1.6c0-0.6-0.5-1.1-1.1-1.1h-1.7
						c-0.6,0-1.1,0.5-1.1,1.1V177.2z"/>
				</g>
				<path id="p28ueTBB2_00000159443365819083453280000017581715680680087212_" class="st0" d="M128.4,177.8
					c-6.3,1.1-21.1-8.3-6.5-6.5c5.4,0.8,16.9,0.9,19.2,1.2C141.8,178.8,132.5,178.6,128.4,177.8z"/>
				<g id="pZ36YldAu_00000155853301040759063920000003504595504138276001_">
					<path class="st0" d="M64.2,176.1c0,0.4,0.3,0.6,0.6,0.6c0.4,0,0.6-0.3,0.6-0.6v-0.2c0-0.4-0.3-0.6-0.6-0.6
						c-0.4,0-0.6,0.3-0.6,0.6V176.1z"/>
				</g>
				<g id="p3lNHDktB_00000044175404019293383920000001266209579718182310_">
					<path class="st0" d="M46,170.9c0,0.4,0.3,0.7,0.7,0.7h0.1c0.4,0,0.7-0.3,0.7-0.7s-0.3-0.7-0.7-0.7h0
						C46.3,170.2,46,170.5,46,170.9C46,170.9,46,170.5,46,170.9z"/>
				</g>
				<path id="p5xbr8Kml_00000179629808914538460720000005973177504920817838_" class="st0" d="M138.7,170c-4.2-1-12.1,0.3-15.9-1.6
					C116,161.8,165.7,163.1,138.7,170z"/>
				<g id="pM2CAbfWa_00000127039593998623031560000005521157234052135068_">
					<path class="st0" d="M36.2,168.5c0,0.6,0.5,1.1,1.1,1.1h0.3c0.6,0,1.1-0.5,1.1-1.1v-0.6c0-0.6-0.5-1.1-1.1-1.1h-0.3
						c-0.6,0-1.1,0.5-1.1,1.1V168.5z"/>
				</g>
				<path id="pE0g4V9dd_00000078041643426362504640000004293640264707281547_" class="st0" d="M133.8,162
					c-18.7-1.8,13.7-8.4,17.7-7.6c0.5,3.9-4.1,5.8-6.3,8C142.3,160.3,138.6,163.2,133.8,162z"/>
				<g id="pfpT4Whm5_00000002350618041446069050000008785064363572036278_">
					<path class="st0" d="M34.9,160.6c0,0.4,0.3,0.7,0.7,0.7h0.5c0.4,0,0.7-0.3,0.7-0.7c0-0.4-0.3-0.7-0.7-0.7h-0.5
						C35.2,159.9,34.9,160.2,34.9,160.6C34.9,160.6,34.9,160.2,34.9,160.6z"/>
				</g>
				<path id="piGG8l9EC_00000000926651319868937180000008282361379909743775_" class="st0" d="M139.1,153.6
					c-15.8-0.6,11.2-10.2,15.4-8.5C157.8,150.8,143.3,154.5,139.1,153.6z"/>
				<path id="p1FrCbeQPK_00000181787058857941807270000003254118227535420052_" class="st0" d="M140.3,144.9c-4.2-4.6,10-6.3,11-7.7
					C167.3,133.4,146.2,147.6,140.3,144.9z"/>
				<path id="p1Blgp3wxQ_00000157285222055082746000000011317669554162360503_" class="st0" d="M143.7,136.7
					c-2.6-6.7,8.5-6.2,11.2-9.1C165,126,146.9,139.7,143.7,136.7z"/>
				<path id="pvY5tuQz2_00000123434291094477608980000003497097467935497617_" class="st0" d="M147.2,127.5
					c-6.2-5.5,7.8-7.7,9.6-10.5C161.1,120.5,151.1,128.6,147.2,127.5z"/>
				<path id="pkS7K9h40_00000183214373217654583310000001133105265653020326_" class="st0" d="M148.8,117.7c-7.4-0.1,6.6-11,7.5-7.5
					c0.9,2.9-2.6,2.8-3.5,5.5C151.6,118.8,151.4,117.7,148.8,117.7z"/>
				<path id="pGnrbGMtq_00000088852629566266347930000016062741212450744507_" class="st0" d="M147.4,107.7c-2.9-2.2,5.1-9,7.5-7
					C155.3,104.2,151,109.2,147.4,107.7z"/>
				<path id="p1BHBw7pcS_00000160898004498935925440000003308906772669448341_" class="st0" d="M146.1,98.5
					c-2.2-2.6,2.6-8.8,5.7-6.8C154,94,148.3,100,146.1,98.5z"/>
				<g id="pBLb7A49h_00000160900206572769816810000013375837019922853538_">
					<path class="st0" d="M142.7,87.9c0,0.6,0.5,1.1,1.1,1.1h3.4c0.6,0,1.1-0.5,1.1-1.1v-3.3c0-0.6-0.5-1.1-1.1-1.1h-3.4
						c-0.6,0-1.1,0.5-1.1,1.1V87.9z"/>
				</g>
				<g id="p1DfIVgoba_00000050655375504329415450000005009841193596270270_">
					<path class="st0" d="M137.4,79.8c0,0.6,0.5,1.1,1.1,1.1h3c0.6,0,1.1-0.5,1.1-1.1v-2.8c0-0.6-0.5-1.1-1.1-1.1h-3
						c-0.6,0-1.1,0.5-1.1,1.1V79.8z"/>
				</g>
				<g id="pgwxiPBYZ_00000072254489655748418020000001840707701626143661_">
					<path class="st0" d="M131.2,73c0,0.6,0.5,1.1,1.1,1.1h2.5c0.6,0,1.1-0.5,1.1-1.1V71c0-0.6-0.5-1.1-1.1-1.1h-2.5
						c-0.6,0-1.1,0.5-1.1,1.1V73z"/>
				</g>
				<g id="pD9xduLDC_00000028289455524705153930000009757589729354468249_">
					<path class="st0" d="M77.2,72.3c0,0.5,0.4,0.9,0.9,0.9s0.9-0.4,0.9-0.9V72c0-0.5-0.4-0.9-0.9-0.9s-0.9,0.4-0.9,0.9V72.3z"/>
				</g>
				<g id="p6On383Vn_00000090996500243026014130000008266319152556000423_">
					<path class="st0" d="M83.6,67.8c0,0.6,0.5,1.1,1.1,1.1h2.2c0.6,0,1.1-0.5,1.1-1.1v-2.1c0-0.6-0.5-1.1-1.1-1.1h-2.2
						c-0.6,0-1.1,0.5-1.1,1.1L83.6,67.8L83.6,67.8z"/>
				</g>
				<g id="pVYByLNuv_00000128454401291372782470000000337631671261266595_">
					<path class="st0" d="M123.3,67.6c0,0.6,0.5,1.1,1.1,1.1h1.8c0.6,0,1.1-0.5,1.1-1.1v-1.8c0-0.6-0.5-1.1-1.1-1.1h-1.8
						c-0.6,0-1.1,0.5-1.1,1.1V67.6z"/>
				</g>
				<g id="pHQTGWeLZ_00000057847205509623676310000003256780992860157106_">
					<path class="st0" d="M92.4,64.9c0,0.6,0.5,1.1,1.1,1.1h2.6c0.6,0,1.1-0.5,1.1-1.1v-2.5c0-0.6-0.5-1.1-1.1-1.1h-2.6
						c-0.6,0-1.1,0.5-1.1,1.1V64.9z"/>
				</g>
				<g id="pBiysdhd0_00000091732423496856831120000016401560106061570718_">
					<path class="st0" d="M102.2,64c0,0.6,0.5,1.1,1.1,1.1h3.1c0.6,0,1.1-0.5,1.1-1.1v-3c0-0.6-0.5-1.1-1.1-1.1h-3.1
						c-0.6,0-1.1,0.5-1.1,1.1V64z"/>
				</g>
				<g id="pBiysdhd0_00000179621551954814576540000009330994983993039533_">
					<path class="st0" d="M112.8,64.4c0,0.6,0.5,1.1,1.1,1.1h3.1c0.6,0,1.1-0.5,1.1-1.1v-3c0-0.6-0.5-1.1-1.1-1.1h-3.1
						c-0.6,0-1.1,0.5-1.1,1.1V64.4z"/>
				</g>
			</g>
			<g>
				<g id="p17HiGKS6N_00000175323480381324707490000016934405264429264026_">
					<path class="st0" d="M130.4,2.3c0,0.6,0.5,1.1,1.1,1.1h1.2c0.6,0,1.1-0.5,1.1-1.1V1.1c0-0.6-0.5-1.1-1.1-1.1h-1.2
						c-0.6,0-1.1,0.5-1.1,1.1V2.3z"/>
				</g>
				<g id="pMa7wO5zI_00000050633569336196866390000011139708733851383440_">
					<path class="st0" d="M118.1,3.7c0,0.6,0.5,1.1,1.1,1.1h2.6c0.6,0,1.1-0.5,1.1-1.1V2.1c0-0.6-0.5-1.1-1.1-1.1h-2.6
						c-0.6,0-1.1,0.5-1.1,1.1V3.7z"/>
				</g>
				<path id="p179fAChyF_00000068652982744265385150000017483417188025210801_" class="st0" d="M113.3,3.8c3.1,2.2,6.8,5.4,10.6,6.9
					c1.2,0,2.2,3.6,2.7,4.5c2.4-0.3,7.9,6.4,2.8,5.9c-4.4,0.1-1.6-6.2-5.6-5.7c-2.2-0.1-2.7-0.5-3.4-2.6c-0.5-1.6-0.9-1.8-2.9-1.8
					c-2,0.2-3-3.5-5.5-2.8C107,8.6,109.9,2,113.3,3.8z"/>
				<g id="pIIHWPwOd_00000013192164310327893660000011225032323710676376_">
					<path class="st0" d="M137.2,7.8c0,0.6,0.5,1.1,1.1,1.1h4.2c0.6,0,1.1-0.5,1.1-1.1v-3c0-0.6-0.5-1.1-1.1-1.1h-4.2
						c-0.6,0-1.1,0.5-1.1,1.1V7.8z"/>
				</g>
				<g id="pVjyPykMF_00000068668903195841885870000010173957940668372104_">
					<path class="st0" d="M124.5,7.6c0,0.6,0.5,1.1,1.1,1.1h3c0.6,0,1.1-0.5,1.1-1.1v-3c0-0.6-0.5-1.1-1.1-1.1h-3
						c-0.6,0-1.1,0.5-1.1,1.1V7.6z"/>
				</g>
				<g id="p32GVXz0V_00000152249458417383753890000004481656910300802212_">
					<path class="st0" d="M146.7,6.2c0,0.6,0.5,1.1,1.1,1.1h2.8c0.6,0,1.1-0.5,1.1-1.1v-1c0-0.6-0.5-1.1-1.1-1.1h-2.8
						c-0.6,0-1.1,0.5-1.1,1.1V6.2z"/>
				</g>
				<path id="p1HL4g7683_00000029767734943943466280000012525376260053216408_" class="st0" d="M105.8,8.5
					c6.4,2.4,14.2,8.5,17.7,14.3c-2.8,3.5-9.4-6.1-13.4-6.8C106.1,14.1,93.8,7.9,105.8,8.5z"/>
				<g id="p2P72DdnD_00000044876323631728419110000014551684837918298011_">
					<path class="st0" d="M129.9,12.7c0,0.6,0.5,1.1,1.1,1.1h3.2c0.6,0,1.1-0.5,1.1-1.1V9.6c0-0.6-0.5-1.1-1.1-1.1H131
						c-0.6,0-1.1,0.5-1.1,1.1V12.7z"/>
				</g>
				<g id="ptJFnBqQu_00000091003615028631645360000006298913420520143253_">
					<path class="st0" d="M150,12.7c0,0.6,0.5,1.1,1.1,1.1h3c0.6,0,1.1-0.5,1.1-1.1v-1.2c0-0.6-0.5-1.1-1.1-1.1h-3
						c-0.6,0-1.1,0.5-1.1,1.1V12.7z"/>
				</g>
				<g id="pFNNfQSsF_00000030479886895251638890000016737232687548485024_">
					<path class="st0" d="M157.8,12c0,0.6,0.5,1.1,1.1,1.1h1.1c0.6,0,1.1-0.5,1.1-1.1v-0.3c0-0.6-0.5-1.1-1.1-1.1h-1.1
						c-0.6,0-1.1,0.5-1.1,1.1V12z"/>
				</g>
				<g id="pktrvynQf_00000060715626801105316670000012136812357832093331_">
					<path class="st0" d="M141.9,14.4c0,0.6,0.5,1.1,1.1,1.1h3.4c0.6,0,1.1-0.5,1.1-1.1v-2.1c0-0.6-0.5-1.1-1.1-1.1H143
						c-0.6,0-1.1,0.5-1.1,1.1V14.4z"/>
				</g>
				<path id="p9dEc2HI6_00000158712040703334278090000016935040240250018962_" class="st0" d="M100,13.9c3.8,2.2,5.8,3.9,9.2,5.5
					c1,1.2,0.4,3,2.3,2.6c5.4-0.2,3.8,8.7-1,3C106.8,22.2,82.1,13.2,100,13.9z"/>
				<g id="pAwrpY26W_00000181047232559947067080000002245692689290211457_">
					<path class="st0" d="M134.9,17.3c0,0.6,0.5,1.1,1.1,1.1h2.1c0.6,0,1.1-0.5,1.1-1.1v-1.8c0-0.6-0.5-1.1-1.1-1.1H136
						c-0.6,0-1.1,0.5-1.1,1.1V17.3z"/>
				</g>
				<g id="p03dmIT0H_00000105414753856277738010000015426525474228873647_">
					<path class="st0" d="M154.8,20c0,0.6,0.5,1.1,1.1,1.1h2.1c0.6,0,1.1-0.5,1.1-1.1V18c0-0.6-0.5-1.1-1.1-1.1h-2.1
						c-0.6,0-1.1,0.5-1.1,1.1V20z"/>
				</g>
				<g id="pmDFLb47o_00000081634728235766110270000010690519251847324818_">
					<path class="st0" d="M163.9,20.5c0,0.6,0.5,1.1,1.1,1.1h1.9c0.6,0,1.1-0.5,1.1-1.1v-1.9c0-0.6-0.5-1.1-1.1-1.1H165
						c-0.6,0-1.1,0.5-1.1,1.1V20.5z"/>
				</g>
				<g id="p14KuQCSMo_00000183245349799651694340000010332009180978326463_">
					<path class="st0" d="M146.6,21c0,0.6,0.5,1.1,1.1,1.1h2.1c0.6,0,1.1-0.5,1.1-1.1v-1.2c0-0.6-0.5-1.1-1.1-1.1h-2.1
						c-0.6,0-1.1,0.5-1.1,1.1V21z"/>
				</g>
				<path id="phZSTSaeE_00000133513723409814774610000016403972428201341349_" class="st0" d="M93.6,19.8c5.9,3,14.9,5.7,17.6,12.4
					c-2.6,2.4-10.4-5.2-14.9-5.3C87.8,26.2,80.8,18.4,93.6,19.8z"/>
				<g id="p11eADbchl_00000138545583721612071760000016411501810663721134_">
					<path class="st0" d="M139,24.1c0,0.6,0.5,1.1,1.1,1.1h2.1c0.6,0,1.1-0.5,1.1-1.1V22c0-0.6-0.5-1.1-1.1-1.1h-2.1
						c-0.6,0-1.1,0.5-1.1,1.1V24.1z"/>
				</g>
				<g id="ph4IDrhSU_00000067957788459951720210000016528959565031240607_">
					<path class="st0" d="M132,25.8c0,0.6,0.5,1.1,1.1,1.1h1.2c0.6,0,1.1-0.5,1.1-1.1v-1.4c0-0.6-0.5-1.1-1.1-1.1h-1.2
						c-0.6,0-1.1,0.5-1.1,1.1V25.8z"/>
				</g>
				<g id="pvU5pfwmd_00000170266967140116916980000012765143809436857231_">
					<path class="st0" d="M159.1,27.7c0,0.6,0.5,1.1,1.1,1.1h2.3c0.6,0,1.1-0.5,1.1-1.1v-2.4c0-0.6-0.5-1.1-1.1-1.1h-2.3
						c-0.6,0-1.1,0.5-1.1,1.1V27.7z"/>
				</g>
				<g id="p19wK0fX22_00000174559683011798577090000008589815150439400855_">
					<path class="st0" d="M168.6,29.1c0,0.6,0.5,1.1,1.1,1.1h1.6c0.6,0,1.1-0.5,1.1-1.1v-2.8c0-0.6-0.5-1.1-1.1-1.1h-1.6
						c-0.6,0-1.1,0.5-1.1,1.1V29.1z"/>
				</g>
				<g id="pmI1TfoV1_00000143596210449989426590000015125308080321048494_">
					<path class="st0" d="M151,28.3c0,0.6,0.5,1.1,1.1,1.1h1.3c0.6,0,1.1-0.5,1.1-1.1v-1.8c0-0.6-0.5-1.1-1.1-1.1h-1.3
						c-0.6,0-1.1,0.5-1.1,1.1V28.3z"/>
				</g>
				<g id="pItNO8qlR_00000131342294910666938850000005773240985835317648_">
					<path class="st0" d="M124.1,27.8c0,0.6,0.5,1,1,1c0.6,0,1-0.5,1-1v-1.2c0-0.6-0.5-1-1-1c-0.6,0-1,0.5-1,1V27.8z"/>
				</g>
				<path id="pWus32TMl_00000016062511653262712260000013448566475396372371_" class="st0" d="M87.3,26.5c1.8-0.8,24.8,9.5,13.1,9.6
					c-3.2-2.6-24.5-3.2-21.6-6.9C79,27.3,83.2,26,87.3,26.5z"/>
				<g id="pUpnmPzR_00000168083844922888982390000005653389590427409844_">
					<path class="st0" d="M116.4,29.5c0,0.6,0.5,1.1,1.1,1.1h0.9c0.6,0,1.1-0.5,1.1-1.1v-1c0-0.6-0.5-1.1-1.1-1.1h-0.9
						c-0.6,0-1.1,0.5-1.1,1.1V29.5z"/>
				</g>
				<g id="p8WrKPXSl_00000135653447115492507060000003456510021629408403_">
					<path class="st0" d="M143.9,30.8c0,0.6,0.5,1.1,1.1,1.1h0.6c0.6,0,1.1-0.5,1.1-1.1v-0.7c0-0.6-0.5-1.1-1.1-1.1H145
						c-0.6,0-1.1,0.5-1.1,1.1V30.8z"/>
				</g>
				<g id="pfTRbRAcu_00000097494759845438942710000015577331307589619877_">
					<path class="st0" d="M162.7,35.4c0,0.6,0.5,1.1,1.1,1.1h1.2c0.6,0,1.1-0.5,1.1-1.1v-1.1c0-0.6-0.5-1.1-1.1-1.1h-1.2
						c-0.6,0-1.1,0.5-1.1,1.1V35.4z"/>
				</g>
				<g id="p1CsdzUDfd_00000052809059147351325840000008395495447020780473_">
					<path class="st0" d="M171.3,37c0,0.6,0.5,1.1,1.1,1.1h1.7c0.6,0,1.1-0.5,1.1-1.1v-1.6c0-0.6-0.5-1.1-1.1-1.1h-1.7
						c-0.6,0-1.1,0.5-1.1,1.1V37z"/>
				</g>
				<path id="p28ueTBB2_00000139988471956638529760000002790705950543236281_" class="st0" d="M84.6,34.8c6.3-1.1,21.1,8.3,6.5,6.5
					c-5.4-0.8-16.9-0.9-19.2-1.2C71.3,33.7,80.6,34,84.6,34.8z"/>
				<g id="pZ36YldAu_00000156576236805820996570000008048561028460295304_">
					<path class="st0" d="M147.6,36.7c0,0.4,0.3,0.6,0.6,0.6s0.6-0.3,0.6-0.6v-0.2c0-0.4-0.3-0.6-0.6-0.6s-0.6,0.3-0.6,0.6V36.7z"/>
				</g>
				<g id="p3lNHDktB_00000169542853341026184040000002930064562837117842_">
					<path class="st0" d="M165.6,41.7c0,0.4,0.3,0.7,0.7,0.7h0.1c0.4,0,0.7-0.3,0.7-0.7c0-0.4-0.3-0.7-0.7-0.7h-0.1
						C165.9,41,165.6,41.3,165.6,41.7C165.6,41.7,165.6,41.3,165.6,41.7z"/>
				</g>
				<path id="p5xbr8Kml_00000182491873292177136360000005701879342454777991_" class="st0" d="M74.3,42.6c4.2,1,12.1-0.3,15.9,1.6
					C97.1,50.7,47.4,49.5,74.3,42.6z"/>
				<g id="pM2CAbfWa_00000005968428185065648790000008974742051224983688_">
					<path class="st0" d="M174.4,44.7c0,0.6,0.5,1.1,1.1,1.1h0.3c0.6,0,1.1-0.5,1.1-1.1v-0.6c0-0.6-0.5-1.1-1.1-1.1h-0.3
						c-0.6,0-1.1,0.5-1.1,1.1V44.7z"/>
				</g>
				<path id="pE0g4V9dd_00000178177848358568840080000014731706283029528494_" class="st0" d="M79.2,50.6
					c18.7,1.8-13.7,8.4-17.7,7.6c-0.5-3.9,4.1-5.8,6.3-8C70.7,52.3,74.4,49.3,79.2,50.6z"/>
				<g id="pfpT4Whm5_00000018196696179330931860000010571899300612393655_">
					<path class="st0" d="M176.2,51.9c0,0.4,0.3,0.7,0.7,0.7h0.5c0.4,0,0.7-0.3,0.7-0.7s-0.3-0.7-0.7-0.7h-0.5
						C176.5,51.2,176.2,51.5,176.2,51.9C176.2,51.9,176.2,51.5,176.2,51.9z"/>
				</g>
				<path id="piGG8l9EC_00000145769795031822685860000001453771706356820124_" class="st0" d="M73.9,59c15.8,0.6-11.2,10.2-15.4,8.5
					C55.3,61.7,69.7,58.1,73.9,59z"/>
				<path id="p1FrCbeQPK_00000112606249759838516620000000811903316248347057_" class="st0" d="M72.7,67.6c4.2,4.6-10,6.3-11,7.7
					C45.8,79.2,66.8,64.9,72.7,67.6z"/>
				<path id="p1Blgp3wxQ_00000168798807082193376710000002833373730164864905_" class="st0" d="M69.4,75.9c2.6,6.7-8.5,6.2-11.2,9.1
					C48.1,86.5,66.2,72.9,69.4,75.9z"/>
				<path id="pvY5tuQz2_00000001626355725428473810000007579353054593938853_" class="st0" d="M65.9,85c6.2,5.5-7.8,7.7-9.7,10.5
					C52,92,62,83.9,65.9,85z"/>
				<path id="pkS7K9h40_00000005250874724445747300000001162213660765663421_" class="st0" d="M64.2,94.8c7.4,0.1-6.6,11-7.5,7.5
					c-0.9-2.9,2.6-2.8,3.5-5.5C61.5,93.8,61.6,94.8,64.2,94.8z"/>
				<path id="pGnrbGMtq_00000101814432021817218590000009508431337731873471_" class="st0" d="M65.6,104.8c2.9,2.2-5.1,9-7.5,7
					C57.8,108.3,62,103.4,65.6,104.8z"/>
				<path id="p1BHBw7pcS_00000037659013213913273060000013219738859544386176_" class="st0" d="M66.9,114c2.2,2.6-2.6,8.8-5.7,6.8
					C59,118.6,64.8,112.5,66.9,114z"/>
				<g id="pBLb7A49h_00000013162824139550303910000015098584215865674932_">
					<path class="st0" d="M64.8,127.9c0,0.6,0.5,1.1,1.1,1.1h3.4c0.6,0,1.1-0.5,1.1-1.1v-3.3c0-0.6-0.5-1.1-1.1-1.1h-3.4
						c-0.6,0-1.1,0.5-1.1,1.1V127.9z"/>
				</g>
				<g id="p1DfIVgoba_00000159470739510389226430000007881141448421685651_">
					<path class="st0" d="M70.5,135.7c0,0.6,0.5,1.1,1.1,1.1h3c0.6,0,1.1-0.5,1.1-1.1v-2.8c0-0.6-0.5-1.1-1.1-1.1h-3
						c-0.6,0-1.1,0.5-1.1,1.1V135.7z"/>
				</g>
				<g id="pgwxiPBYZ_00000026128087818610543270000004267297384640822422_">
					<path class="st0" d="M77.2,141.5c0,0.6,0.5,1.1,1.1,1.1h2.5c0.6,0,1.1-0.5,1.1-1.1v-2c0-0.6-0.5-1.1-1.1-1.1h-2.5
						c-0.6,0-1.1,0.5-1.1,1.1V141.5z"/>
				</g>
				<g id="pD9xduLDC_00000106835901870463222920000016162449284081305731_">
					<path class="st0" d="M134.1,140.5c0,0.5,0.4,0.9,0.9,0.9c0.5,0,0.9-0.4,0.9-0.9v-0.3c0-0.5-0.4-0.9-0.9-0.9
						c-0.5,0-0.9,0.4-0.9,0.9V140.5z"/>
				</g>
				<g id="p6On383Vn_00000090254639234915055270000016294663660435194553_">
					<path class="st0" d="M125,146.8c0,0.6,0.5,1.1,1.1,1.1h2.2c0.6,0,1.1-0.5,1.1-1.1v-2.1c0-0.6-0.5-1.1-1.1-1.1h-2.2
						c-0.6,0-1.1,0.5-1.1,1.1V146.8z"/>
				</g>
				<g id="pVYByLNuv_00000114767545827542608040000007479770800373679765_">
					<path class="st0" d="M85.8,146.7c0,0.6,0.5,1.1,1.1,1.1h1.8c0.6,0,1.1-0.5,1.1-1.1v-1.8c0-0.6-0.5-1.1-1.1-1.1h-1.8
						c-0.6,0-1.1,0.5-1.1,1.1V146.7z"/>
				</g>
				<g id="pHQTGWeLZ_00000053528721839096960560000003219937632517478538_">
					<path class="st0" d="M115.8,150.2c0,0.6,0.5,1.1,1.1,1.1h2.6c0.6,0,1.1-0.5,1.1-1.1v-2.5c0-0.6-0.5-1.1-1.1-1.1h-2.6
						c-0.6,0-1.1,0.5-1.1,1.1V150.2z"/>
				</g>
				<g id="pBiysdhd0_00000083777099598498306110000009103578293182017937_">
					<path class="st0" d="M105.5,151.6c0,0.6,0.5,1.1,1.1,1.1h3.1c0.6,0,1.1-0.5,1.1-1.1v-3c0-0.6-0.5-1.1-1.1-1.1h-3.1
						c-0.6,0-1.1,0.5-1.1,1.1V151.6z"/>
				</g>
				<g id="pBiysdhd0_00000069388283632636296460000000020356442073257130_">
					<path class="st0" d="M94.9,151.1c0,0.6,0.5,1.1,1.1,1.1h3.1c0.6,0,1.1-0.5,1.1-1.1v-3c0-0.6-0.5-1.1-1.1-1.1H96
						c-0.6,0-1.1,0.5-1.1,1.1V151.1z"/>
				</g>
			</g>
			<g>
				<g id="p17HiGKS6N_00000119830489462786147830000007788855970183327931_">
					<path class="st0" d="M0,81.2c0,0.6,0.5,1.1,1.1,1.1h1.2c0.6,0,1.1-0.5,1.1-1.1V80c0-0.6-0.5-1.1-1.1-1.1H1.1
						C0.5,78.9,0,79.4,0,80V81.2z"/>
				</g>
				<g id="pMa7wO5zI_00000140692802863478553380000006491724608368663225_">
					<path class="st0" d="M1,93.4c0,0.6,0.5,1.1,1.1,1.1h1.6c0.6,0,1.1-0.5,1.1-1.1v-2.6c0-0.6-0.5-1.1-1.1-1.1H2.1
						c-0.6,0-1.1,0.5-1.1,1.1V93.4z"/>
				</g>
				<path id="p179fAChyF_00000006695045125383036980000016637702537233780650_" class="st0" d="M3.8,99.4c2.2-3.1,5.4-6.8,6.9-10.6
					c0-1.2,3.6-2.2,4.5-2.7c-0.3-2.4,6.4-7.9,5.9-2.8c0.1,4.4-6.2,1.6-5.7,5.6c-0.1,2.2-0.5,2.7-2.6,3.4c-1.6,0.5-1.8,0.9-1.8,2.9
					c0.2,2-3.5,3-2.8,5.5C8.6,105.7,2,102.8,3.8,99.4z"/>
				<g id="pIIHWPwOd_00000069389380685033147710000002854168156614124435_">
					<path class="st0" d="M3.7,74.5c0,0.6,0.5,1.1,1.1,1.1h3c0.6,0,1.1-0.5,1.1-1.1v-4.2c0-0.6-0.5-1.1-1.1-1.1h-3
						c-0.6,0-1.1,0.5-1.1,1.1V74.5z"/>
				</g>
				<g id="pVjyPykMF_00000029033533682813113730000010513299415849067701_">
					<path class="st0" d="M3.6,87c0,0.6,0.5,1.1,1.1,1.1h3c0.6,0,1.1-0.5,1.1-1.1v-3c0-0.6-0.5-1.1-1.1-1.1h-3
						c-0.6,0-1.1,0.5-1.1,1.1V87z"/>
				</g>
				<g id="p32GVXz0V_00000156580937693698739070000002266480555723207835_">
					<path class="st0" d="M4.1,64.9c0,0.6,0.5,1.1,1.1,1.1h1c0.6,0,1.1-0.5,1.1-1.1v-2.8c0-0.6-0.5-1.1-1.1-1.1h-1
						c-0.6,0-1.1,0.5-1.1,1.1V64.9z"/>
				</g>
				<path id="p1HL4g7683_00000034810308510841996760000006976429913495862913_" class="st0" d="M8.5,106.9
					c2.4-6.4,8.5-14.2,14.3-17.7c3.5,2.8-6.1,9.4-6.8,13.4C14.1,106.6,7.9,118.9,8.5,106.9z"/>
				<g id="p2P72DdnD_00000031926247267078916510000007489715332369599371_">
					<path class="st0" d="M8.5,81.6c0,0.6,0.5,1.1,1.1,1.1h3.1c0.6,0,1.1-0.5,1.1-1.1v-3.2c0-0.6-0.5-1.1-1.1-1.1H9.6
						c-0.6,0-1.1,0.5-1.1,1.1V81.6z"/>
				</g>
				<g id="ptJFnBqQu_00000080167588870501364920000010561584112719668610_">
					<path class="st0" d="M10.4,61.6c0,0.6,0.5,1.1,1.1,1.1h1.2c0.6,0,1.1-0.5,1.1-1.1v-3c0-0.6-0.5-1.1-1.1-1.1h-1.2
						c-0.6,0-1.1,0.5-1.1,1.1V61.6z"/>
				</g>
				<g id="pFNNfQSsF_00000028286506617091326490000010082496383443535036_">
					<path class="st0" d="M10.7,53.7c0,0.6,0.5,1.1,1.1,1.1H12c0.6,0,1.1-0.5,1.1-1.1v-1.1c0-0.6-0.5-1.1-1.1-1.1h-0.3
						c-0.6,0-1.1,0.5-1.1,1.1V53.7z"/>
				</g>
				<g id="pktrvynQf_00000168808846702532502420000004309420828767400616_">
					<path class="st0" d="M11.3,69.6c0,0.6,0.5,1.1,1.1,1.1h2.1c0.6,0,1.1-0.5,1.1-1.1v-3.4c0-0.6-0.5-1.1-1.1-1.1h-2.1
						c-0.6,0-1.1,0.5-1.1,1.1V69.6z"/>
				</g>
				<path id="p9dEc2HI6_00000132801846648900241030000017079504765517428896_" class="st0" d="M13.9,112.7c2.2-3.8,3.9-5.8,5.5-9.2
					c1.2-1,3-0.4,2.6-2.3c-0.2-5.4,8.7-3.8,3,1C22.2,105.8,13.2,130.6,13.9,112.7z"/>
				<g id="pAwrpY26W_00000009558549444879739910000009448553894332564618_">
					<path class="st0" d="M14.4,76.7c0,0.6,0.5,1.1,1.1,1.1h1.8c0.6,0,1.1-0.5,1.1-1.1v-2.1c0-0.6-0.5-1.1-1.1-1.1h-1.8
						c-0.6,0-1.1,0.5-1.1,1.1V76.7z"/>
				</g>
				<g id="p03dmIT0H_00000164474052028922596190000009141760284263407004_">
					<path class="st0" d="M16.9,56.8c0,0.6,0.5,1.1,1.1,1.1H20c0.6,0,1.1-0.5,1.1-1.1v-2.1c0-0.6-0.5-1.1-1.1-1.1H18
						c-0.6,0-1.1,0.5-1.1,1.1V56.8z"/>
				</g>
				<g id="pmDFLb47o_00000083773777219485734170000016078979591814790826_">
					<path class="st0" d="M17.5,47.7c0,0.6,0.5,1.1,1.1,1.1h1.9c0.6,0,1.1-0.5,1.1-1.1v-1.9c0-0.6-0.5-1.1-1.1-1.1h-1.9
						c-0.6,0-1.1,0.5-1.1,1.1V47.7z"/>
				</g>
				<g id="p14KuQCSMo_00000073700519071499589740000017218530659145462206_">
					<path class="st0" d="M18.7,64.9c0,0.6,0.5,1.1,1.1,1.1H21c0.6,0,1.1-0.5,1.1-1.1v-2.1c0-0.6-0.5-1.1-1.1-1.1h-1.2
						c-0.6,0-1.1,0.5-1.1,1.1V64.9z"/>
				</g>
				<path id="phZSTSaeE_00000152963691593025397570000002202321289897111467_" class="st0" d="M19.8,119c3-5.9,5.7-14.9,12.4-17.6
					c2.4,2.6-5.2,10.4-5.3,14.9C26.2,125,18.3,131.9,19.8,119z"/>
				<g id="p11eADbchl_00000031887496788777649560000013006877902303599020_">
					<path class="st0" d="M20.9,72.6c0,0.6,0.5,1.1,1.1,1.1h2.1c0.6,0,1.1-0.5,1.1-1.1v-2.1c0-0.6-0.5-1.1-1.1-1.1H22
						c-0.6,0-1.1,0.5-1.1,1.1V72.6z"/>
				</g>
				<g id="ph4IDrhSU_00000179621863979462860570000005231228779561940386_">
					<path class="st0" d="M23.4,79.6c0,0.6,0.5,1.1,1.1,1.1h1.4c0.6,0,1.1-0.5,1.1-1.1v-1.2c0-0.6-0.5-1.1-1.1-1.1h-1.4
						c-0.6,0-1.1,0.5-1.1,1.1V79.6z"/>
				</g>
				<g id="pvU5pfwmd_00000048471384334123896180000015263621081094620820_">
					<path class="st0" d="M24.2,52.6c0,0.6,0.5,1.1,1.1,1.1h2.4c0.6,0,1.1-0.5,1.1-1.1v-2.3c0-0.6-0.5-1.1-1.1-1.1h-2.4
						c-0.6,0-1.1,0.5-1.1,1.1V52.6z"/>
				</g>
				<g id="p19wK0fX22_00000176723894356481397700000004938197147376477826_">
					<path class="st0" d="M25.2,43c0,0.6,0.5,1.1,1.1,1.1h2.8c0.6,0,1.1-0.5,1.1-1.1v-1.6c0-0.6-0.5-1.1-1.1-1.1h-2.8
						c-0.6,0-1.1,0.5-1.1,1.1V43z"/>
				</g>
				<g id="pmI1TfoV1_00000116211543592843504520000008103688989950798252_">
					<path class="st0" d="M25.4,60.6c0,0.6,0.5,1.1,1.1,1.1h1.8c0.6,0,1.1-0.5,1.1-1.1v-1.3c0-0.6-0.5-1.1-1.1-1.1h-1.8
						c-0.6,0-1.1,0.5-1.1,1.1V60.6z"/>
				</g>
				<g id="pItNO8qlR_00000067917913775579725050000012441471215844223877_">
					<path class="st0" d="M25.6,87.5c0,0.6,0.5,1,1,1h1.2c0.6,0,1-0.5,1-1s-0.5-1-1-1h-1.2C26.1,86.5,25.6,86.9,25.6,87.5
						C25.6,87.5,25.6,86.9,25.6,87.5z"/>
				</g>
				<path id="pWus32TMl_00000105414975104472638050000007744767379206804113_" class="st0" d="M26.5,125.4
					c-0.8-1.8,9.5-24.8,9.6-13.1c-2.6,3.2-3.2,24.5-6.9,21.6C27.3,133.7,25.9,129.5,26.5,125.4z"/>
				<g id="pUpnmPzR_00000152265464445964060000000016209189355040482732_">
					<path class="st0" d="M27.4,95.2c0,0.6,0.5,1.1,1.1,1.1h1c0.6,0,1.1-0.5,1.1-1.1v-0.9c0-0.6-0.5-1.1-1.1-1.1h-1
						c-0.6,0-1.1,0.5-1.1,1.1V95.2z"/>
				</g>
				<g id="p8WrKPXSl_00000080912303553832327750000018178292578945348795_">
					<path class="st0" d="M29,67.7c0,0.6,0.5,1.1,1.1,1.1h0.7c0.6,0,1.1-0.5,1.1-1.1V67c0-0.6-0.5-1.1-1.1-1.1h-0.7
						C29.5,66,29,66.4,29,67V67.7z"/>
				</g>
				<g id="pfTRbRAcu_00000151545038159804506300000008079232267473677990_">
					<path class="st0" d="M33.1,48.8c0,0.6,0.5,1.1,1.1,1.1h1.1c0.6,0,1.1-0.5,1.1-1.1v-1.2c0-0.6-0.5-1.1-1.1-1.1h-1.1
						c-0.6,0-1.1,0.5-1.1,1.1V48.8z"/>
				</g>
				<g id="p1CsdzUDfd_00000000922292475835159180000013300852917450309516_">
					<path class="st0" d="M34.2,40.3c0,0.6,0.5,1.1,1.1,1.1h1.6c0.6,0,1.1-0.5,1.1-1.1v-1.7c0-0.6-0.5-1.1-1.1-1.1h-1.6
						c-0.6,0-1.1,0.5-1.1,1.1V40.3z"/>
				</g>
				<path id="p28ueTBB2_00000037664152221291047870000013465286867057258890_" class="st0" d="M34.8,128c-1.1-6.3,8.3-21.1,6.5-6.5
					c-0.8,5.4-0.9,16.9-1.2,19.2C33.7,141.4,34,132.1,34.8,128z"/>
				<g id="pZ36YldAu_00000096056993215174609560000001796491594092040865_">
					<path class="st0" d="M35.8,64.4c0,0.4,0.3,0.6,0.6,0.6h0.2c0.4,0,0.6-0.3,0.6-0.6c0-0.4-0.3-0.6-0.6-0.6h-0.2
						C36.1,63.8,35.8,64.1,35.8,64.4C35.8,64.4,35.8,64.1,35.8,64.4z"/>
				</g>
				<g id="p3lNHDktB_00000060729389369032139490000016644165950486470021_">
					<path class="st0" d="M40.9,46.4c0,0.4,0.3,0.7,0.7,0.7s0.7-0.3,0.7-0.7v-0.1c0-0.4-0.3-0.7-0.7-0.7S40.9,46,40.9,46.4
						L40.9,46.4z"/>
				</g>
				<path id="p5xbr8Kml_00000023250961041674101920000003427058157772397223_" class="st0" d="M42.6,138.4c1-4.2-0.3-12.1,1.6-15.9
					C50.7,115.7,49.5,165.3,42.6,138.4z"/>
				<g id="pM2CAbfWa_00000160872903047930025700000013818106414876184478_">
					<path class="st0" d="M43,37.3c0,0.6,0.5,1.1,1.1,1.1h0.6c0.6,0,1.1-0.5,1.1-1.1v-0.3c0-0.6-0.5-1.1-1.1-1.1h-0.6
						c-0.6,0-1.1,0.5-1.1,1.1V37.3z"/>
				</g>
				<path id="pE0g4V9dd_00000119118733997304561010000017886240851402500742_" class="st0" d="M50.5,133.5
					c1.8-18.7,8.4,13.7,7.6,17.7c-3.9,0.5-5.8-4.1-8-6.3C52.2,141.9,49.3,138.3,50.5,133.5z"/>
				<g id="pfpT4Whm5_00000179640073434091223380000006063489424025401772_">
					<path class="st0" d="M51.1,35.7c0,0.4,0.3,0.7,0.7,0.7c0.4,0,0.7-0.3,0.7-0.7v-0.5c0-0.4-0.3-0.7-0.7-0.7
						c-0.4,0-0.7,0.3-0.7,0.7V35.7z"/>
				</g>
				<path id="piGG8l9EC_00000006671032198172629510000003100385408137403788_" class="st0" d="M59,138.8
					c0.6-15.8,10.2,11.2,8.5,15.4C61.7,157.4,58,143,59,138.8z"/>
				<path id="p1FrCbeQPK_00000094594608657900935970000002221166183453122969_" class="st0" d="M67.6,139.9c4.6-4.2,6.3,10,7.7,11
					C79.2,166.9,64.9,145.9,67.6,139.9z"/>
				<path id="p1Blgp3wxQ_00000125571193176538652510000006626376192613190573_" class="st0" d="M75.9,143.3
					c6.7-2.6,6.2,8.5,9.1,11.2C86.5,164.6,72.9,146.5,75.9,143.3z"/>
				<path id="pvY5tuQz2_00000098183341439909127170000016696350208803696537_" class="st0" d="M84.9,146.8c5.5-6.2,7.7,7.8,10.5,9.6
					C92,160.7,83.9,150.7,84.9,146.8z"/>
				<path id="pkS7K9h40_00000041983248724301734110000014219943677147582600_" class="st0" d="M94.8,148.5c0.1-7.4,11,6.6,7.5,7.5
					c-2.9,0.9-2.8-2.6-5.5-3.5C93.8,151.2,94.8,151,94.8,148.5z"/>
				<path id="pGnrbGMtq_00000126311518567749269160000001155001352318640259_" class="st0" d="M104.8,147.1c2.2-2.9,9,5.1,7,7.5
					C108.2,154.9,103.4,150.7,104.8,147.1z"/>
				<path id="p1BHBw7pcS_00000008119305725817944180000016490998976800463519_" class="st0" d="M114,145.8c2.6-2.2,8.8,2.6,6.8,5.7
					C118.5,153.7,112.5,147.9,114,145.8z"/>
				<g id="pBLb7A49h_00000109713393600903078030000001905027710766540989_">
					<path class="st0" d="M123.5,146.8c0,0.6,0.5,1.1,1.1,1.1h3.3c0.6,0,1.1-0.5,1.1-1.1v-3.4c0-0.6-0.5-1.1-1.1-1.1h-3.3
						c-0.6,0-1.1,0.5-1.1,1.1V146.8z"/>
				</g>
				<g id="p1DfIVgoba_00000103250782589791980640000015437008966411754380_">
					<path class="st0" d="M131.7,141.1c0,0.6,0.5,1.1,1.1,1.1h2.8c0.6,0,1.1-0.5,1.1-1.1v-3c0-0.6-0.5-1.1-1.1-1.1h-2.8
						c-0.6,0-1.1,0.5-1.1,1.1V141.1z"/>
				</g>
				<g id="pgwxiPBYZ_00000095314404596555233880000006460974777661832342_">
					<path class="st0" d="M138.4,134.4c0,0.6,0.5,1.1,1.1,1.1h2c0.6,0,1.1-0.5,1.1-1.1v-2.5c0-0.6-0.5-1.1-1.1-1.1h-2
						c-0.6,0-1.1,0.5-1.1,1.1V134.4z"/>
				</g>
				<g id="pD9xduLDC_00000112616531840881838290000009753779573359753108_">
					<path class="st0" d="M139.3,77.7c0,0.5,0.4,0.9,0.9,0.9h0.3c0.5,0,0.9-0.4,0.9-0.9c0-0.5-0.4-0.9-0.9-0.9h-0.3
						C139.7,76.9,139.3,77.3,139.3,77.7C139.3,77.7,139.3,77.3,139.3,77.7z"/>
				</g>
				<g id="p6On383Vn_00000028315007728080822300000014029326977098009999_">
					<path class="st0" d="M143.7,86.6c0,0.6,0.5,1.1,1.1,1.1h2.1c0.6,0,1.1-0.5,1.1-1.1v-2.2c0-0.6-0.5-1.1-1.1-1.1h-2.1
						c-0.6,0-1.1,0.5-1.1,1.1V86.6z"/>
				</g>
				<g id="pVYByLNuv_00000056419201271702022840000008061224782947506842_">
					<path class="st0" d="M143.8,125.9c0,0.6,0.5,1.1,1.1,1.1h1.8c0.6,0,1.1-0.5,1.1-1.1V124c0-0.6-0.5-1.1-1.1-1.1h-1.8
						c-0.6,0-1.1,0.5-1.1,1.1V125.9z"/>
				</g>
				<g id="pHQTGWeLZ_00000014635095227645056510000000338694204075337917_">
					<path class="st0" d="M146.6,95.8c0,0.6,0.5,1.1,1.1,1.1h2.5c0.6,0,1.1-0.5,1.1-1.1v-2.6c0-0.6-0.5-1.1-1.1-1.1h-2.5
						c-0.6,0-1.1,0.5-1.1,1.1V95.8z"/>
				</g>
				<g id="pBiysdhd0_00000025417097453575094920000009772282882209613185_">
					<path class="st0" d="M147.5,106.1c0,0.6,0.5,1.1,1.1,1.1h3c0.6,0,1.1-0.5,1.1-1.1v-3.1c0-0.6-0.5-1.1-1.1-1.1h-3
						c-0.6,0-1.1,0.5-1.1,1.1V106.1z"/>
				</g>
				<g id="pBiysdhd0_00000113334196376391457170000017856285230884555662_">
					<path class="st0" d="M147,116.7c0,0.6,0.5,1.1,1.1,1.1h3c0.6,0,1.1-0.5,1.1-1.1v-3.1c0-0.6-0.5-1.1-1.1-1.1h-3
						c-0.6,0-1.1,0.5-1.1,1.1V116.7z"/>
				</g>
			</g>
			<g>
				<g id="p17HiGKS6N_00000101077410273348317750000000593672888472761503_">
					<path class="st0" d="M209.2,131.8c0,0.6,0.5,1.1,1.1,1.1h1.2c0.6,0,1.1-0.5,1.1-1.1v-1.2c0-0.6-0.5-1.1-1.1-1.1h-1.2
						c-0.6,0-1.1,0.5-1.1,1.1V131.8z"/>
				</g>
				<g id="pMa7wO5zI_00000075147690759026579850000004343163204870910122_">
					<path class="st0" d="M207.9,120.9c0,0.6,0.5,1.1,1.1,1.1h1.6c0.6,0,1.1-0.5,1.1-1.1v-2.6c0-0.6-0.5-1.1-1.1-1.1H209
						c-0.6,0-1.1,0.5-1.1,1.1V120.9z"/>
				</g>
				<path id="p179fAChyF_00000129200836438220950730000018131996713628620437_" class="st0" d="M208.8,112.3
					c-2.2,3.1-5.4,6.8-6.9,10.6c0,1.2-3.6,2.2-4.5,2.7c0.3,2.4-6.4,7.9-5.9,2.8c-0.1-4.4,6.2-1.6,5.7-5.6c0.1-2.2,0.5-2.7,2.6-3.4
					c1.6-0.5,1.8-0.9,1.8-2.9c-0.2-2,3.5-3,2.8-5.5C204,106,210.6,108.9,208.8,112.3z"/>
				<g id="pIIHWPwOd_00000104671077165850723700000002293377365642693509_">
					<path class="st0" d="M203.7,141.6c0,0.6,0.5,1.1,1.1,1.1h3c0.6,0,1.1-0.5,1.1-1.1v-4.2c0-0.6-0.5-1.1-1.1-1.1h-3
						c-0.6,0-1.1,0.5-1.1,1.1V141.6z"/>
				</g>
				<g id="pVjyPykMF_00000058577819916877049010000009830206075207895457_">
					<path class="st0" d="M203.9,127.7c0,0.6,0.5,1.1,1.1,1.1h3c0.6,0,1.1-0.5,1.1-1.1v-3c0-0.6-0.5-1.1-1.1-1.1h-3
						c-0.6,0-1.1,0.5-1.1,1.1V127.7z"/>
				</g>
				<g id="p32GVXz0V_00000049217765441008762570000017996140136669427360_">
					<path class="st0" d="M205.4,149.6c0,0.6,0.5,1.1,1.1,1.1h1c0.6,0,1.1-0.5,1.1-1.1v-2.8c0-0.6-0.5-1.1-1.1-1.1h-1
						c-0.6,0-1.1,0.5-1.1,1.1V149.6z"/>
				</g>
				<path id="p1HL4g7683_00000098916146605193068070000006747949887037567138_" class="st0" d="M204.1,104.8
					c-2.4,6.4-8.5,14.2-14.3,17.7c-3.5-2.8,6.1-9.4,6.8-13.4C198.5,105.2,204.7,92.8,204.1,104.8z"/>
				<g id="p2P72DdnD_00000096743101553282499360000006291383274459358350_">
					<path class="st0" d="M198.9,133.3c0,0.6,0.5,1.1,1.1,1.1h3.1c0.6,0,1.1-0.5,1.1-1.1v-3.2c0-0.6-0.5-1.1-1.1-1.1h-3.1
						c-0.6,0-1.1,0.5-1.1,1.1V133.3z"/>
				</g>
				<g id="ptJFnBqQu_00000127014104726266417070000004449403394538276509_">
					<path class="st0" d="M198.9,153.1c0,0.6,0.5,1.1,1.1,1.1h1.2c0.6,0,1.1-0.5,1.1-1.1v-3c0-0.6-0.5-1.1-1.1-1.1h-1.2
						c-0.6,0-1.1,0.5-1.1,1.1V153.1z"/>
				</g>
				<g id="pFNNfQSsF_00000090260958991513852500000015736410532839890581_">
					<path class="st0" d="M199.6,159.1c0,0.6,0.5,1.1,1.1,1.1h0.3c0.6,0,1.1-0.5,1.1-1.1v-1.1c0-0.6-0.5-1.1-1.1-1.1h-0.3
						c-0.6,0-1.1,0.5-1.1,1.1V159.1z"/>
				</g>
				<g id="pktrvynQf_00000150821451893270429530000004379303091259536801_">
					<path class="st0" d="M197.1,145.4c0,0.6,0.5,1.1,1.1,1.1h2.1c0.6,0,1.1-0.5,1.1-1.1v-3.4c0-0.6-0.5-1.1-1.1-1.1h-2.1
						c-0.6,0-1.1,0.5-1.1,1.1V145.4z"/>
				</g>
				<path id="p9dEc2HI6_00000030476578016379713610000006815935574383955902_" class="st0" d="M198.7,99.1c-2.2,3.8-3.9,5.8-5.5,9.2
					c-1.2,1-3,0.4-2.6,2.3c0.2,5.4-8.7,3.8-3-1C190.4,105.9,199.4,81.1,198.7,99.1z"/>
				<g id="pAwrpY26W_00000152232553381024083610000006145642036921021338_">
					<path class="st0" d="M194.2,137.2c0,0.6,0.5,1.1,1.1,1.1h1.8c0.6,0,1.1-0.5,1.1-1.1v-2.1c0-0.6-0.5-1.1-1.1-1.1h-1.8
						c-0.6,0-1.1,0.5-1.1,1.1V137.2z"/>
				</g>
				<g id="p03dmIT0H_00000177465986799535150910000008633627514905541019_">
					<path class="st0" d="M191.6,157c0,0.6,0.5,1.1,1.1,1.1h1.9c0.6,0,1.1-0.5,1.1-1.1v-2.1c0-0.6-0.5-1.1-1.1-1.1h-1.9
						c-0.6,0-1.1,0.5-1.1,1.1V157z"/>
				</g>
				<g id="pmDFLb47o_00000096033892709441170730000011346514221655284105_">
					<path class="st0" d="M191,166c0,0.6,0.5,1.1,1.1,1.1h1.9c0.6,0,1.1-0.5,1.1-1.1v-2c0-0.6-0.5-1.1-1.1-1.1h-1.9
						c-0.6,0-1.1,0.5-1.1,1.1V166z"/>
				</g>
				<g id="p14KuQCSMo_00000084506192204128507790000017431281752023687076_">
					<path class="st0" d="M190.5,148.8c0,0.6,0.5,1.1,1.1,1.1h1.2c0.6,0,1.1-0.5,1.1-1.1v-2.1c0-0.6-0.5-1.1-1.1-1.1h-1.2
						c-0.6,0-1.1,0.5-1.1,1.1V148.8z"/>
				</g>
				<path id="phZSTSaeE_00000029734901259892241840000006052577691109935268_" class="st0" d="M192.8,92.7
					c-3,5.9-5.7,14.9-12.4,17.6c-2.4-2.6,5.2-10.4,5.3-14.9C186.5,86.8,194.3,79.8,192.8,92.7z"/>
				<g id="p11eADbchl_00000065034412312178945620000002707974406425403805_">
					<path class="st0" d="M187.5,141.2c0,0.6,0.5,1.1,1.1,1.1h2.1c0.6,0,1.1-0.5,1.1-1.1v-2.1c0-0.6-0.5-1.1-1.1-1.1h-2.1
						c-0.6,0-1.1,0.5-1.1,1.1V141.2z"/>
				</g>
				<g id="ph4IDrhSU_00000044161949759651465410000001272887567141858233_">
					<path class="st0" d="M185.7,133.3c0,0.6,0.5,1.1,1.1,1.1h1.4c0.6,0,1.1-0.5,1.1-1.1v-1.2c0-0.6-0.5-1.1-1.1-1.1h-1.4
						c-0.6,0-1.1,0.5-1.1,1.1V133.3z"/>
				</g>
				<g id="pvU5pfwmd_00000172427398894920981710000004895891484633485968_">
					<path class="st0" d="M183.9,161.4c0,0.6,0.5,1.1,1.1,1.1h2.4c0.6,0,1.1-0.5,1.1-1.1v-2.3c0-0.6-0.5-1.1-1.1-1.1H185
						c-0.6,0-1.1,0.5-1.1,1.1V161.4z"/>
				</g>
				<g id="p19wK0fX22_00000163756181833607877160000002740412795764869542_">
					<path class="st0" d="M182.4,170.3c0,0.6,0.5,1.1,1.1,1.1h2.8c0.6,0,1.1-0.5,1.1-1.1v-1.6c0-0.6-0.5-1.1-1.1-1.1h-2.8
						c-0.6,0-1.1,0.5-1.1,1.1V170.3z"/>
				</g>
				<g id="pmI1TfoV1_00000148632330845990017950000011263193171307419050_">
					<path class="st0" d="M183.3,152.5c0,0.6,0.5,1.1,1.1,1.1h1.8c0.6,0,1.1-0.5,1.1-1.1v-1.3c0-0.6-0.5-1.1-1.1-1.1h-1.8
						c-0.6,0-1.1,0.5-1.1,1.1V152.5z"/>
				</g>
				<g id="pItNO8qlR_00000029008556048873924870000008170793919612914820_">
					<path class="st0" d="M183.7,124.2c0,0.6,0.5,1,1,1h1.2c0.6,0,1-0.5,1-1s-0.5-1-1-1h-1.2C184.2,123.2,183.7,123.6,183.7,124.2
						C183.7,124.2,183.7,123.6,183.7,124.2z"/>
				</g>
				<path id="pWus32TMl_00000091735499905471652270000003938117559577729723_" class="st0" d="M186.1,86.3
					c0.8,1.8-9.5,24.8-9.6,13.1c2.6-3.2,3.2-24.5,6.9-21.6C185.4,78.1,186.7,82.2,186.1,86.3z"/>
				<g id="pUpnmPzR_00000080165793443108259370000012645679024398336405_">
					<path class="st0" d="M182.1,117.4c0,0.6,0.5,1.1,1.1,1.1h1c0.6,0,1.1-0.5,1.1-1.1v-0.9c0-0.6-0.5-1.1-1.1-1.1h-1
						c-0.6,0-1.1,0.5-1.1,1.1V117.4z"/>
				</g>
				<g id="p8WrKPXSl_00000022560879929146725350000006119076280871813809_">
					<path class="st0" d="M180.7,144.7c0,0.6,0.5,1.1,1.1,1.1h0.7c0.6,0,1.1-0.5,1.1-1.1V144c0-0.6-0.5-1.1-1.1-1.1h-0.7
						c-0.6,0-1.1,0.5-1.1,1.1V144.7z"/>
				</g>
				<g id="pfTRbRAcu_00000037666414553090059520000000879557645072348568_">
					<path class="st0" d="M176.2,164.2c0,0.6,0.5,1.1,1.1,1.1h1.1c0.6,0,1.1-0.5,1.1-1.1v-1.2c0-0.6-0.5-1.1-1.1-1.1h-1.1
						c-0.6,0-1.1,0.5-1.1,1.1V164.2z"/>
				</g>
				<g id="p1CsdzUDfd_00000021082319184413088420000001024135754900831134_">
					<path class="st0" d="M174.6,173.2c0,0.6,0.5,1.1,1.1,1.1h1.6c0.6,0,1.1-0.5,1.1-1.1v-1.7c0-0.6-0.5-1.1-1.1-1.1h-1.6
						c-0.6,0-1.1,0.5-1.1,1.1V173.2z"/>
				</g>
				<path id="p28ueTBB2_00000043419810614339609390000005738175320439758724_" class="st0" d="M177.8,83.7c1.1,6.3-8.3,21.1-6.5,6.5
					c0.8-5.4,0.9-16.9,1.2-19.2C178.9,70.3,178.6,79.6,177.8,83.7z"/>
				<g id="pZ36YldAu_00000131327278755884061070000013292057066184717453_">
					<path class="st0" d="M175.3,147.2c0,0.4,0.3,0.6,0.6,0.6h0.2c0.4,0,0.6-0.3,0.6-0.6s-0.3-0.6-0.6-0.6H176
						C175.6,146.6,175.3,146.9,175.3,147.2C175.3,147.2,175.3,146.9,175.3,147.2z"/>
				</g>
				<g id="p3lNHDktB_00000031200639770886315900000006395837657248208814_">
					<path class="st0" d="M170.3,165.4c0,0.4,0.3,0.7,0.7,0.7c0.4,0,0.7-0.3,0.7-0.7v-0.1c0-0.4-0.3-0.7-0.7-0.7
						C170.6,164.6,170.3,165,170.3,165.4L170.3,165.4z"/>
				</g>
				<path id="p5xbr8Kml_00000108278416216045070390000001411877798152141472_" class="st0" d="M170,73.4c-1,4.2,0.3,12.1-1.6,15.9
					C161.9,96.1,163.2,46.4,170,73.4z"/>
				<g id="pM2CAbfWa_00000001644151098145150790000000122564221097253508_">
					<path class="st0" d="M166.9,174.9c0,0.6,0.5,1.1,1.1,1.1h0.6c0.6,0,1.1-0.5,1.1-1.1v-0.3c0-0.6-0.5-1.1-1.1-1.1h-0.6
						c-0.6,0-1.1,0.5-1.1,1.1V174.9z"/>
				</g>
				<path id="pE0g4V9dd_00000112622503657639327620000014192036667552010686_" class="st0" d="M162.1,78.2
					c-1.8,18.7-8.4-13.7-7.6-17.7c3.9-0.5,5.8,4.1,8,6.3C160.4,69.8,163.3,73.4,162.1,78.2z"/>
				<g id="pfpT4Whm5_00000068665870293370763070000001005067373233300141_">
					<path class="st0" d="M160,176.5c0,0.4,0.3,0.7,0.7,0.7c0.4,0,0.7-0.3,0.7-0.7V176c0-0.4-0.3-0.7-0.7-0.7
						c-0.4,0-0.7,0.3-0.7,0.7V176.5z"/>
				</g>
				<path id="piGG8l9EC_00000137118387767173971100000005107114232875741356_" class="st0" d="M153.6,72.9
					c-0.6,15.8-10.2-11.2-8.5-15.4C150.9,54.3,154.6,68.7,153.6,72.9z"/>
				<path id="p1FrCbeQPK_00000034798372978481053110000018378403236245653393_" class="st0" d="M145,71.8c-4.6,4.2-6.3-10-7.7-11
					C133.4,44.8,147.7,65.9,145,71.8z"/>
				<path id="p1Blgp3wxQ_00000160909155392295629260000016187681716321967752_" class="st0" d="M136.7,68.4
					c-6.7,2.6-6.2-8.5-9.1-11.2C126.1,47.1,139.7,65.2,136.7,68.4z"/>
				<path id="pvY5tuQz2_00000026881501593301436990000015024235882444280738_" class="st0" d="M127.7,64.9
					c-5.5,6.2-7.7-7.8-10.5-9.6C120.6,51,128.7,61,127.7,64.9z"/>
				<path id="pkS7K9h40_00000134242896183692931510000009559504014534875789_" class="st0" d="M117.8,63.2c-0.1,7.4-11-6.6-7.5-7.5
					c2.9-0.9,2.8,2.6,5.5,3.5C118.8,60.6,117.8,60.7,117.8,63.2z"/>
				<path id="pGnrbGMtq_00000091727296316671449860000004964888263734458777_" class="st0" d="M107.8,64.6c-2.2,2.9-9-5.1-7-7.5
					C104.4,56.8,109.3,61,107.8,64.6z"/>
				<path id="p1BHBw7pcS_00000156570408673694191650000003777390856438437811_" class="st0" d="M98.6,66c-2.6,2.2-8.8-2.6-6.8-5.7
					C94.1,58.1,100.1,63.8,98.6,66z"/>
				<g id="pBLb7A49h_00000168837079393660271000000014185218815155552671_">
					<path class="st0" d="M83.6,68.3c0,0.6,0.5,1.1,1.1,1.1H88c0.6,0,1.1-0.5,1.1-1.1v-3.4c0-0.6-0.5-1.1-1.1-1.1h-3.3
						c-0.6,0-1.1,0.5-1.1,1.1L83.6,68.3L83.6,68.3z"/>
				</g>
				<g id="p1DfIVgoba_00000044165237365089043500000010875593482716172983_">
					<path class="st0" d="M75.9,73.6c0,0.6,0.5,1.1,1.1,1.1h2.8c0.6,0,1.1-0.5,1.1-1.1v-3c0-0.6-0.5-1.1-1.1-1.1H77
						c-0.6,0-1.1,0.5-1.1,1.1V73.6z"/>
				</g>
				<g id="pgwxiPBYZ_00000014625692161991770000000001220019766675428242_">
					<path class="st0" d="M70,79.8c0,0.6,0.5,1.1,1.1,1.1h2c0.6,0,1.1-0.5,1.1-1.1v-2.5c0-0.6-0.5-1.1-1.1-1.1h-2
						c-0.6,0-1.1,0.5-1.1,1.1V79.8z"/>
				</g>
				<g id="pD9xduLDC_00000156583464093369273600000015554227182903476142_">
					<path class="st0" d="M71.2,134c0,0.5,0.4,0.9,0.9,0.9h0.3c0.5,0,0.9-0.4,0.9-0.9c0-0.5-0.4-0.9-0.9-0.9h-0.3
						C71.6,133.1,71.2,133.5,71.2,134C71.2,134,71.2,133.5,71.2,134z"/>
				</g>
				<g id="p6On383Vn_00000166663869233223150290000017431090640691175331_">
					<path class="st0" d="M64.7,127.4c0,0.6,0.5,1.1,1.1,1.1h2.1c0.6,0,1.1-0.5,1.1-1.1v-2.3c0-0.6-0.5-1.1-1.1-1.1h-2.1
						c-0.6,0-1.1,0.5-1.1,1.1V127.4z"/>
				</g>
				<g id="pVYByLNuv_00000148632484491601222410000001303171193541211569_">
					<path class="st0" d="M64.9,87.7c0,0.6,0.5,1.1,1.1,1.1h1.8c0.6,0,1.1-0.5,1.1-1.1v-1.8c0-0.6-0.5-1.1-1.1-1.1H66
						c-0.6,0-1.1,0.5-1.1,1.1V87.7z"/>
				</g>
				<g id="pHQTGWeLZ_00000057140653101797977730000003184425543936077486_">
					<path class="st0" d="M61.4,118.6c0,0.6,0.5,1.1,1.1,1.1H65c0.6,0,1.1-0.5,1.1-1.1v-2.6c0-0.6-0.5-1.1-1.1-1.1h-2.5
						c-0.6,0-1.1,0.5-1.1,1.1V118.6z"/>
				</g>
				<g id="pBiysdhd0_00000155829440639307845910000002220651601854575548_">
					<path class="st0" d="M60,108.8c0,0.6,0.5,1.1,1.1,1.1h3c0.6,0,1.1-0.5,1.1-1.1v-3.1c0-0.6-0.5-1.1-1.1-1.1h-3
						c-0.6,0-1.1,0.5-1.1,1.1V108.8z"/>
				</g>
				<g id="pBiysdhd0_00000114783427424905309680000007130598605406644392_">
					<path class="st0" d="M60.4,98.2c0,0.6,0.5,1.1,1.1,1.1h3c0.6,0,1.1-0.5,1.1-1.1v-3.1c0-0.6-0.5-1.1-1.1-1.1h-3
						c-0.6,0-1.1,0.5-1.1,1.1V98.2z"/>
				</g>
			</g>
		</g>
	</g>
</g>
<g id="Layer_3" class="st1">
	<circle class="st2" cx="149.1" cy="133.6" r="2.3"/>
	<circle class="st2" cx="163.3" cy="123.6" r="3.7"/>
	<circle class="st2" cx="180.4" cy="117.6" r="4.6"/>
	<circle class="st2" cx="198.5" cy="115.7" r="4.8"/>
	<circle class="st2" cx="217.5" cy="115.7" r="4.8"/>
	<circle class="st2" cx="236.3" cy="123.6" r="4.8"/>
	<circle class="st2" cx="251.5" cy="133.2" r="4.7"/>
	<circle class="st2" cx="263.5" cy="145" r="5.2"/>
	<circle class="st2" cx="273.6" cy="159.8" r="5"/>
	<circle class="st2" cx="277.4" cy="178.5" r="3.7"/>
	<circle class="st2" cx="283.2" cy="173.4" r="3.7"/>
	<circle class="st2" cx="280.6" cy="196.1" r="4"/>
	<circle class="st2" cx="287" cy="190.6" r="4"/>
	<circle class="st2" cx="280.3" cy="214.1" r="2.7"/>
	<circle class="st2" cx="285.1" cy="210.8" r="2.7"/>
	<circle class="st2" cx="289.6" cy="206.4" r="2.7"/>
	<circle class="st2" cx="283" cy="229" r="2.7"/>
	<circle class="st2" cx="287.8" cy="226.3" r="2.7"/>
	<circle class="st2" cx="292.2" cy="223" r="2.7"/>
	<circle class="st2" cx="277.4" cy="231.6" r="2.7"/>
</g>
</svg>
