<svg xmlns="http://www.w3.org/2000/svg" xmlns:xlink="http://www.w3.org/1999/xlink" version="1.1" id="Layer_1" x="0px" y="0px" viewBox="0 0 198 156" style="enable-background:new 0 0 198 156;" xml:space="preserve" width="198" height="156">
<style type="text/css">
	.st0{fill-rule:evenodd;clip-rule:evenodd;fill:#DD1100;}
</style>
<g id="Page-1">
</g>
<g id="wolframCorporateLogo">
	<g id="corporateSpikey" transform="translate(44.000000, 0.000000)">
		<path id="Shape" class="st0" d="M101.4,83.9l15.9-17.8l-23.3-5.1l2.4-23.7l-21.8,9.6l-12-20.6l-12,20.6l-21.8-9.6L30.9,61    L7.6,66.1l15.9,17.8L7.6,101.7l23.3,5.1l-2.4,23.7l21.8-9.6l12,20.6l12-20.6l21.8,9.6l-2.4-23.7l23.3-5.1L101.4,83.9z M109,97.3    l-13.7-4.7l-9.1-11.9l12.1,4.5L109,97.3z M72.2,118.5L64,132.6v-14.9l8.5-12.5L72.2,118.5z M57.8,60.1l-14.1-5l-8.5-11.4L50,50.2    L57.8,60.1z M74.8,50.2l14.8-6.5l-8.5,11.4l-14.1,5L74.8,50.2z M90.7,61.7l-7.4,10.5L83.7,57l8.6-11.6L90.7,61.7z M62.4,114.4    l-9.9-14.4l9.9-13.4l9.9,13.4L62.4,114.4z M44.8,76.2l-0.5-17.5l16.5,5.9v17.1L44.8,76.2z M64,64.6l16.5-5.9L80,76.2l-16,5.4V64.6    z M34.2,61.7l-1.6-16.3L41.1,57l0.4,15.2L34.2,61.7z M59.9,84.6L50,98.1l-16.8-5l10.7-13.9L59.9,84.6z M52.3,105.2l8.5,12.5v14.9    l-8.2-14.1L52.3,105.2z M65,84.6l16-5.4l10.7,13.9l-16.8,5L65,84.6z M111.3,68.1l-12.5,14L84,76.6l8.8-12.5L111.3,68.1z     M62.4,32.6l9.5,16.2l-9.5,12.1L53,48.8L62.4,32.6z M13.6,68.1l18.4-4l8.8,12.5l-14.7,5.5L13.6,68.1z M26.5,85.3l12.1-4.5    l-9.1,11.9l-13.8,4.7L26.5,85.3z M16.5,100.4l14.1-4.8l14.6,4.3l-12.6,4L16.5,100.4z M34.1,106.8l14.9-4.7l0.4,15.9l-17.2,7.6    L34.1,106.8z M75.4,117.9l0.4-15.9l14.9,4.7l1.9,18.7L75.4,117.9z M92.3,103.9l-12.6-4l14.6-4.3l14.1,4.8L92.3,103.9z"/>
	</g>
</g>
</svg>