<svg width="600" height="370.8204" xmlns="http://www.w3.org/2000/svg" xmlns:xlink="http://www.w3.org/1999/xlink"><g transform="translate(60,10)"><g transform="translate(-98.85710882646623,-25.617807567499085) scale(1.204860372559025)"><g style="stroke-width: 10; stroke-linecap: round; stroke: rgb(255, 0, 0); opacity: 1;"><path d="M 246.38114193406437 188.05623150750588 l 0.0001 0" vector-effect="non-scaling-stroke"/></g><path class="line-929857c9-0bd3-4a7b-b9b2-e4dab791e5dd" vector-effect="non-scaling-stroke" fill="none" opacity="0.5" stroke="rgb(255,0,0)" stroke-width="1.5" d="M255,210.516L251.817,206.664L249.723,199.527L249.415,189.381L251.485,176.657L256.373,161.921L264.332,145.841L275.406,129.148L289.422,112.598L305.994,96.933L324.544,82.836L344.33,70.898L364.497,61.59L384.119,55.236L402.262,52L418.041,51.885L430.673,54.737L439.529,60.258L444.177,68.031L444.411,77.548L440.266,88.246L432.022,99.542L420.19,110.872L405.487,121.724L388.791,131.67L371.1,140.387L353.466,147.678L336.938,153.48L322.502,157.858L311.019,160.999L303.178,163.194L299.453,164.81L300.078,166.264L305.028,167.986L314.025,170.385L326.552,173.818L341.885,178.559L359.133,184.776L377.293,192.511L395.307,201.678L412.124,212.055L426.76,223.302L438.357,234.971L446.228,246.538L449.895,257.432L449.116,267.069L443.896,274.889L434.477,280.398L421.326,283.192L405.097,282.996L386.593,279.677L366.71,273.264L346.385,263.945L326.531,252.069L307.991,238.124L291.48,222.718L277.545,206.543L266.537,190.344L258.594,174.873L253.636,160.85L251.378,148.926L251.351,139.643L252.947,133.406L255.453,130.46L258.113,130.877L260.177,134.553L260.958,141.215L259.881,150.438L256.526,161.666L250.659,174.25L242.254,187.482L231.5,200.636L218.79,213.009L204.699,223.961L189.955,232.947L175.386,239.552L161.873,243.502L150.294,244.684L141.461,243.146L136.068,239.086L134.645,232.839L137.512,224.85L144.761,215.644L156.234,205.79L171.531,195.866L190.022,186.418L210.883,177.929L233.133,170.788L255.689,165.266L277.43,161.503L297.251,159.5L314.135,159.126L327.202,160.124L335.766,162.137L339.371,164.732L337.819,167.432L331.179,169.751L319.785,171.23L304.219,171.471L285.272,170.166L263.904,167.119L241.188,162.265L218.248,155.677L196.198,147.564L176.078,138.261L158.8,128.207L145.097,117.924L135.49,107.979L130.259,98.952L129.439,91.398L132.823,85.806L139.981,82.573L150.298,81.968L163.014,84.119L177.279,88.993L192.209,96.399L206.941,105.993L220.693,117.291L232.809,129.702L242.803,142.55L250.383,155.119L255.468,166.689L258.19,176.579L258.878,184.185L258.035,189.018L256.296,190.728L254.385,189.128L253.061,184.205L253.062,176.123L255.052,165.211L259.571,151.949L266.997,136.939L277.509,120.875L291.077,104.5L307.449,88.57L326.168,73.807L346.595,60.869L367.94,50.308L389.315,42.544L409.782,37.848L428.413,36.329L444.349,37.934L456.85,42.456L465.348,49.552L469.48,58.769L469.119,69.575L464.38,81.394L455.621,93.642L443.424,105.768L428.564,117.281L411.964,127.784L394.645,136.994L377.663,144.755L362.054,151.045L348.765,155.97L338.605,159.751L332.195,162.705L329.93,165.217L331.958,167.709L338.168,170.606L348.201,174.301L361.466,179.123L377.178,185.311L394.404,192.988L412.116,202.153L429.254,212.67L444.785,224.275L457.763,236.584L467.383,249.122L473.028,261.342L474.301,272.661L471.044,282.498L463.344,290.31L451.527,295.628L436.128,298.086L417.86,297.453L397.567,293.649L376.168,286.754L354.602,277.011L333.768,264.817L314.474,250.702L297.386,235.305L282.993,219.34L271.579,203.557L263.21,188.703L257.741,175.478L254.824,164.499L253.944,156.266L254.454,151.132L255.627,149.284L256.705,150.736L256.957,155.327L255.732,162.729L252.506,172.472L246.923,183.964L238.821,196.535L228.249,209.465L215.47,222.033L200.945,233.555L185.307,243.42L169.326,251.125L153.858,256.302L139.792,258.733L127.992,258.36L119.24,255.284L114.181,249.755L113.28,242.148L116.787,232.942L124.711,222.682L136.814,211.948L152.617,201.311L171.422,191.303L192.348,182.381L214.376,174.897L236.403,169.083L257.306,165.035L276.005,162.711L291.523,161.937L303.039,162.423L309.942,163.785L311.86,165.573L308.682,167.307L300.569,168.508L287.94,168.736L271.45,167.622L251.952,164.896L230.448,160.406L208.035,154.137L185.839,146.208L164.952,136.875L146.378,126.512L130.969,115.592L119.39,104.656L112.08,94.284L109.234,85.051L110.802,77.495L116.495,72.081L125.816,69.165L138.092,68.974L152.524,71.581L168.241,76.903L184.355,84.697L200.023,94.569L214.496,105.998L227.169,118.36L237.615,130.963L245.609,143.084L251.138,154.012L254.399,163.089L255.781,169.746L255.833,173.537L255.221,174.164L254.684,171.498L254.977,165.587L256.816,156.649L260.825,145.067L267.49,131.364L277.123,116.178L289.831,100.22L305.506,84.243L323.822,68.994L344.257,55.177L366.111,43.417L388.555,34.222L410.675,27.962L431.528,24.855L450.201,24.951L465.867,28.143L477.837,34.175L485.608,42.661L488.891,53.117L487.638,64.989L482.048,77.693L472.554,90.651L459.807,103.326L444.635,115.253L428.002,126.071L410.946,135.536L394.523,143.534L379.745,150.086L367.519,155.335L358.597,159.538L353.526,163.034L352.621,166.223L355.944,169.53L363.3,173.371L374.249,178.118L388.132,184.073L404.11,191.434L421.214,200.284L438.398,210.574L454.607,222.122L468.831,234.622L480.169,247.654L487.877,260.714L491.41,273.238L490.451,284.639L484.929,294.343L475.015,301.827L461.109,306.651L443.816,308.494L423.898,307.17L402.235,302.654L379.761,295.079L357.41,284.741L336.061,272.085L316.479,257.678L299.279,242.191L284.884,226.352L273.509,210.916L265.152,196.619L259.598,184.136L256.443,174.049L255.125,166.811L254.967,162.723L255.227,161.913L255.153,164.337L254.037,169.776L251.27,177.854L246.381,188.056"/></g></g></svg>