<svg xmlns="http://www.w3.org/2000/svg"  viewBox="0 0 16 16" class="showDeletedPages" style="width: 16px; height: 16px; display: block; fill: rgba(55, 53, 47, 0.85); flex-shrink: 0; backface-visibility: hidden;"><path d="M1.89551 8.5498C1.89551 11.9404 4.61621 14.668 8 14.668C11.3838 14.668 14.1045 11.9404 14.1045 8.5498C14.1045 5.16602 11.4043 2.45898 8.02051 2.45898C7.66504 2.45898 7.31641 2.49316 7.01562 2.55469L8.66992 0.920898C8.78613 0.797852 8.85449 0.640625 8.85449 0.462891C8.85449 0.09375 8.56738 -0.207031 8.20508 -0.207031C8.01367 -0.207031 7.84961 -0.138672 7.7334 -0.00878906L4.93066 2.8418C4.79395 2.97852 4.71875 3.15625 4.71875 3.33398C4.71875 3.51855 4.78711 3.68262 4.93066 3.82617L7.7334 6.65625C7.84961 6.7793 8.00684 6.84082 8.20508 6.84082C8.56738 6.84082 8.85449 6.55371 8.85449 6.17773C8.85449 6 8.78613 5.85645 8.66309 5.72656L6.80371 3.88086C7.15234 3.80566 7.56934 3.77148 8.02051 3.77148C10.666 3.77148 12.7646 5.88379 12.7646 8.5498C12.7646 11.2021 10.6455 13.3281 8 13.3281C5.35449 13.3281 3.23535 11.2021 3.23535 8.5498C3.23535 8.14648 2.97559 7.85938 2.5791 7.85938C2.17578 7.85938 1.89551 8.14648 1.89551 8.5498Z"></path>
                                                    </svg>