                    <svg  viewBox="0 0 24 24" aria-hidden="true" fill="currentColor" xmlns="http://www.w3.org/2000/svg" class="drag_svg__StyledIconBase-ea9ulj-0 drag_svg__iuNRof" style="width: 18px; height: 18px; color: rgba(55, 53, 47, 0.3);">
                        <path class="" fill="none" d="M0 0h24v24H0V0z"></path>
                        <path class="" d="M11 18c0 1.1-.9 2-2 2s-2-.9-2-2 .9-2 2-2 2 .9 2 2zm-2-8c-1.1 0-2 .9-2 2s.9 2 2 2 2-.9 2-2-.9-2-2-2zm0-6c-1.1 0-2 .9-2 2s.9 2 2 2 2-.9 2-2-.9-2-2-2zm6 4c1.1 0 2-.9 2-2s-.9-2-2-2-2 .9-2 2 .9 2 2 2zm0 2c-1.1 0-2 .9-2 2s.9 2 2 2 2-.9 2-2-.9-2-2-2zm0 6c-1.1 0-2 .9-2 2s.9 2 2 2 2-.9 2-2-.9-2-2-2z"></path>
                        <path class="" style="transform: scale(2.0);" d="M6.02734 8.80274C6.27148 8.80274 6.47168 8.71484 6.66211 8.51465L10.2803 4.82324C10.4268 4.67676 10.5 4.49609 10.5 4.28125C10.5 3.85156 10.1484 3.5 9.72363 3.5C9.50879 3.5 9.30859 3.58789 9.15234 3.74902L6.03223 6.9668L2.90722 3.74902C2.74609 3.58789 2.55078 3.5 2.33105 3.5C1.90137 3.5 1.55469 3.85156 1.55469 4.28125C1.55469 4.49609 1.62793 4.67676 1.77441 4.82324L5.39258 8.51465C5.58789 8.71973 5.78808 8.80274 6.02734 8.80274Z"></path>
                   </svg>