<svg xmlns="http://www.w3.org/2000/svg"  width="16" height="16" viewBox="0 0 16 16" fill="none" class="jsx-3846077284"><path fill-rule="evenodd" clip-rule="evenodd" d="M12.9009 13.0686C12.3333 13.6581 11.5224 14 10.5556 14H9.5V12H10.5556C11.0331 12 11.3056 11.8419 11.4602 11.6814C11.6267 11.5085 11.7222 11.2642 11.7222 11V10.5C11.7222 10.2276 11.7301 9.79053 12.14 9C12.5 8.39782 13.25 8 13.25 8C13.25 8 12.4702 7.69361 12.14 7.05676C11.7301 6.26622 11.7222 5.77243 11.7222 5.5V5C11.7222 4.73583 11.6267 4.49147 11.4602 4.31864C11.3056 4.1581 11.0331 4 10.5556 4H9.5L9.5 2H10.5556C11.5224 2 12.3333 2.3419 12.9009 2.93136C13.4567 3.50853 13.7222 4.26417 13.7222 5V5.5C13.7222 5.72757 13.7421 6.14272 13.9155 6.47718C13.9933 6.6271 14.0935 6.74371 14.2303 6.82779C14.3663 6.91136 14.5987 7 15 7V9C14.5987 9 14.3663 9.08864 14.2303 9.17221C14.0935 9.25629 13.9933 9.3729 13.9155 9.52282C13.7421 9.85728 13.7222 10.2724 13.7222 10.5V11C13.7222 11.7358 13.4567 12.4915 12.9009 13.0686Z" fill="rgba(55, 53, 47, 0.3)"></path><path fill="rgba(55, 53, 47, 0.3)" fill-rule="evenodd" clip-rule="evenodd" d="M3.09912 13.0686C3.66675 13.6581 4.47757 14 5.44444 14H6.5V12H5.44444C4.96688 12 4.69436 11.8419 4.53976 11.6814C4.37334 11.5085 4.27778 11.2642 4.27778 11V10.5C4.27778 10.2276 4.26988 9.79053 3.85998 9C3.5 8.39782 2.75 8 2.75 8C2.75 8 3.52976 7.69361 3.85998 7.05676C4.26988 6.26622 4.27778 5.77243 4.27778 5.5V5C4.27778 4.73583 4.37334 4.49147 4.53976 4.31864C4.69436 4.1581 4.96688 4 5.44444 4H6.5L6.5 2H5.44444C4.47757 2 3.66675 2.3419 3.09912 2.93136C2.54333 3.50853 2.27778 4.26417 2.27778 5V5.5C2.27778 5.72757 2.25789 6.14272 2.08447 6.47718C2.00673 6.6271 1.90646 6.74371 1.7697 6.82779C1.63375 6.91136 1.40134 7 1 7L1 9C1.40134 9 1.63375 9.08864 1.7697 9.17221C1.90646 9.25629 2.00673 9.3729 2.08447 9.52282C2.25789 9.85728 2.27778 10.2724 2.27778 10.5V11C2.27778 11.7358 2.54333 12.4915 3.09912 13.0686Z"></path>
</svg>