<svg xmlns="http://www.w3.org/2000/svg"  viewBox="0 0 16 16" class="moveTo" style="width: 16px; height: 16px; display: block; fill: rgba(55, 53, 47, 0.85); flex-shrink: 0; backface-visibility: hidden;"><path d="M2.34668 13.5469C2.78418 13.5469 3.07812 13.2393 3.07812 12.8018C3.07812 12.542 3.05762 12.2754 3.05762 11.8994C3.05762 9.60254 3.86426 8.67285 6.14062 8.67285H10.5771L12.2109 8.57031L10.1738 10.4297L8.64941 11.9678C8.5127 12.1045 8.43066 12.2891 8.43066 12.501C8.43066 12.9111 8.73828 13.2188 9.16895 13.2188C9.35352 13.2188 9.53809 13.1436 9.70215 12.9863L14.207 8.48145C14.3711 8.33105 14.4531 8.12598 14.4531 7.9209C14.4531 7.71582 14.3711 7.51758 14.207 7.36035L9.71582 2.86914C9.53809 2.70508 9.35352 2.62305 9.16895 2.62305C8.73828 2.62305 8.43066 2.93066 8.43066 3.34082C8.43066 3.55273 8.5127 3.7373 8.64941 3.87402L10.1738 5.41895L12.2041 7.27148L10.5771 7.17578H6.04492C2.87988 7.17578 1.54688 8.63184 1.54688 11.8516C1.54688 12.2549 1.56055 12.6035 1.61523 12.877C1.67676 13.2051 1.88184 13.5469 2.34668 13.5469Z"></path></svg>