<svg xmlns="http://www.w3.org/2000/svg"  viewBox="0 0 14 14" class="sidebarUpdates" style="width: 14px; height: 14px; display: block; fill: rgba(55, 53, 47, 0.45); flex-shrink: 0; backface-visibility: hidden;">
                                                                        <path d="M7.01356 14.0001C8.8042 14.0001 10.5958 13.3107 11.9575 11.9324C14.681 9.21201 14.6808 4.7603 11.9571 2.04013C9.23336 -0.680043 4.77573 -0.680043 2.05199 2.04013C0.727519 3.36277 0 5.13301 0 6.99553C0 8.8764 0.727811 10.6285 2.05199 11.9509C3.43207 13.3106 5.22243 14.0001 7.01356 14.0001ZM3.72947 7.00914V8.461V8.65543H3.92382H5.34563H8.2794H8.4738V8.461V5.52541V3.37947V3.18502H8.2794H6.82747H6.63307V3.37947V6.81467H3.92382H3.72947V7.00914ZM1.83985 6.99553C1.83985 5.61698 2.38099 4.32597 3.36061 3.3477C5.36746 1.34337 8.64803 1.34062 10.6585 3.33944C10.6613 3.34219 10.6639 3.34494 10.6668 3.3477C12.676 5.3546 12.6763 8.63642 10.6668 10.6434C8.65705 12.6504 5.37031 12.6504 3.36061 10.6434C2.38099 9.66506 1.83985 8.37408 1.83985 6.99553Z"></path>
                                                                    </svg>