<?xml version="1.0" encoding="UTF-8"?>
<svg width="190px" height="198px" viewBox="0 0 190 198" version="1.1" xmlns="http://www.w3.org/2000/svg" xmlns:xlink="http://www.w3.org/1999/xlink">
    <!-- Generator: Sketch 41.2 (35397) - http://www.bohemiancoding.com/sketch -->
    <title>mathematicaIcon</title>
    <desc>Created with Sketch.</desc>
    <defs></defs>
    <g id="Page-1" stroke="none" stroke-width="1" fill="none" fill-rule="evenodd">
        <g id="mathematicaIcon">
            <g id="mathematicaSpikeyBackground" fill="#DD1100">
                <polygon id="Shape" points="189.15516 129.58278 161.88941 98.99311 189.15056 68.39577 149.1101 59.676 153.18035 18.9 115.66388 35.3802 94.98774 0 74.32231 35.38325 36.80131 18.91225 40.88076 59.68825 0.84489 68.41725 28.11064 99.00848 0.84944 129.60428 40.88832 138.324 36.8181 179.1 74.3361 162.62134 95.01073 198 115.67766 162.61675 153.19718 179.08624 149.11931 138.31324"></polygon>
            </g>
            <path d="M117.59192,68.37366 C117.59192,68.37366 108.61731,74.1142 94.58539,74.14344 C80.55347,74.17268 72.96149,68.37366 72.96149,68.37366 C72.96149,68.37366 75.26581,78.23766 71.51007,90.90857 C69.2520989,98.5048586 64.8754534,105.300067 58.89319,110.49762 C58.89319,110.49762 71.38489,111.953 80.01219,118.45691 C88.63949,124.96082 94.95331,136.7746 94.95331,136.7746 C94.95331,136.7746 100.37036,125.41486 109.32654,118.69696 C118.28272,111.97906 131.17505,110.57849 131.17505,110.57849 C131.17505,110.57849 121.83667,100.06775 118.15711,90.74164 C114.47755,81.41553 117.59192,68.37366 117.59192,68.37366 Z M104.76672,112.3739 C98.75836,116.33465 94.99182,123.38202 94.99182,123.38202 C92.3019834,119.166541 88.8785521,115.467153 84.88382,112.45923 C80.9472608,109.662687 76.4719781,107.715656 71.7424,106.74188 C71.7424,106.74188 77.03305,100.31372 79.2518,93.25909 C80.5957796,88.707734 81.0904325,83.947852 80.71103,79.2174 C80.71103,79.2174 87.95593,82.188 94.71857,82.251 C101.48121,82.314 109.28943,79.179 109.28943,79.179 C109.28943,79.179 107.44635,87.21306 109.74927,93.6804 C112.05219,100.14774 118.16413,106.65654 118.16413,106.65654 C113.43375,107.870481 108.916058,109.798412 104.76672,112.3739 L104.76672,112.3739 Z M133.28082,85.4109 C130.87146,77.5469 137.67706,40.35896 137.67706,40.35896 C137.67706,40.35896 112.1795,57.70117 94.26288,57.70117 C76.34626,57.70117 52.33167,40.34229 52.33167,40.34229 C52.33167,40.34229 60.26867,67.35987 55.42408,84.68323 C50.57949,102.00659 25.9729,121.51654 25.9729,121.51654 C25.9729,121.51654 58.1299,123.3692 70.34058,131.61554 C82.55126,139.86188 94.9693,171.63379 94.9693,171.63379 C94.9693,171.63379 111.46613,136.62659 118.36438,131.61554 C125.26263,126.60449 164.0271,121.473 164.0271,121.473 C164.0271,121.473 135.69019,93.27484 133.28082,85.41089 L133.28082,85.4109 Z M114.102,125.53326 C101.395,134.34332 94.977,153.66235 94.977,153.66235 C94.977,153.66235 85.4532,132.44897 75.01618,125.21325 C64.57916,117.97753 43.22974,116.0744 43.22974,116.0744 C43.22974,116.0744 59.70174,101.52307 63.68006,88.48211 C67.65838,75.44115 62.99872,55.19372 62.99872,55.19372 C62.99872,55.19372 80.72333,66.1098 94.44714,66.12854 C108.17095,66.14728 127.00781,55.20624 127.00781,55.20624 C127.00781,55.20624 121.47281,75.65039 125.87616,88.25958 C130.27951,100.86877 146.77033,116.04175 146.77033,116.04175 C146.77033,116.04175 126.80908,116.72327 114.102,125.53326 Z" id="Shape" fill="#FFFFFF"></path>
        </g>
    </g>
</svg>